<?xml version="1.0" encoding="utf-8"?>
<svg version="1.0" width="800.000000pt" height="300.000000pt" viewBox="0 0 800.000000 300.000000" preserveAspectRatio="xMidYMid meet" xmlns="http://www.w3.org/2000/svg">
  <defs/>
  <path d="M 204.2 95.1 C 189.3 98 177.2 111.2 175.4 126.3 L 174.7 132 L 181.4 132 L 188 132 L 188 129 C 188 120 197.5 110.1 207.8 108.4 L 212 107.7 L 212 100.9 C 212 93.2 212.3 93.5 204.2 95.1 Z" style="fill: rgb(255, 50, 0);" stroke="none"/>
  <path d="M 276.2 142.2 C 276.6 171.9 276.8 172.8 282.8 179.3 C 286.9 183.6 298 186.2 304.8 184.4 C 306.9 183.8 307.1 183.3 306.8 178.1 L 306.5 172.5 L 300.7 171.9 C 292 170.9 291.6 170.2 291.2 155.5 L 290.8 143 L 298.4 143 L 306 143 L 306 137.5 L 306 132 L 298.5 132 L 291 132 L 291 123.5 L 291 115 L 283.4 115 L 275.8 115 L 276.2 142.2 Z" style="fill: rgb(21, 21, 21);" stroke="none"/>
  <path d="M 232.3 133.5 C 226.4 136.5 222.6 141.4 221.1 148 C 220.5 150.5 220 159.6 220 168.2 L 220 184 L 227 184 L 234 184 L 234 170.2 C 234.1 155.7 235.1 148.6 237.7 145.8 C 239.9 143.4 245.4 142.5 248.9 144 C 254 146.1 255 149.9 255 167.9 L 255 184 L 262 184 L 269 184 L 269 166.7 C 269 147.4 268.3 143.5 263.7 138.3 C 259.1 133 253.9 131 244.9 131 C 238.8 131 236.4 131.5 232.3 133.5 Z" style="fill: rgb(21, 21, 21);" stroke="none"/>
  <path d="M 323.9 133.7 C 317.7 136.9 312.6 143 310.9 149.3 C 309.1 156.2 310.2 167 313.4 172.4 C 318.7 181.4 327.4 185.6 339.1 184.8 C 347.3 184.2 353.1 181.2 357.7 175.2 C 362.5 168.9 362.2 168 354.9 168 C 349.8 168 348.3 168.4 345.7 170.6 C 342.9 172.9 341.9 173.2 336.4 172.8 C 329.7 172.4 327 170.8 324.4 165.8 L 322.9 163 L 343 163 L 363 163 L 363 158.7 C 363 152.7 360.6 145.1 357.1 140.3 C 350.4 131.1 335.2 128.1 323.9 133.7 Z M 341.4 143.4 C 344.8 144.8 349 149.3 349 151.6 C 349 152.7 346.3 153 336 153 C 324.1 153 323.1 152.9 323.7 151.2 C 325.2 146.9 331.8 142.1 336.3 142 C 337.3 142 339.5 142.6 341.4 143.4 Z" style="fill: rgb(21, 21, 21);" stroke="none"/>
  <path d="M 380.2 133.6 C 370.1 138.6 368 144.6 368 167.7 L 368 184 L 375 184 L 382 184 L 382 169.7 C 382.1 148.6 383.6 144.4 391.7 143.3 C 395.2 142.8 396.2 143.2 399.1 145.8 L 402.5 148.8 L 402.8 166.4 L 403.1 184 L 410.1 184 L 417 184 L 417 166.9 C 417 147.9 416.3 144 411.7 138.4 C 407.3 133.1 402 131 392.9 131 C 386.8 131 384.4 131.5 380.2 133.6 Z" style="fill: rgb(21, 21, 21);" stroke="none"/>
  <path d="M 432.4 132.8 C 424.1 136.7 421 145.2 424.9 153.3 C 427.3 158.1 431.7 161.1 440.2 163.6 C 449.4 166.3 451.9 169 448.4 172.4 C 445.7 175.1 440.2 174.4 437 171 C 434.5 168.3 433.6 168 428.1 168 C 421 168 420.6 168.9 424.3 175.5 C 430.6 186.9 451.6 188.4 460.3 178.1 C 462.4 175.5 463 173.8 463 169.9 C 463 161 460 157.4 449.5 153.5 C 437.9 149.2 437.2 148.9 436.5 147.3 C 435.6 144.8 438.9 142 442.6 142 C 445.1 142 446.4 142.7 447.6 144.5 C 449.1 146.7 449.9 147 455.6 147 C 461.4 147 462 146.8 462 145 C 462 141.7 459.3 137.3 455.3 134.3 C 452.2 131.9 450.6 131.5 444.1 131.2 C 438.3 131 435.5 131.4 432.4 132.8 Z" style="opacity: 0.9; fill: rgb(21, 21, 21);" stroke="none"/>
  <path d="M 481.5 132.9 C 471.9 137.2 466.6 146.2 466.6 158 C 466.6 166.5 468.1 170.8 473 176.4 C 477.6 181.6 483.2 184.2 491.1 184.8 C 502.9 185.6 513.8 179.8 516.8 171.2 L 517.9 168 L 510.9 168 C 507.1 168 504 168.4 504 169 C 504 172.5 491 174.3 486 171.4 C 483.6 169.9 480 165.3 480 163.6 C 480 163.3 488.8 163 499.5 163 L 519 163 L 519 156.7 C 519 146 512.8 136.5 503.3 132.5 C 498.3 130.4 486.5 130.6 481.5 132.9 Z M 500.3 144.2 C 502 145.1 506 150.7 506 152.2 C 506 152.7 500.2 153 493 153 C 482.2 153 480 152.7 480 151.5 C 480 149.5 486.5 143.2 489.2 142.7 C 492.1 142.1 497.9 142.9 500.3 144.2 Z" style="fill: rgb(21, 21, 21);" stroke="none"/>
  <path d="M 587.5 132.9 C 582.8 135 576.5 141.7 574.2 146.9 C 572.1 151.8 572.2 164.3 574.3 169.2 C 578.5 178.6 586.5 184 597.1 184.8 C 608.9 185.6 619.8 179.8 622.8 171.2 L 623.9 168 L 616.9 168 C 613.1 168 610 168.4 610 169 C 610 170.8 604.1 173 598.9 173 C 594.3 173 593.4 172.6 589.9 169.1 C 587.7 167 586 164.7 586 164.1 C 586 163.3 591.8 163 605.5 163 L 625 163 L 625 156.7 C 625 145.6 617.8 135 608.1 132.2 C 602.3 130.4 592.1 130.7 587.5 132.9 Z M 606.3 144.2 C 608 145.1 612 150.7 612 152.2 C 612 152.7 606.2 153 599 153 C 591.9 153 586 152.8 586 152.5 C 586 152.1 586.7 150.6 587.4 149.1 C 589 146.2 592.2 143.6 595.5 142.7 C 598 142 603.8 142.8 606.3 144.2 Z" style="fill: rgb(21, 21, 21);" stroke="none"/>
  <path d="M 199 158 L 199 184 L 205.5 184 L 212 184 L 212 158 L 212 132 L 205.5 132 L 199 132 L 199 158 Z" style="fill: rgb(21, 21, 21);" stroke="none"/>
  <path d="M 519 132.9 C 519 133.4 523.3 144.8 528.5 158.2 C 533.7 171.5 538 183.2 538 184.1 C 538 184.9 536.3 190.1 534.1 195.6 L 530.3 205.5 L 537.2 205.8 C 541.1 206 544.5 205.9 544.7 205.6 C 545.2 205.2 571.3 137.7 572.6 133.7 C 573.1 132.2 572.3 132 565.6 132 L 558.1 132 L 552.3 149.5 C 549.2 159.1 546.3 167 546 167 C 545.7 167 542.8 159.1 539.7 149.5 L 533.9 132 L 526.4 132 C 522.3 132 519 132.4 519 132.9 Z" style="fill: rgb(21, 21, 21);" stroke="none"/>
</svg>