<?xml version="1.0" encoding="utf-8"?>
<svg version="1.0" width="612.000000pt" height="408.000000pt" viewBox="0 0 612.000000 408.000000" preserveAspectRatio="xMidYMid meet" xmlns="http://www.w3.org/2000/svg">
  <defs/>
  <g transform="matrix(0.114683, 0, 0, -0.114861, -75.972054, 458.961426)" fill="#000000" stroke="none" style="">
    <path d="M2343 3423 c-7 -2 -13 -16 -13 -29 0 -24 -23 -33 -35 -14 -3 6 -15&#10;10 -27 10 -19 0 -20 -4 -14 -50 8 -58 -8 -73 -48 -46 -23 15 -25 15 -28 -7 -4&#10;-30 -44 -36 -53 -8 -3 12 -10 21 -15 21 -13 0 -70 -57 -70 -70 0 -5 -16 -27&#10;-35 -47 -32 -34 -34 -39 -19 -50 26 -19 9 -58 -41 -94 -25 -18 -45 -37 -45&#10;-42 0 -5 13 -14 30 -20 32 -12 49 -37 25 -37 -8 0 -15 -6 -15 -12 0 -26 17&#10;-38 51 -36 41 1 74 -15 89 -43 16 -30 40 -111 40 -136 0 -13 6 -23 14 -23 16&#10;0 31 -34 21 -49 -3 -5 -1 -12 5 -16 15 -9 12 -61 -5 -75 -19 -16 -19 -28 1&#10;-87 21 -67 46 -112 64 -118 8 -3 19 -6 24 -7 4 -2 18 26 30 62 18 55 27 68 58&#10;85 20 11 41 28 45 38 5 10 33 31 63 45 60 30 73 49 38 54 -27 4 -30 26 -6 42&#10;14 8 20 7 31 -8 28 -38 25 1 -4 43 -23 35 -27 47 -17 58 6 8 19 12 29 10 13&#10;-4 19 6 28 51 7 38 8 59 1 66 -15 15 -12 46 5 46 19 0 19 5 -1 36 -16 23 -16&#10;29 1 83 10 33 14 64 11 70 -8 12 4 29 47 69 58 56 21 92 -43 42 -33 -26 -41&#10;-29 -46 -16 -3 9 -3 23 0 32 4 10 0 15 -12 13 -9 -1 -25 1 -34 6 -10 4 -24 5&#10;-31 2 -8 -3 -20 -1 -27 3 -24 15 8 40 50 40 56 0 68 22 30 54 -31 25 -70 35&#10;-70 17 0 -12 -39 -21 -45 -11 -8 12 28 30 59 30 29 0 35 14 10 24 -18 7 -83 7&#10;-101 -1z" style="fill: rgb(188, 188, 188);"/>
    <path d="M1856 3366 c-48 -11 -58 -20 -70 -60 -5 -13 -12 -17 -30 -12 -15 4&#10;-28 0 -36 -9 -7 -8 -18 -15 -26 -15 -24 0 -25 -20 -2 -61 21 -38 24 -40 58&#10;-34 19 4 39 13 43 21 4 8 14 14 22 14 28 0 25 -20 -9 -56 -28 -30 -39 -35 -60&#10;-30 -19 5 -24 3 -20 -8 8 -21 -15 -30 -24 -9 -15 37 -65 104 -73 96 -4 -4 -11&#10;-31 -15 -60 -5 -45 -4 -52 14 -62 14 -7 18 -17 15 -36 -8 -40 24 -45 54 -6 27&#10;34 44 39 63 16 10 -13 9 -15 -8 -15 -29 0 -34 -13 -17 -46 10 -21 11 -31 3&#10;-39 -7 -7 -12 -6 -15 3 -3 9 -10 4 -19 -14 -8 -15 -13 -29 -11 -31 3 -2 30 -5&#10;61 -6 39 -2 56 1 56 9 0 7 -5 16 -10 19 -7 4 2 19 20 38 31 32 37 56 20 73&#10;-16 16 -2 41 26 48 14 4 28 14 31 24 4 9 19 33 35 52 15 19 28 43 28 53 0 10&#10;14 32 30 49 32 32 36 56 10 68 -8 4 -29 15 -47 24 -35 18 -30 18 -97 2z" style="fill: rgb(188, 188, 188);"/>
    <path d="M3500 3195 c0 -8 5 -15 10 -15 6 0 10 7 10 15 0 8 -4 15 -10 15 -5 0&#10;-10 -7 -10 -15z" style="fill: rgb(188, 188, 188);"/>
    <path d="M3980 3176 c-16 -44 22 -122 63 -128 16 -2 21 -9 20 -26 -3 -26 27&#10;-31 46 -8 18 22 -4 59 -30 51 -14 -5 -19 -2 -19 14 0 11 -7 27 -16 35 -8 9&#10;-18 32 -21 51 -7 41 -29 47 -43 11z" style="fill: rgb(188, 188, 188);"/>
    <path d="M3560 3174 c0 -9 5 -14 12 -12 18 6 21 28 4 28 -9 0 -16 -7 -16 -16z" style="fill: rgb(188, 188, 188);"/>
    <path d="M3390 3173 c0 -5 6 -16 13 -25 12 -15 14 -15 25 3 17 26 15 29 -13&#10;29 -14 0 -25 -3 -25 -7z" style="fill: rgb(188, 188, 188);"/>
    <path d="M3515 3140 c4 -6 11 -8 16 -5 14 9 11 15 -7 15 -8 0 -12 -5 -9 -10z" style="fill: rgb(188, 188, 188);"/>
    <path d="M3038 3126 c-16 -5 -28 -16 -28 -24 0 -10 -8 -12 -31 -7 l-32 7 8&#10;-38 c4 -22 10 -43 15 -49 5 -5 12 -25 17 -44 5 -19 14 -36 19 -38 12 -4 34 39&#10;34 67 0 30 20 24 33 -10 6 -16 15 -30 19 -30 14 0 9 26 -9 46 -57 65 -56 122&#10;1 79 27 -20 31 -19 44 10 8 18 8 26 0 31 -18 11 -60 11 -90 0z" style="fill: rgb(188, 188, 188);"/>
    <path d="M1501 3038 c12 -23 28 -38 42 -38 13 0 7 20 -13 40 -27 27 -44 26&#10;-29 -2z" style="fill: rgb(188, 188, 188);"/>
    <path d="M1580 3011 c0 -6 5 -13 10 -16 6 -3 10 1 10 9 0 9 -4 16 -10 16 -5 0&#10;-10 -4 -10 -9z" style="fill: rgb(188, 188, 188);"/>
    <path d="M4102 2958 c-6 -6 -12 -17 -12 -24 0 -21 -52 -64 -79 -65 -46 -1&#10;-105 -41 -111 -74 -4 -23 -12 -31 -38 -39 -31 -9 -33 -12 -28 -39 5 -27 4 -29&#10;-18 -23 -14 3 -28 1 -31 -4 -4 -6 -15 -8 -26 -5 -17 6 -19 1 -19 -44 0 -31 4&#10;-51 11 -51 7 0 8 -7 4 -17 -4 -10 -8 -27 -11 -37 -5 -25 -31 -52 -41 -42 -4 4&#10;-2 16 5 27 13 21 6 195 -8 204 -26 16 -52 -95 -31 -133 17 -31 -4 -37 -43 -13&#10;-39 24 -56 27 -56 7 0 -16 -30 -26 -77 -26 -19 0 -43 -10 -62 -26 -21 -17 -37&#10;-23 -51 -19 -14 4 -20 2 -20 -9 0 -8 -9 -18 -20 -21 -11 -3 -20 -12 -20 -20 0&#10;-16 -61 -48 -71 -38 -4 5 -9 22 -11 38 -3 29 -1 30 37 30 33 0 40 3 40 20 0&#10;14 -17 30 -55 51 -30 18 -64 41 -76 53 -27 27 -42 26 -98 -5 -55 -31 -76 -56&#10;-115 -139 -17 -34 -44 -74 -61 -87 -27 -21 -31 -30 -28 -64 3 -36 5 -39 33&#10;-37 33 3 45 -10 45 -49 0 -16 4 -28 9 -28 18 0 41 31 41 55 0 13 4 26 9 30 5&#10;3 7 21 4 40 -4 27 1 44 26 81 17 26 31 51 31 56 0 13 43 5 47 -8 2 -6 -8 -28&#10;-22 -48 -16 -23 -25 -49 -23 -65 3 -24 6 -26 47 -23 32 3 42 0 39 -9 -3 -8&#10;-15 -16 -29 -19 -15 -4 -25 -14 -27 -28 -2 -12 -9 -22 -16 -22 -8 0 -16 -12&#10;-19 -28 -4 -22 -14 -30 -45 -38 -47 -12 -103 -7 -101 10 3 27 -2 47 -11 41 -5&#10;-3 -7 -19 -4 -35 5 -24 2 -31 -25 -44 -17 -9 -31 -20 -31 -25 0 -6 -47 -42&#10;-88 -67 -2 -1 4 -14 13 -28 27 -41 17 -60 -35 -66 -44 -5 -45 -6 -48 -45 -2&#10;-27 1 -43 13 -51 21 -16 65 -4 79 21 28 51 60 80 95 87 33 6 40 2 78 -35 24&#10;-22 45 -38 49 -35 3 4 -8 19 -25 34 -32 28 -39 48 -21 59 15 9 75 -52 95 -96&#10;19 -42 35 -43 35 -3 0 20 4 25 22 22 12 -2 22 -11 24 -22 4 -28 15 -35 64 -40&#10;50 -4 59 -20 41 -69 -9 -24 -16 -27 -59 -27 -27 0 -64 5 -82 12 -28 9 -35 8&#10;-45 -5 -16 -22 -21 -22 -82 10 -39 21 -51 33 -50 48 3 27 -49 32 -115 10 -27&#10;-9 -57 -13 -67 -10 -12 4 -24 -6 -41 -36 -14 -23 -37 -54 -51 -68 -40 -40 -53&#10;-70 -55 -136 -2 -55 0 -63 32 -102 50 -61 63 -66 142 -54 52 8 76 7 107 -3 36&#10;-13 40 -18 43 -52 2 -21 12 -49 22 -62 26 -33 34 -84 22 -134 -9 -35 -8 -49 9&#10;-84 10 -24 19 -49 19 -56 0 -21 48 -132 59 -136 5 -2 27 2 49 8 41 10 102 68&#10;102 94 0 8 7 19 15 26 8 7 15 26 15 42 0 22 10 40 37 64 l36 33 -13 56 c-16&#10;67 -7 94 52 144 61 53 113 143 72 127 -47 -18 -64 -18 -71 0 -4 11 -18 28 -31&#10;38 -21 17 -92 154 -92 177 0 43 84 -70 116 -156 9 -24 17 -29 35 -27 31 5 120&#10;55 144 82 26 29 9 56 -33 53 -46 -4 -105 72 -71 92 6 4 17 -2 24 -13 18 -25&#10;100 -52 158 -52 38 0 49 -5 70 -30 14 -16 30 -30 36 -30 5 0 12 -10 16 -22 17&#10;-62 51 -138 62 -138 6 0 15 20 19 45 6 40 13 52 61 90 30 25 62 45 72 45 17 0&#10;42 -24 61 -59 6 -12 17 -21 24 -21 8 0 17 -11 20 -25 4 -14 14 -25 23 -25 9 0&#10;27 -9 39 -21 18 -17 26 -19 43 -10 27 15 27 44 -1 81 -21 29 -21 30 -3 50 10&#10;11 26 20 34 18 22 -3 92 21 113 39 31 28 42 70 29 114 -9 31 -10 44 0 55 9 11&#10;8 14 -4 14 -24 0 -31 20 -14 38 26 25 80 5 92 -36 5 -17 15 -32 22 -32 16 0&#10;16 12 2 43 -9 21 -7 30 12 56 12 17 31 31 40 31 20 0 71 58 95 109 16 33 17&#10;33 30 16 17 -23 18 -9 3 34 -8 21 -19 33 -37 37 -66 14 -67 22 -9 87 l42 48&#10;72 2 c64 3 74 6 92 29 17 22 29 26 66 26 48 -1 54 -7 29 -33 -76 -76 -101&#10;-133 -75 -173 12 -20 61 58 65 103 3 44 34 75 75 75 14 0 46 14 70 30 24 17&#10;48 30 52 30 4 0 9 14 11 31 4 40 30 59 58 41 28 -17 43 -15 57 8 11 17 10 21&#10;-10 31 -12 7 -43 30 -69 51 -61 50 -114 67 -133 42 -11 -16 -15 -16 -29 -5&#10;-11 9 -29 11 -55 7 -36 -5 -42 -3 -62 25 -17 24 -27 30 -48 26 -29 -6 -60 8&#10;-79 35 -7 10 -22 18 -32 18 -10 0 -22 5 -25 10 -12 19 -45 10 -55 -15 -8 -20&#10;-16 -25 -45 -25 -19 0 -44 -6 -56 -12 -17 -11 -22 -10 -37 9 -18 24 -142 83&#10;-173 83 -11 0 -28 6 -40 13 -17 10 -22 9 -30 -5 -9 -17 -39 -26 -39 -12 0 3&#10;16 24 35 47 22 26 35 51 35 69 0 24 -7 32 -43 47 -24 10 -47 28 -52 40 -8 17&#10;-13 19 -23 9z m-885 -614 c9 -25 -13 -40 -26 -16 -10 19 -6 32 11 32 5 0 11&#10;-7 15 -16z m256 -316 c2 -7 -1 -21 -7 -30 -7 -13 -6 -22 5 -35 9 -10 15 -35&#10;15 -58 -1 -38 -3 -40 -31 -40 -26 0 -30 4 -36 35 -3 19 -11 48 -18 63 -17 42&#10;4 74 51 76 9 1 18 -5 21 -11z m-246 -14 c5 -15 7 -15 15 0 11 20 38 21 38 1 0&#10;-8 11 -22 25 -31 52 -34 20 -74 -42 -53 -24 8 -42 8 -65 0 -24 -9 -34 -8 -40&#10;1 -13 21 -9 44 13 72 23 29 47 34 56 10z m353 -14 c0 -18 -23 -34 -34 -23 -11&#10;11 -6 41 7 46 17 6 27 -1 27 -23z m-340 -650 c0 -13 -7 -20 -20 -20 -19 0 -27&#10;20 -13 33 13 14 33 6 33 -13z" style="fill: rgb(188, 188, 188);"/>
    <path d="M1302 2927 c-20 -22 -29 -47 -17 -47 17 0 55 35 55 51 0 25 -12 24&#10;-38 -4z" style="fill: rgb(188, 188, 188);"/>
    <path d="M1600 2916 c0 -8 8 -17 19 -21 10 -3 22 -20 27 -37 10 -35 32 -45&#10;100 -47 30 -1 44 4 48 15 9 25 0 29 -62 29 -50 0 -57 3 -60 21 -4 25 -72 63&#10;-72 40z" style="fill: rgb(188, 188, 188);"/>
    <path d="M3635 2910 c-3 -5 -25 -18 -48 -28 -53 -24 -59 -32 -96 -122 -29 -73&#10;-29 -75 -11 -92 26 -24 27 -23 22 16 -7 61 51 152 121 187 20 11 37 26 37 34&#10;0 17 -16 20 -25 5z" style="fill: rgb(188, 188, 188);"/>
    <path d="M1540 2885 c-10 -12 -10 -18 0 -30 19 -23 30 -18 30 15 0 33 -11 38&#10;-30 15z" style="fill: rgb(188, 188, 188);"/>
    <path d="M1352 2878 c-18 -18 -14 -38 8 -38 12 0 20 -7 20 -16 0 -12 5 -14 18&#10;-9 9 4 29 10 45 13 32 5 35 22 6 48 -21 19 -21 19 -18 0 6 -27 -17 -31 -38 -7&#10;-20 24 -25 25 -41 9z" style="fill: rgb(188, 188, 188);"/>
    <path d="M4536 2862 c-3 -6 -3 -18 0 -27 5 -13 14 -15 43 -10 38 7 59 20 49&#10;31 -12 11 -85 16 -92 6z" style="fill: rgb(188, 188, 188);"/>
    <path d="M1606 2841 c-4 -7 -5 -15 -2 -18 9 -9 19 4 14 18 -4 11 -6 11 -12 0z" style="fill: rgb(188, 188, 188);"/>
    <path d="M4668 2833 c7 -3 16 -2 19 1 4 3 -2 6 -13 5 -11 0 -14 -3 -6 -6z" style="fill: rgb(188, 188, 188);"/>
    <path d="M1246 2768 c-10 -39 -7 -75 8 -87 11 -10 18 -7 30 11 l17 23 19 -25&#10;c10 -13 16 -28 14 -32 -3 -4 7 -10 22 -14 26 -7 26 -8 9 -20 -18 -13 -18 -15&#10;4 -35 21 -20 27 -20 62 -10 22 7 48 9 59 6 24 -8 40 33 18 49 -21 15 -41 81&#10;-33 108 6 22 5 22 -9 4 -8 -10 -17 -22 -18 -27 -2 -4 -25 -3 -51 3 -36 7 -50&#10;16 -57 33 -15 38 -84 48 -94 13z" style="fill: rgb(188, 188, 188);"/>
    <path d="M1617 2773 c-4 -3 -7 -20 -7 -37 l0 -30 21 23 c26 28 12 71 -14 44z" style="fill: rgb(188, 188, 188);"/>
    <path d="M1537 2743 c-4 -20 0 -34 13 -47 26 -26 33 -16 25 33 -8 47 -30 55&#10;-38 14z" style="fill: rgb(188, 188, 188);"/>
    <path d="M4580 2760 c0 -5 5 -10 11 -10 5 0 7 5 4 10 -3 6 -8 10 -11 10 -2 0&#10;-4 -4 -4 -10z" style="fill: rgb(188, 188, 188);"/>
    <path d="M1695 2748 c-2 -7 -5 -24 -6 -38 -4 -54 1 -71 26 -80 28 -11 33 -42&#10;13 -85 -13 -29 -31 -28 -37 1 -2 10 -14 29 -27 41 -13 12 -24 30 -24 40 -1 10&#10;-7 29 -15 43 l-13 25 -7 -28 c-5 -17 -1 -40 10 -63 18 -39 14 -64 -10 -64 -9&#10;0 -15 9 -15 25 0 14 -4 25 -10 25 -5 0 -10 -11 -10 -25 0 -22 -4 -25 -37 -25&#10;-20 0 -45 7 -55 17 -18 16 -19 16 -25 -5 -5 -19 -10 -21 -47 -15 -22 3 -44 10&#10;-47 15 -12 19 -81 48 -113 48 -19 0 -37 4 -40 9 -7 11 -36 4 -85 -20 -31 -15&#10;-39 -15 -61 -4 -36 19 -189 58 -223 58 -19 0 -41 -13 -68 -39 -44 -43 -47 -54&#10;-19 -72 19 -12 27 -42 13 -55 -3 -4 -12 -2 -18 3 -9 7 -16 6 -25 -4 -17 -21&#10;-3 -38 28 -34 38 4 43 -34 7 -50 -49 -23 -20 -83 50 -103 11 -3 19 -13 19 -23&#10;-2 -22 18 -15 31 11 20 39 37 54 50 43 8 -7 17 -4 29 9 17 18 18 18 69 -1 77&#10;-29 225 -186 199 -212 -3 -4 6 -17 22 -29 25 -20 28 -28 27 -87 0 -42 7 -79&#10;19 -107 21 -48 81 -113 105 -113 8 0 15 -4 15 -9 0 -6 23 -36 50 -67 28 -31&#10;50 -63 50 -70 0 -16 65 -51 106 -58 42 -8 115 -45 136 -70 l18 -21 -2 35 c-3&#10;30 -7 35 -31 38 -27 3 -29 6 -23 38 8 39 -2 43 -27 13 -14 -16 -25 -19 -45&#10;-14 -42 10 -59 50 -48 110 8 43 24 52 106 58 75 5 90 2 90 -23 0 -11 4 -22 10&#10;-25 6 -4 8 10 4 38 -6 41 -4 46 24 66 17 12 33 34 37 50 7 31 76 111 112 130&#10;12 6 29 8 37 5 20 -8 21 10 1 26 -9 7 -14 19 -11 26 3 7 -2 15 -10 18 -27 10&#10;-15 29 14 23 16 -3 41 0 56 8 14 8 33 12 41 8 29 -10 16 35 -19 69 -19 18 -42&#10;53 -51 76 -17 41 -18 42 -36 26 -24 -21 -47 -12 -55 23 -9 33 -41 62 -69 63&#10;-18 0 -21 -6 -19 -48 0 -26 4 -57 8 -70 5 -15 2 -32 -8 -47 -9 -13 -16 -38&#10;-16 -54 0 -16 -5 -33 -12 -37 -14 -9 -38 23 -38 50 -1 16 -17 28 -66 51 -107&#10;49 -121 112 -43 193 43 44 59 52 59 28 0 -21 15 -27 41 -18 22 9 22 9 -9 32&#10;-39 29 -40 38 -7 50 24 9 26 15 24 60 -3 56 -3 55 32 64 23 5 32 -1 63 -38 20&#10;-25 36 -51 36 -60 0 -9 7 -16 15 -16 8 0 15 -4 15 -10 0 -5 -9 -10 -20 -10&#10;-10 0 -23 -6 -27 -13 -4 -8 -17 -19 -28 -25 -19 -11 -18 -11 7 -12 17 0 31 -8&#10;38 -20 16 -31 42 -40 64 -24 19 13 19 14 0 49 -22 42 -9 68 21 39 14 -15 18&#10;-15 26 -3 6 10 -3 25 -32 52 -26 24 -39 43 -35 53 7 17 -10 54 -24 54 -14 0&#10;-54 42 -79 83 -16 26 -30 37 -46 37 -39 0 -55 -11 -55 -36 0 -13 -4 -24 -10&#10;-24 -5 0 -10 14 -10 30 0 30 -17 41 -25 18z m128 -21 c3 -8 1 -20 -3 -27 -11&#10;-18 -41 5 -33 26 7 18 29 18 36 1z m-95 -659 c7 -7 12 -21 12 -31 0 -17 -5&#10;-18 -37 -12 -50 9 -52 13 -24 36 27 22 33 23 49 7z m66 -73 c-9 -22 -44 -19&#10;-44 3 0 26 10 33 31 21 10 -5 16 -16 13 -24z m-68 -1 c-3 -9 -6 -22 -6 -30 0&#10;-8 -4 -14 -10 -14 -5 0 -10 14 -10 30 0 21 5 30 16 30 11 0 14 -5 10 -16z" style="fill: rgb(188, 188, 188);"/>
    <path d="M3360 2540 c0 -5 5 -10 10 -10 6 0 10 5 10 10 0 6 -4 10 -10 10 -5 0&#10;-10 -4 -10 -10z" style="fill: rgb(188, 188, 188);"/>
    <path d="M2560 2477 c-45 -13 -44 -12 -30 -36 13 -25 56 -28 81 -5 14 13 16&#10;21 8 35 -11 21 -10 21 -59 6z" style="fill: rgb(188, 188, 188);"/>
    <path d="M2737 2264 c-9 -10 4 -56 20 -72 16 -16 17 -29 3 -37 -5 -3 -10 -15&#10;-10 -26 0 -21 33 -26 59 -10 11 7 10 15 -9 46 -13 20 -26 51 -29 68 -6 30 -21&#10;44 -34 31z" style="fill: rgb(188, 188, 188);"/>
    <path d="M2695 2170 c-3 -11 -3 -25 0 -30 10 -16 35 8 35 31 0 25 -27 24 -35&#10;-1z" style="fill: rgb(188, 188, 188);"/>
    <path d="M2080 2080 c-15 -27 -13 -30 20 -30 35 0 37 3 10 30 -19 19 -20 19&#10;-30 0z" style="fill: rgb(188, 188, 188);"/>
    <path d="M4587 1984 c-15 -15 -6 -32 13 -27 12 3 19 10 17 16 -4 14 -21 19&#10;-30 11z" style="fill: rgb(188, 188, 188);"/>
    <path d="M4570 1914 c0 -26 -34 -58 -82 -78 -21 -8 -38 -22 -38 -30 0 -13 3&#10;-13 28 0 15 8 40 19 55 24 33 12 66 75 48 93 -8 8 -11 5 -11 -9z" style="fill: rgb(188, 188, 188);"/>
    <path d="M4320 1571 c0 -29 15 -33 18 -5 1 13 -3 24 -8 24 -6 0 -10 -9 -10&#10;-19z" style="fill: rgb(188, 188, 188);"/>
    <path d="M1863 1488 c-26 -19 -31 -28 -26 -50 4 -18 -1 -35 -16 -54 -11 -15&#10;-21 -40 -21 -56 0 -43 55 -144 90 -164 41 -25 46 -64 26 -187 -24 -142 -39&#10;-339 -29 -378 9 -32 57 -79 69 -66 4 3 -1 18 -10 31 -20 32 -20 55 0 84 9 13&#10;14 32 11 42 -5 21 34 110 59 131 9 7 26 18 38 24 11 6 22 21 24 33 2 13 14 27&#10;26 32 26 9 70 64 81 100 10 35 32 57 63 65 34 8 50 31 58 82 3 23 17 57 30 74&#10;13 18 24 38 24 44 0 16 -46 39 -117 60 -54 16 -65 23 -80 54 -13 26 -26 37&#10;-49 42 -17 3 -47 17 -65 31 -19 14 -52 28 -74 31 -22 3 -49 9 -60 12 -12 3&#10;-32 -3 -52 -17z" style="fill: rgb(188, 188, 188);"/>
    <path d="M4356 1501 c-9 -14 12 -63 24 -56 14 8 13 35 -1 35 -6 0 -9 7 -5 15&#10;6 16 -9 21 -18 6z" style="fill: rgb(188, 188, 188);"/>
    <path d="M4070 1433 c0 -5 5 -14 12 -21 20 -20 0 -26 -26 -8 -14 9 -28 16 -31&#10;16 -12 0 90 -119 103 -119 18 -1 15 26 -5 37 -9 6 -19 28 -22 53 -3 23 -12 44&#10;-18 47 -7 2 -13 0 -13 -5z" style="fill: rgb(188, 188, 188);"/>
    <path d="M4259 1424 c-7 -8 -25 -22 -41 -30 -36 -19 -37 -51 -2 -64 14 -6 30&#10;-10 35 -10 12 0 32 46 36 88 4 35 -7 41 -28 16z" style="fill: rgb(188, 188, 188);"/>
    <path d="M4466 1352 c-7 -12 9 -25 52 -42 17 -7 32 -18 32 -26 0 -21 31 -33&#10;57 -21 16 7 27 7 38 -3 19 -16 28 -9 19 15 -9 22 -89 57 -129 57 -16 -1 -37 6&#10;-46 14 -10 9 -20 11 -23 6z" style="fill: rgb(188, 188, 188);"/>
    <path d="M4310 1331 c0 -10 9 -21 20 -24 21 -5 24 1 14 27 -9 22 -34 20 -34&#10;-3z" style="fill: rgb(188, 188, 188);"/>
    <path d="M4205 1270 c3 -5 11 -10 16 -10 6 0 7 5 4 10 -3 6 -11 10 -16 10 -6&#10;0 -7 -4 -4 -10z" style="fill: rgb(188, 188, 188);"/>
    <path d="M4450 1195 c-7 -8 -22 -15 -34 -15 -12 0 -39 -17 -61 -40 -21 -21&#10;-51 -42 -66 -45 -45 -10 -55 -29 -41 -81 7 -24 12 -57 12 -74 0 -16 4 -31 9&#10;-34 9 -6 56 7 108 30 40 18 98 18 116 0 90 -90 148 -116 177 -81 21 26 60 115&#10;60 139 0 23 -44 96 -67 109 -7 4 -25 31 -40 60 -25 48 -28 50 -31 25 -2 -14&#10;-10 -32 -18 -39 -21 -17 -62 3 -66 33 -4 28 -39 36 -58 13z" style="fill: rgb(188, 188, 188);"/>
    <path d="M3388 1162 c-22 -21 -28 -37 -28 -70 0 -35 3 -43 17 -40 16 3 34 42&#10;48 106 8 39 -1 40 -37 4z" style="fill: rgb(188, 188, 188);"/>
    <path d="M5000 836 c0 -34 16 -41 31 -15 9 17 8 23 -2 30 -22 14 -29 10 -29&#10;-15z" style="fill: rgb(188, 188, 188);"/>
    <path d="M4637 794 c-8 -8 1 -24 14 -24 5 0 9 7 9 15 0 15 -12 20 -23 9z" style="fill: rgb(188, 188, 188);"/>
    <path d="M4948 760 c-28 -29 -36 -50 -19 -50 9 0 61 64 61 74 0 13 -16 4 -42&#10;-24z" style="fill: rgb(188, 188, 188);"/>
  </g>
</svg>