<svg width="20" height="20" viewBox="0 0 20 20" fill="none" xmlns="http://www.w3.org/2000/svg">
<path fill-rule="evenodd" clip-rule="evenodd" d="M19.1817 10.0001C19.1817 4.89138 15.0404 0.75 9.93174 0.75C9.53892 0.75 9.22047 1.06845 9.22047 1.46127C9.22047 1.85409 9.53892 2.17253 9.93174 2.17253C14.2547 2.17253 17.7592 5.67702 17.7592 10.0001C17.7592 14.3231 14.2547 17.8275 9.93174 17.8275C9.53892 17.8275 9.22047 18.146 9.22047 18.5388C9.22047 18.9316 9.53892 19.2501 9.93174 19.2501C15.0404 19.2501 19.1817 15.1087 19.1817 10.0001ZM6.77269 1.31513C7.14215 1.18168 7.54984 1.37301 7.68328 1.74247C7.81673 2.11193 7.6254 2.51962 7.25593 2.65306C6.39791 2.96297 5.60104 3.42113 4.90171 4.00662C4.60052 4.25879 4.15192 4.21905 3.89976 3.91785C3.64758 3.61665 3.68733 3.16806 3.98853 2.91589C4.81559 2.22345 5.75799 1.68162 6.77269 1.31513ZM3.89942 16.0827C4.15136 15.7813 4.59992 15.7412 4.90131 15.9932C5.60128 16.5783 6.39836 17.0366 7.25644 17.3473C7.6258 17.481 7.81682 17.8888 7.6831 18.2582C7.54937 18.6275 7.14154 18.8186 6.77218 18.6848C5.75816 18.3177 4.81618 17.7762 3.98893 17.0846C3.68755 16.8327 3.64747 16.3841 3.89942 16.0827ZM2.89772 5.11477C2.55756 4.91829 2.12253 5.03476 1.92605 5.37492C1.38608 6.30975 1.01474 7.33227 0.82902 8.39572C0.761441 8.78268 1.02035 9.15116 1.40732 9.21874C1.79428 9.28632 2.16277 9.02741 2.23035 8.64044C2.38737 7.74133 2.70132 6.87681 3.15786 6.08643C3.35434 5.74627 3.23787 5.31125 2.89772 5.11477ZM1.40743 10.7803C1.79441 10.7128 2.16285 10.9718 2.23037 11.3588C2.3873 12.2583 2.70127 13.1231 3.15788 13.9138C3.35434 14.2539 3.23784 14.6889 2.89768 14.8854C2.55751 15.0819 2.12249 14.9654 1.92603 14.6252C1.38596 13.6901 1.01462 12.6671 0.829001 11.6033C0.761483 11.2163 1.02045 10.8479 1.40743 10.7803Z" fill="white"/>
<path fill-rule="evenodd" clip-rule="evenodd" d="M11.3719 5.63334C11.0934 5.42675 10.6983 5.44971 10.4458 5.70223L10.3769 5.78201C10.1703 6.06046 10.1933 6.45561 10.4458 6.70812L11.1295 7.39118L7.15379 7.39137L7.05728 7.39786C6.71011 7.44496 6.44253 7.74255 6.44253 8.10263C6.44253 8.49546 6.76097 8.8139 7.15379 8.8139H12.8463L12.9437 8.80769C13.5113 8.73414 13.7737 8.02417 13.3492 7.59968L11.4517 5.70221L11.3719 5.63334ZM13.5576 11.8977C13.5576 11.5048 13.2391 11.1864 12.8463 11.1864H7.15379L7.05644 11.1926C6.48884 11.2662 6.22636 11.9761 6.65085 12.4006L8.54832 14.2981L8.6281 14.367C8.90655 14.5736 9.30169 14.5506 9.55421 14.2981L9.62308 14.2183C9.82968 13.9399 9.80672 13.5447 9.55421 13.2922L8.86956 12.6081L12.8463 12.6089L12.9428 12.6024C13.29 12.5553 13.5576 12.2578 13.5576 11.8977Z" fill="#FF3D00"/>
</svg>
