<svg width="101" height="60" viewBox="0 0 101 60" fill="none" xmlns="http://www.w3.org/2000/svg">
<g clip-path="url(#clip0_1282_21980)">
<path d="M13.6974 27.3313C13.5374 26.8113 13.0574 25.6413 12.9274 24.7713C12.6374 22.8513 13.6374 21.5913 14.5674 21.3013C15.5974 21.0113 16.0074 21.5313 16.4074 22.7413C16.9274 24.5813 16.9774 26.9813 16.8074 30.4313C16.5774 35.1313 14.2274 40.8213 8.37739 40.7013C3.32739 40.5913 1.08739 37.3213 0.857394 32.3313C0.747394 29.9813 0.917394 27.6313 1.88739 24.3013C2.40739 22.5213 2.86739 21.8813 4.46739 21.5413C5.72739 21.3113 5.61739 22.6313 5.32739 24.1813C4.69739 27.6213 4.40739 29.2813 4.63739 33.1913C4.85739 37.3213 6.75739 38.9313 8.82739 38.9313C11.9274 38.9913 13.2974 36.4113 13.8774 32.6713C14.3274 29.6913 13.9874 28.2513 13.6974 27.3413V27.3313ZM79.7674 31.4013C80.9774 31.4013 81.3174 32.8313 81.0274 33.6913C80.7374 34.5513 79.7074 35.5313 78.1074 35.8113C77.7574 34.9513 77.5874 31.3913 79.7674 31.3913V31.4013ZM57.3374 33.3413C57.3374 32.3713 56.8174 31.5613 56.1874 31.5613C55.6674 31.5613 54.4674 32.1313 54.4674 33.9713C54.4674 35.4113 54.9774 36.0913 55.2174 36.3813C56.8774 35.8613 57.3374 34.4813 57.3374 33.3313V33.3413ZM39.4874 21.6413C39.4074 20.7213 38.6874 20.0913 37.7074 20.0913C36.6174 20.0913 35.5974 21.2313 35.6974 22.6713C35.7674 23.6213 36.3274 24.3913 37.4174 24.3913C38.6774 24.3913 39.5974 22.9613 39.4774 21.6313L39.4874 21.6413ZM48.8174 25.0113C48.7174 23.4113 48.3274 22.6813 47.4674 22.7413C46.3274 22.8113 45.7974 26.4013 46.0274 30.1813C46.1774 32.6513 46.5474 33.0313 46.8874 33.0013C47.5174 32.9613 49.0374 28.5613 48.8174 25.0113ZM86.8774 31.0513C86.1674 34.0013 84.0074 38.3413 80.7974 38.3413C80.0574 38.3413 78.7374 38.0513 78.7374 37.3113C78.7374 36.5113 83.7874 36.4013 83.7874 32.5513C83.7874 31.1213 82.4674 29.1113 80.5174 29.1113C77.9374 29.1113 75.4174 31.9213 75.4174 35.8213C75.4174 39.3213 77.5874 40.4713 79.7674 40.4713C83.5574 40.4713 85.8474 37.3713 87.0574 34.7913C87.6374 36.5113 87.9674 40.4713 89.4074 40.4713C89.9774 40.4713 90.3874 40.1813 91.0774 38.6413C92.7974 34.7913 94.4574 30.3813 96.7574 30.3813C97.6174 30.3813 97.0974 31.9313 99.1674 31.9313C100.137 31.9313 100.827 31.1313 100.827 30.2013C100.827 28.8813 99.6274 27.8513 97.7874 27.8513C92.3974 27.8513 91.2474 35.9413 90.3874 35.9413C88.9474 35.9413 89.4074 29.4613 88.3774 29.4613C87.4574 29.4613 87.0074 30.5513 86.8874 31.0713L86.8774 31.0513ZM40.9774 37.9313C41.8374 37.9313 43.3174 37.6513 44.4774 35.7913C43.8074 34.3113 43.3374 31.3213 43.2674 30.2413C42.9274 24.6813 45.0674 19.4513 47.4174 19.3013C49.1374 19.2013 50.5174 20.8213 50.6674 23.4613C51.0874 30.3913 48.7774 33.2813 47.6274 35.7813C47.8274 36.7513 49.4674 38.4013 51.0174 38.4013C51.5874 38.4013 52.2774 38.1113 52.4574 37.8813C52.3374 37.4813 52.2274 36.9713 52.2274 36.2213C52.2274 32.2013 54.8074 28.8213 57.0474 28.8213C58.8274 28.8213 59.8574 31.1713 59.8574 32.7213C59.8574 34.5513 58.3074 36.0513 56.0174 37.4813C56.4174 37.8813 57.1674 38.1713 57.7974 38.1713C61.0674 38.1713 62.7874 34.2113 64.0474 30.5913C64.2774 29.9013 64.6774 28.9313 65.4774 28.9313C66.8574 28.9313 67.4274 38.0013 69.7174 38.0013C70.6974 38.0013 71.4974 35.9913 71.4974 34.4513C71.4974 33.3013 71.0974 33.1913 71.0974 31.5213C71.0974 29.6913 72.0774 28.1413 73.3974 28.1413C74.1974 28.1413 74.4874 28.9413 74.4874 29.9113C74.4874 33.5813 71.8474 40.4113 67.9474 40.4113C65.0174 40.4113 65.2474 35.3613 64.2174 35.3613C63.0674 35.3613 61.4574 40.4713 55.7874 40.4713C54.8674 40.4713 53.8874 40.0113 53.0874 39.0913C51.7174 40.0113 50.5574 40.4113 49.2374 40.4113C47.1174 40.4113 46.1974 38.2313 45.3374 38.2313C44.3074 38.2313 43.1574 40.4713 39.7074 40.4713C36.9574 40.4713 36.4974 36.8013 35.5174 36.8013C34.6574 36.8013 33.3374 40.4713 31.8974 40.4713C29.4874 40.4713 28.9774 34.1013 26.8474 34.1013C25.1874 34.1013 19.9274 40.5713 18.4974 40.4213C17.9274 40.3613 17.6774 39.9313 17.7474 39.3613C17.8274 38.5713 18.5074 36.4413 18.7874 35.4413C19.2474 33.7013 19.6774 31.7813 19.9174 31.1713C20.1574 30.5513 20.7874 30.1213 21.2974 30.1613C21.5574 30.1813 21.6274 30.6613 21.7074 31.0613C21.9974 32.4813 22.3974 33.9313 22.8574 33.9313C23.6674 33.9313 26.3274 28.8213 27.8774 28.8213C29.7774 28.8213 29.9974 36.8513 32.5774 36.8513C33.4374 36.8513 34.0774 35.8213 34.6474 34.5513C34.7074 32.4213 35.2774 29.3913 36.9974 29.3913C38.2074 29.3913 38.7774 32.0813 37.9174 34.4413C37.9174 37.2513 39.7474 37.9413 40.9574 37.9413" fill="white"/>
</g>
<defs>
<clipPath id="clip0_1282_21980">
<rect width="100" height="60" fill="white" transform="translate(0.820312)"/>
</clipPath>
</defs>
</svg>
