<svg width="100" height="22" viewBox="0 0 100 22" fill="none" xmlns="http://www.w3.org/2000/svg">
<g clip-path="url(#clip0_1282_21279)">
<path d="M17.824 3.36999C17.2275 2.82146 16.1538 2.50801 15.0304 2.50801C14.2351 2.50801 13.2807 2.62556 13.2807 3.52671C13.2807 4.19279 14.076 4.50623 15.269 4.93722C16.6608 5.44657 18.3012 6.11264 18.3012 8.0423C18.3012 11.1082 14.9906 11.5 13.4398 11.5C12.5649 11.5 11.6105 11.4216 10.8848 11.2257C10.169 11.0298 10.0099 10.7164 10.0099 9.77605V8.6398C10.8053 9.18834 12.0778 9.4626 13.1216 9.4626C14.3942 9.4626 15.0304 9.10997 15.0304 8.32636C15.0304 7.54274 14.3544 7.30766 12.555 6.64159C11.3222 6.17142 10 5.54452 10 3.77159C10.0099 1.16607 13.0023 0.5 14.7918 0.5C15.8655 0.5 16.7404 0.695904 17.307 0.930988C17.7842 1.16607 17.824 1.44034 17.824 2.06723V3.3602V3.36999ZM27.3082 0.930988H30.6585C30.5392 1.98887 30.4994 3.68344 30.4994 5.32903V6.77872C30.4994 8.42431 30.5789 10.2364 30.738 11.1768H28.8292C28.1135 11.1768 27.7556 10.9417 27.6363 10.4715C26.7216 11.1376 25.7275 11.4118 24.7234 11.4118C21.1345 11.4118 20.6971 9.29608 20.6971 7.71906V4.84907C20.6971 3.24265 20.6175 1.78317 20.4982 0.921193H22.4866C23.4012 0.921193 23.8386 1.46972 23.8386 2.37088V6.54363C23.8386 8.18923 23.9977 9.45281 26.0655 9.45281C26.5427 9.45281 27.0199 9.37444 27.4175 9.21772V5.52493C27.4175 4.23197 27.3778 1.98887 27.2982 0.930988H27.3082ZM37.1901 11.1768H33.8398C33.9591 10.1189 33.9988 8.42431 33.9988 6.77872V5.32903C33.9988 3.68344 33.9591 1.87133 33.7602 0.930988H35.669C36.3848 0.930988 36.7427 1.16607 36.862 1.63624C37.7766 0.970169 38.7708 0.695904 39.7749 0.695904C43.3637 0.695904 43.8012 2.81167 43.8012 4.38869V7.25868C43.8012 8.86509 43.8807 10.3246 44 11.1866H42.0117C41.0971 11.1866 40.6597 10.638 40.6597 9.73687V5.56411C40.6597 3.91852 40.5006 2.65494 38.4228 2.65494C37.9456 2.65494 37.4684 2.7333 37.0708 2.89003V6.58281C37.0708 7.87578 37.0708 10.1189 37.1901 11.1768Z" fill="white"/>
<path d="M53.9835 0.817117C54.5362 0.817117 55.4046 0.777477 55.8388 0.698198C55.7599 1.01532 55.523 1.84775 55.3651 2.2045C55.0888 2.7991 54.7336 2.9973 53.352 2.9973H52.1678V6.53513C52.1678 7.84324 52.2072 10.1126 52.3257 11.1829H48.9605C49.0789 10.1126 49.1184 7.84324 49.1184 6.53513V3.00721H48.0921C47.1842 3.00721 46.3947 3.12613 46 3.36396V1.96667C46 1.17387 46.1579 0.817117 47.3421 0.817117H53.9835ZM67 5.9009C67 9.35946 65.0263 11.5 61.4638 11.5C57.9013 11.5 56.0855 9.55766 56.0855 6.01982C56.0855 2.48198 58.0197 0.5 61.5822 0.5C65.1447 0.5 67 2.4027 67 5.9009ZM59.125 5.94054C59.125 8.32883 59.9539 9.3991 61.5822 9.3991C63.2105 9.3991 63.9605 8.32883 63.9605 5.94054C63.9605 3.55225 63.1711 2.44234 61.5822 2.44234C59.9934 2.44234 59.125 3.55225 59.125 5.94054Z" fill="white"/>
<path d="M78.0636 11.4901C76.7659 11.4901 76.482 11.0166 75.6608 9.8722C75.2147 9.24081 73.7954 6.90269 73.5521 6.42915C73.4304 6.19238 73.3899 5.99507 73.6332 5.87668C74.6876 5.28475 74.9714 4.65336 74.9714 3.94305C74.9714 3.11435 74.6065 2.40404 73.3899 2.40404C73.0249 2.40404 72.4977 2.4435 72.2544 2.52242V6.28117C72.2544 7.58341 72.2949 9.8426 72.4166 10.9081H69.0811C69.2028 9.88206 69.2433 8.13587 69.2433 6.47848V5.01839C69.2433 3.36099 69.2028 1.53587 69 0.588789C70.5816 0.588789 72.9032 0.509865 73.9171 0.509865C75.7014 0.509865 78.1041 0.865022 78.1041 3.47937C78.1041 4.54484 77.577 5.413 76.6848 5.96547C76.5226 6.08386 76.5226 6.16278 76.6848 6.39955C77.8203 8.05695 79.1991 9.92152 80.4664 11.2238C80.0203 11.3422 78.8442 11.5 78.0636 11.5V11.4901ZM86.7622 7.88924V8.12601C86.7622 8.91525 86.8028 10.2175 86.9244 10.8982H83.4673C83.5889 10.2274 83.6295 8.88565 83.6295 8.12601V7.88924C83.6295 7.45516 83.5078 7.02108 83.1429 6.31076C82.3724 4.81121 80.659 1.92063 79.1991 0.618386C79.7668 0.539462 80.8212 0.5 81.47 0.5C82.8083 0.5 83.2138 0.934081 83.5382 1.44709C83.8221 1.88117 84.9576 4.06143 85.3226 4.96906C85.7687 3.94305 86.6608 2.11794 87.0664 1.48655C87.3908 1.013 87.8369 0.5 88.9724 0.5C89.4995 0.5 90.3512 0.539462 91 0.618386C89.9456 1.52601 87.9484 4.73229 87.1373 6.19238C86.7724 6.90269 86.7318 7.25785 86.7318 7.88924H86.7622Z" fill="white"/>
<path d="M2.66159 17.4959C2.42378 17.3419 1.97561 17.2392 1.71037 17.2392C1.25305 17.2392 0.960366 17.4138 0.960366 17.7936C0.960366 18.769 2.92683 18.3788 2.92683 20.0421C2.92683 20.9559 2.32317 21.5 1.35366 21.5C0.859756 21.5 0.402439 21.3768 0 21.1407L0.310976 20.4836C0.594512 20.6273 0.905488 20.7402 1.2622 20.7402C1.7561 20.7402 2.03049 20.5452 2.03049 20.1242C2.03049 19.1899 0.0731707 19.5698 0.0731707 17.8963C0.0731707 17.0749 0.722561 16.5 1.60061 16.5C2.07622 16.5 2.58841 16.6129 3 16.8491L2.66159 17.5062V17.4959Z" fill="white"/>
<path d="M7.98961 19.6743C7.98961 20.8672 7.11688 21.5 5.94286 21.5C4.76883 21.5 4 20.8776 4 19.612L4.02078 16.5104H4.98701L4.96623 19.6639C4.96623 20.4419 5.43377 20.7635 6.03636 20.7635C6.75325 20.7635 7.11688 20.2759 7.11688 19.6017V16.5H8V19.6535L7.98961 19.6743Z" fill="white"/>
<path d="M13.9603 21.247L12.8883 21.5L11.2109 18.4838C10.9231 17.9777 10.7841 17.5425 10.7841 17.5425C10.7841 17.5425 10.8437 18.1498 10.8437 18.5243V21.3684H10L10.0298 16.7429L11.1017 16.5L12.7692 19.496C13.0571 20.002 13.206 20.4372 13.206 20.4372C13.206 20.4372 13.1464 19.83 13.1464 19.4555V16.5911H14L13.9504 21.247H13.9603Z" fill="white"/>
<path d="M16.9147 17.2733L16.8882 21.5H16.0588L16.0853 17.2733H15V16.5H18V17.2733H16.9147Z" fill="white"/>
<path d="M20.5 21.5C18.9855 21.5 18 20.6581 18 18.9949C18 17.5986 19.0581 16.5 20.5 16.5C22.0871 16.5 23 17.4856 23 18.9949C23 20.4014 21.9004 21.5 20.5 21.5ZM20.5 17.2084C19.6701 17.2084 19.0477 17.8758 19.0477 18.9846C19.0477 20.0934 19.4834 20.771 20.5 20.771C21.5166 20.771 21.9419 19.8881 21.9419 18.9846C21.9419 17.9168 21.4751 17.2084 20.5 17.2084Z" fill="white"/>
<path d="M27.0225 21.4898L25.3596 19.2088L25.618 18.7811C25.8202 18.7709 26.6966 18.72 26.6966 17.9969C26.6966 17.4063 26.2584 17.223 25.6966 17.223C25.5169 17.223 25.236 17.223 25.0899 17.2434L25.0562 21.3778H24L24.0337 16.5611C24.0337 16.5611 25.2697 16.5 25.7528 16.5C26.8764 16.5 27.7753 16.7851 27.7753 17.8747C27.7753 18.6385 27.1798 19.1069 26.5393 19.2495C26.6742 19.3513 26.7528 19.443 26.8539 19.5754L28 21.1028L27.0225 21.5V21.4898Z" fill="white"/>
<path d="M30.4318 19.295V21.5H29.4888V19.3364L28 16.9348L28.8337 16.5L29.7568 18.0424C29.9156 18.2909 30.005 18.5911 30.005 18.5911C30.005 18.6118 30.0844 18.3426 30.273 18.0424L31.2556 16.5L32 16.9037L30.4318 19.2847V19.295Z" fill="white"/>
<path d="M36.2249 21.4897C35.9408 21.4897 35.3373 21.469 35 21.4483L35.0266 16.562C35.3373 16.5517 36.0651 16.5 36.3669 16.5C36.9172 16.5 37.9734 16.4897 37.9734 17.781C37.9734 18.4422 37.6006 18.8347 37.1568 18.938C37.7515 19.0103 38 19.5888 38 20.095C38 20.9112 37.5118 21.4897 36.2249 21.5V21.4897ZM36.287 19.3306H35.8432V20.7355C35.8432 20.7355 36.1805 20.7459 36.2692 20.7459C36.784 20.7459 37.1302 20.5393 37.1302 20.0331C37.1302 19.4236 36.7751 19.3409 36.287 19.3409V19.3306ZM36.3757 17.2231C36.2515 17.2231 35.9941 17.2335 35.8432 17.2438V18.5868H36.3314C36.8195 18.5868 37.1124 18.3905 37.1124 17.905C37.1124 17.3781 36.8284 17.2231 36.3757 17.2231Z" fill="white"/>
<path d="M40 21.5L40.0326 16.5H42.9891V17.2717H41.0543V18.5613H42.9674V19.333H41.0435V20.7283H43V21.5H40.0109H40Z" fill="white"/>
<path d="M45.411 21.4896H44.5069L43 16.7484L43.831 16.5L44.7534 19.5331C44.8904 19.9783 45 20.7029 45 20.7029C45 20.7029 45.0822 20.0818 45.2648 19.5331L46.2511 16.5104L47 16.7588L45.411 21.5V21.4896Z" fill="white"/>
<path d="M49 21.5L49.0326 16.5H51.9891V17.2717H50.0543V18.5613H51.9674V19.333H50.0435V20.7283H52V21.5H49.0109H49Z" fill="white"/>
<path d="M56.0337 21.4898L54.3708 19.2088L54.6292 18.7811C54.8315 18.7709 55.7079 18.72 55.7079 17.9969C55.7079 17.4063 55.2697 17.223 54.6966 17.223C54.5169 17.223 54.236 17.223 54.0899 17.2434L54.0562 21.3778H53L53.0337 16.5611C53.0337 16.5611 54.2697 16.5 54.7528 16.5C55.8764 16.5 56.7753 16.7851 56.7753 17.8747C56.7753 18.6385 56.1798 19.1069 55.5393 19.2495C55.6742 19.3513 55.7528 19.443 55.8539 19.5754L57 21.1028L56.0225 21.5L56.0337 21.4898Z" fill="white"/>
<path d="M60.1693 21.5L59.7449 20.0967H58.2099L57.7494 21.4896L57 21.2921L58.6433 16.5H59.474L61 21.2817L60.1603 21.5H60.1693ZM59.2573 18.4647C59.0767 17.8617 59.0045 17.29 59.0045 17.29C59.0045 17.29 58.9142 17.9033 58.7336 18.4647L58.4628 19.3482H59.5282L59.2573 18.4647Z" fill="white"/>
<path d="M65.9606 21.1721C65.5764 21.3156 64.8177 21.5 64.4433 21.5C63.0739 21.5 62 20.752 62 19.0205C62 17.5963 63.1724 16.5 64.4828 16.5C65.0345 16.5 65.3596 16.5922 65.7833 16.8176L65.4286 17.4324C65.0542 17.2684 64.8571 17.2275 64.4828 17.2275C63.7044 17.2275 63.0148 18.0061 63.0148 18.9795C63.0148 19.9529 63.4778 20.752 64.463 20.752C64.6897 20.752 64.9064 20.7213 65.0837 20.6701V19.0717H66L65.9803 21.1824L65.9606 21.1721Z" fill="white"/>
<path d="M67 21.5L67.0326 16.5H69.9891V17.2717H68.0543V18.5613H69.9674V19.333H68.0435V20.7283H70V21.5H67.0109H67Z" fill="white"/>
<path d="M76.3273 21.5L75.8545 20.9165C75.5273 21.2183 75.1182 21.3994 74.6 21.3994C73.2636 21.3994 73 20.5342 73 19.9608C73 19.3068 73.4909 18.834 73.9455 18.5221C73.6545 18.2002 73.4636 17.9185 73.4636 17.5262C73.4636 16.7917 74.0727 16.5 74.7182 16.5C75.3182 16.5 75.7273 16.8622 75.7273 17.4356C75.7273 17.9185 75.3818 18.2606 75.0182 18.5322L75.8273 19.5282C75.8818 19.2364 75.9 18.9044 75.9 18.6429H76.6273C76.6455 19.1962 76.5727 19.7596 76.3727 20.2022L77 20.9869L76.3273 21.5ZM74.3455 19.0352C74.0545 19.2565 73.8818 19.4678 73.8818 19.83C73.8818 20.3632 74.2091 20.6952 74.6636 20.6952C74.9909 20.6952 75.2364 20.5744 75.4273 20.3833L74.3455 19.0352ZM74.6364 17.0936C74.4455 17.0936 74.2909 17.2646 74.2909 17.4557C74.2909 17.6368 74.4 17.7575 74.6091 17.999C74.8909 17.7777 75 17.6469 75 17.4356C75 17.2243 74.8909 17.0835 74.6364 17.0835V17.0936Z" fill="white"/>
<path d="M82.0473 17.2822V18.6459H83.9673V19.4281H82.0364V21.5H81L81.0327 16.5H84V17.2717H82.0582L82.0473 17.2822Z" fill="white"/>
<path d="M86.5 21.5C84.9855 21.5 84 20.6581 84 18.9949C84 17.5986 85.0581 16.5 86.5 16.5C88.0871 16.5 89 17.4856 89 18.9949C89 20.4014 87.9004 21.5 86.5 21.5ZM86.5 17.2084C85.6701 17.2084 85.0477 17.8758 85.0477 18.9846C85.0477 20.0934 85.4834 20.771 86.5 20.771C87.5166 20.771 87.9419 19.8881 87.9419 18.9846C87.9419 17.9168 87.4751 17.2084 86.5 17.2084Z" fill="white"/>
<path d="M92.5 21.5C90.9855 21.5 90 20.6581 90 18.9949C90 17.5986 91.0581 16.5 92.5 16.5C94.0871 16.5 95 17.4856 95 18.9949C95 20.4014 93.9004 21.5 92.5 21.5ZM92.5 17.2084C91.6701 17.2084 91.0477 17.8758 91.0477 18.9846C91.0477 20.0934 91.4834 20.771 92.5 20.771C93.5166 20.771 93.9419 19.8881 93.9419 18.9846C93.9419 17.9168 93.4751 17.2084 92.5 17.2084Z" fill="white"/>
<path d="M97.5303 21.5C96.707 21.5 96 21.4586 96 21.4586L96.0291 16.5621C96.2324 16.5518 97.0944 16.5 97.5787 16.5C98.8184 16.5 100 17.0487 100 18.912C100 20.5787 98.7215 21.5 97.5303 21.5ZM97.6077 17.2246C97.3269 17.2246 97.0751 17.235 96.9298 17.2453V20.7547C96.9298 20.7547 97.2784 20.765 97.5399 20.765C98.3729 20.765 99.0121 19.9576 99.0121 18.9327C99.0121 17.9079 98.5182 17.2246 97.6077 17.2246Z" fill="white"/>
</g>
<defs>
<clipPath id="clip0_1282_21279">
<rect width="100" height="21" fill="white" transform="translate(0 0.5)"/>
</clipPath>
</defs>
</svg>
