<?xml version="1.0" encoding="UTF-8"?>
<svg id="white" xmlns="http://www.w3.org/2000/svg" viewBox="0 0 100 60">
  <defs>
    <style>
      .cls-1 {
        fill: #fff;
        stroke-width: 0px;
      }
    </style>
  </defs>
  <g>
    <path class="cls-1" d="m13.14,0c.99.19,1.74.85,2.58,1.33,4.07,2.31,8.11,4.68,12.15,7.04,4.15,2.42,8.28,4.86,12.44,7.27,2.81,1.64,5.64,3.25,8.46,4.87.35.2.74.35,1.05.81-3.87,2.23-7.72,4.45-11.59,6.68-4.37-2.54-8.73-5.06-13.06-7.58-.08.05-.12.06-.14.09-.03.03-.05.07-.06.1-.01.04-.02.08-.02.12,0,4.91-.02,9.82-.03,14.73,0,.04-.03.07-.09.2-1.47.86-3.01,1.77-4.55,2.67-2.11,1.23-4.22,2.45-6.35,3.65-.23.13-.46.36-.78.29V0Z"/>
    <path class="cls-1" d="m13.14,48.42h2.88c1.14,1.43,1.88,3.18,3.1,4.72,1.01-1.61,1.97-3.15,2.95-4.71h2.87v11.46c-.78.16-1.58.06-2.44.08v-7.57c-1.39,1.57-2.16,3.28-3.41,4.78-1.18-1.45-2.03-3.07-3.21-4.65-.16,1.31-.06,2.5-.08,3.69-.02,1.18,0,2.37,0,3.61-.88.29-1.78.07-2.65.14v-11.55Z"/>
    <path class="cls-1" d="m86.86.04v42.35c-3.98-2.29-7.85-4.52-11.75-6.76v-15.32c-4.54,2.55-8.88,5.15-13.31,7.67-3.82-2.2-7.67-4.4-11.45-6.57-.03-.12-.05-.16-.04-.19,0-.04.03-.08.06-.1.12-.11.24-.23.38-.31C62.62,13.92,74.49,7.04,86.35.16c.14-.08.28-.18.51-.12Z"/>
    <path class="cls-1" d="m60.75,52.85v2.16c-.87.38-1.81.13-2.72.18-.9.04-1.8,0-2.72,0-.3.78-.07,1.54-.16,2.39h6.24c.27.8.09,1.52.16,2.31-1.52.16-2.98.05-4.44.07-1.47.02-2.94,0-4.41,0-.21-.88-.27-9.87-.08-11.5.76-.24,7.49-.29,8.83-.06.2.64.02,1.33.13,2.06-1.12.21-2.17.08-3.22.1-1.02.02-2.03,0-3.1,0-.16.77-.06,1.49-.08,2.27h5.57Z"/>
    <path class="cls-1" d="m47.71,55.93c.95,1.3,1.88,2.58,2.92,4-1.04.08-1.95.03-2.94.03-.87-1.23-1.76-2.49-2.61-3.69h-2.23v3.63h-2.39v-11.36c.26-.27.57-.16.84-.16,1.68,0,3.35,0,5.03.04,1.19.03,2.25.48,3.06,1.34,1.21,1.28,1.16,3.43-.03,4.82-.46.53-1.06.88-1.66,1.35Zm-4.83-1.88c1.21-.07,2.38.16,3.54-.15,1.01-.27,1.47-.87,1.41-1.73-.05-.71-.67-1.4-1.55-1.51-1.12-.14-2.26-.06-3.4-.05v3.43Z"/>
    <path class="cls-1" d="m31.27,48.42h2.69c1.61,3.79,3.23,7.59,4.89,11.5h-2.61c-.42-.86-.85-1.73-1.28-2.61h-4.78c-.41.85-.82,1.72-1.26,2.62h-2.56c1.65-3.88,3.27-7.68,4.89-11.51Zm1.45,3.18c-.69,1.22-1.34,2.33-1.68,3.65,1.05.03,2.03.15,3.1-.09-.5-1.25-.96-2.41-1.42-3.56Z"/>
    <path class="cls-1" d="m63.87,48.42h2.55c.2,1,.07,2.02.09,3.02.02.98,0,1.96,0,2.94s0,2.02,0,3.15h5.59v2.28c-.89.2-6.09.26-8.15.09-.19-.97-.25-8.63-.08-11.48Z"/>
    <path class="cls-1" d="m82.39,59.88c-.16.03-.27.08-.39.08-2.57,0-5.14,0-7.7,0-.21-.91-.26-9.87-.06-11.53h2.55c.05.98.02,1.98.02,2.98,0,.98,0,1.96,0,2.94v3.15h5.58v2.37Z"/>
    <path class="cls-1" d="m86.65,59.93h-2.33v-11.5h2.21c.24.83.32,7.51.13,11.5Z"/>
  </g>
  <g>
    <path class="cls-1" d="m13.14,0c.99.19,1.74.85,2.58,1.33,4.07,2.31,8.11,4.68,12.15,7.04,4.15,2.42,8.28,4.86,12.44,7.27,2.81,1.64,5.64,3.25,8.46,4.87.35.2.74.35,1.05.81-3.87,2.23-7.72,4.45-11.59,6.68-4.37-2.54-8.73-5.06-13.06-7.58-.08.05-.12.06-.14.09-.03.03-.05.07-.06.1-.01.04-.02.08-.02.12,0,4.91-.02,9.82-.03,14.73,0,.04-.03.07-.09.2-1.47.86-3.01,1.77-4.55,2.67-2.11,1.23-4.22,2.45-6.35,3.65-.23.13-.46.36-.78.29V0Z"/>
    <path class="cls-1" d="m13.14,48.42h2.88c1.14,1.43,1.88,3.18,3.1,4.72,1.01-1.61,1.97-3.15,2.95-4.71h2.87v11.46c-.78.16-1.58.06-2.44.08v-7.57c-1.39,1.57-2.16,3.28-3.41,4.78-1.18-1.45-2.03-3.07-3.21-4.65-.16,1.31-.06,2.5-.08,3.69-.02,1.18,0,2.37,0,3.61-.88.29-1.78.07-2.65.14v-11.55Z"/>
    <path class="cls-1" d="m86.86.04v42.35c-3.98-2.29-7.85-4.52-11.75-6.76v-15.32c-4.54,2.55-8.88,5.15-13.31,7.67-3.82-2.2-7.67-4.4-11.45-6.57-.03-.12-.05-.16-.04-.19,0-.04.03-.08.06-.1.12-.11.24-.23.38-.31C62.62,13.92,74.49,7.04,86.35.16c.14-.08.28-.18.51-.12Z"/>
    <path class="cls-1" d="m60.75,52.85v2.16c-.87.38-1.81.13-2.72.18-.9.04-1.8,0-2.72,0-.3.78-.07,1.54-.16,2.39h6.24c.27.8.09,1.52.16,2.31-1.52.16-2.98.05-4.44.07-1.47.02-2.94,0-4.41,0-.21-.88-.27-9.87-.08-11.5.76-.24,7.49-.29,8.83-.06.2.64.02,1.33.13,2.06-1.12.21-2.17.08-3.22.1-1.02.02-2.03,0-3.1,0-.16.77-.06,1.49-.08,2.27h5.57Z"/>
    <path class="cls-1" d="m47.71,55.93c.95,1.3,1.88,2.58,2.92,4-1.04.08-1.95.03-2.94.03-.87-1.23-1.76-2.49-2.61-3.69h-2.23v3.63h-2.39v-11.36c.26-.27.57-.16.84-.16,1.68,0,3.35,0,5.03.04,1.19.03,2.25.48,3.06,1.34,1.21,1.28,1.16,3.43-.03,4.82-.46.53-1.06.88-1.66,1.35Zm-4.83-1.88c1.21-.07,2.38.16,3.54-.15,1.01-.27,1.47-.87,1.41-1.73-.05-.71-.67-1.4-1.55-1.51-1.12-.14-2.26-.06-3.4-.05v3.43Z"/>
    <path class="cls-1" d="m31.27,48.42h2.69c1.61,3.79,3.23,7.59,4.89,11.5h-2.61c-.42-.86-.85-1.73-1.28-2.61h-4.78c-.41.85-.82,1.72-1.26,2.62h-2.56c1.65-3.88,3.27-7.68,4.89-11.51Zm1.45,3.18c-.69,1.22-1.34,2.33-1.68,3.65,1.05.03,2.03.15,3.1-.09-.5-1.25-.96-2.41-1.42-3.56Z"/>
    <path class="cls-1" d="m63.87,48.42h2.55c.2,1,.07,2.02.09,3.02.02.98,0,1.96,0,2.94s0,2.02,0,3.15h5.59v2.28c-.89.2-6.09.26-8.15.09-.19-.97-.25-8.63-.08-11.48Z"/>
    <path class="cls-1" d="m82.39,59.88c-.16.03-.27.08-.39.08-2.57,0-5.14,0-7.7,0-.21-.91-.26-9.87-.06-11.53h2.55c.05.98.02,1.98.02,2.98,0,.98,0,1.96,0,2.94v3.15h5.58v2.37Z"/>
    <path class="cls-1" d="m86.65,59.93h-2.33v-11.5h2.21c.24.83.32,7.51.13,11.5Z"/>
  </g>
</svg>