<?xml version="1.0" encoding="UTF-8"?>
<svg id="white" xmlns="http://www.w3.org/2000/svg" viewBox="0 0 100 60">
  <defs>
    <style>
      .cls-1 {
        fill: #fff;
        stroke-width: 0px;
      }
    </style>
  </defs>
  <path class="cls-1" d="m69.99,29.33l-2.57.04-.06-2.77,2.63-.23v2.96Zm-2.23,12.15l.04-.55s0-1.13.05-1.49c.06-.36-.16-.67-.16-.67l-11.21-.11-.42-5.49s12.42-1.38,13.93-1.57v9.89h-2.23Zm-37.55,0v-7.33c.85-.3,1.62-.6,2-.72.95-.31,1,1.02,1.06,1.58.05.58,1.36.22,1.36.22l12.84-3.24.32.26c-1.26.88-7.89,2.05-7.89,2.05l.37,2.88,8.05-2.21.16,3.55s-7.52.88-8.1.97c-.59.11-.96.47-.96.47l-.35,1.51h-8.85Zm0-14.05c.56-.24,1.07-.47,1.43-.64,1.26-.62,1.37-.11,1.84.82.48.92,1.15.62,1.15.62l8.84-3.35,13.15-3.65s.06.22.79.22.11.88.11.88c0,0-3.95.72-4.63.83-.7.1-10.47,2.88-11.42,3.18-.95.31-.58.83-.47,1.18.1.36-.28.73-.28.73l-10.51,2.57v-3.38Zm4.64-9.93c.7-.42,1.12.1,1.12.1l.58,1.19s-4.07,1.78-6.32,2.6v-1.84l4.63-2.05Zm-4.64-11.27h5.65l.62,1.66s2.47-1.33,2.99-1.6l.17-.06h1.57s-.14.26-.14.26c-1.63.58-9.11,4.88-9.26,5.19-.16.31.79,1.13.79,1.13,0,0,2.8-1.55,3.42-1.96.64-.42,6.85-3.34,6.85-3.34l3.74-1.3h.8l-.23.22c-2.39.77-10.28,4.48-10.28,4.48-1.46.67-.53,1.64-.2,2.06.31.41-.11.97-.11.97l-6.38,2.66V6.24Zm25.81,0h.83c.3.19.62.5.59.94-.05.61-.26,1.49-.64,1.12-.36-.36-.36-1.12-.84-.88-.48.26-11.36,3.85-11.36,3.85l-3.22.88-.26-.22,14.78-5.59.12-.1Zm13.98,0v7.59l-7.77,1.45s.11,1.39.16,1.75c.06.36-.16.56-.16.56,0,0-1.01.22-1.42.26-.42.05-.59-.2-.59-.2l-.37-1.13s-.26-.56-.64-.67c-.36-.11-18.99,5.18-18.99,5.18l-1.42.16.74-.56c2.64-1.24,27.79-7.5,28.12-7.64.36-.14.47-.41.47-.41,0,0-.4-1.72-.49-1.96-.11-.24-.29-.18-.29-.18,0,0-9.43,2.14-9.9,2.23-.46.11-.49-.24-.49-.24,0,0,0-.2-.11-.48-.1-.28.29-.42.29-.42,0,0,8.21-1.57,9.01-1.7.82-.14.71-.62.71-.62,0,0-.4-1.72-.46-2.03-.07-.3-.5-.37-.5-.37l-1.26.1c-.77-.02-.49-.44-.49-.44,0,0,0-.1-.02-.25h5.87v.02Zm0,11.17c-1.92.22-3.5.37-3.72.35-.59-.05-.16-.61-.16-.61,0,0,2.02-.29,3.88-.56v.83Zm0,6.21c-.59.07-1.19.13-1.82.2-4.06.41-19.1,3.9-19.1,3.9-.85.16-.96.78-1.21,1.33-.26.58-.74.06-.74.06,0,0-.16-.58-.26-1.08-.1-.52.53-.52.53-.52,5.23-1.98,16.98-3.67,22.62-4.4v.5Zm5.75,2.26l-.22-3.02s-1.85.32-4.49.65v-.5c1.21-.16,1.96-.24,2.06-.25.59-.05.59-.61.59-.61,0,0,0-1.02-.05-1.55-.06-.52.31-.61.31-.61l3.47-.26-.1-3.13s-3.29.4-6.29.72v-.85c1.06-.16,1.87-.29,1.97-.32.26-.1.37-.67.37-.67l-.28-2.21-2.06.4V5.21h-7.02c-.05-.4-.12-.76-.2-.88-.22-.35-.46-.31-.46-.31,0,0-1.55.48-3.01.79-1.48.31-3.34.24-4.04.2-.71-.02-.64-.65-.71-.96-.06-.31-.35-.44-.35-.44,0,0-.38-.07-.64-.04-.24.04-.35-.07-.35-.07,0,0-.6-1.26-.67-1.46-.07-.22-.29-.25-.29-.25,0,0-8.9,3.16-9.79,3.32-.88.18-.71-.31-.71-.31l5.61-1.92-.97-2.88c-1.13,0-9.9,4.33-11.63,5.19h-6.66v11.87l-6.57,2.76,1.79,2.32,4.79-2.11v1.75c-1.42.61-.61,1.18-.42,1.74.22.62-.2,1.38-.2,1.38l-3.11,1.18,1.58,2.63s1.02-.38,2.15-.84v3.22l-3.3.8.47,1.6c0,1.03.64,1.44.64,1.44.46.06,1.3-.14,2.21-.42v8h9.63v.02s.68-.01,1.57-.02h3.55c.18.01.32.01.41.02.73.05.79.92.79.92,0,0,.26.58,1.2.31.96-.25,4.21-.62,6.11-.88,1.13-.16,6.39-.29,10.43-.38h8.19v-10.26h2.5v-2.98l-2.5.04v-3.02l4.68-.4ZM29,60h42.03v-3.8H29v3.8Zm1.79-12.24h2.68c1.02,0,1.58-.5,1.58-1.45,0-1.15-.77-1.38-1.61-1.38h-2.65v2.83Zm-1.63-4.15h4.45c2.04,0,3.07.91,3.07,2.47,0,1.74-1.24,2.2-1.54,2.29v.02c.56.08,1.38.49,1.38,1.93,0,1.04.16,2.02.52,2.39h-1.75c-.25-.4-.25-.89-.25-1.33,0-1.67-.35-2.41-1.85-2.41h-2.4v3.74h-1.63v-9.11Zm12.61,5.81c-.46.29-1.18.28-1.82.4-.65.1-1.21.34-1.21,1.09,0,.65.85.84,1.37.84.66,0,1.67-.34,1.67-1.24v-1.09Zm1.5,1.84c0,.36.07.49.35.49.1,0,.22,0,.37-.02v1.01c-.23.08-.7.17-.95.17-.6,0-1.02-.2-1.14-.8-.59.56-1.54.8-2.34.8-1.21,0-2.32-.64-2.32-1.92,0-1.64,1.34-1.91,2.6-2.05,1.08-.19,2.03-.07,2.03-.92,0-.76-.8-.9-1.4-.9-.84,0-1.42.34-1.48,1.06h-1.5c.11-1.69,1.57-2.2,3.06-2.2,1.32,0,2.71.53,2.71,1.91v3.38Zm2.86,1.45h1.67l2.42-6.59h-1.54l-1.64,5.05h-.02l-1.72-5.05h-1.61l2.44,6.59Zm8.64-3.29c-.47.29-1.18.28-1.84.4-.64.1-1.2.34-1.2,1.09,0,.65.85.84,1.36.84.66,0,1.68-.34,1.68-1.24v-1.09Zm1.48,1.84c0,.36.08.49.36.49.1,0,.2,0,.36-.02v1.01c-.22.08-.7.17-.92.17-.61,0-1.03-.2-1.15-.8-.59.56-1.54.8-2.33.8-1.21,0-2.32-.64-2.32-1.92,0-1.64,1.34-1.91,2.6-2.05,1.06-.19,2.02-.07,2.02-.92,0-.76-.79-.9-1.39-.9-.84,0-1.42.34-1.49,1.06h-1.48c.11-1.69,1.57-2.2,3.06-2.2,1.31,0,2.7.53,2.7,1.91v3.38h-.02Zm5.83-1.98c0-1.13-.52-2.18-1.81-2.18s-1.76,1.2-1.76,2.29.54,2.18,1.76,2.18c1.32-.01,1.81-1.18,1.81-2.29m1.49,3.1c0,1.97-1.18,2.95-3.31,2.95-1.34,0-2.89-.52-3.01-2.05h1.48c.19.83.88.96,1.62.96,1.2,0,1.73-.61,1.73-1.68v-1.02h-.02c-.42.73-1.18,1.15-2.02,1.15-2.15,0-3.02-1.57-3.02-3.46,0-1.78,1.13-3.3,3.05-3.3.85,0,1.62.35,1.99,1.08h.02v-.91h1.49v6.27h.01Zm5.99-2.95c0-1.13-.59-2.33-1.91-2.33s-1.92,1.19-1.92,2.33.59,2.33,1.92,2.33c1.32-.01,1.91-1.19,1.91-2.33m-5.31,0c0-2.02,1.24-3.47,3.41-3.47s3.4,1.45,3.4,3.47-1.24,3.47-3.4,3.47-3.41-1.44-3.41-3.47Z"/>
  <path class="cls-1" d="m69.99,29.33l-2.57.04-.06-2.77,2.63-.23v2.96Zm-2.23,12.15l.04-.55s0-1.13.05-1.49c.06-.36-.16-.67-.16-.67l-11.21-.11-.42-5.49s12.42-1.38,13.93-1.57v9.89h-2.23Zm-37.55,0v-7.33c.85-.3,1.62-.6,2-.72.95-.31,1,1.02,1.06,1.58.05.58,1.36.22,1.36.22l12.84-3.24.32.26c-1.26.88-7.89,2.05-7.89,2.05l.37,2.88,8.05-2.21.16,3.55s-7.52.88-8.1.97c-.59.11-.96.47-.96.47l-.35,1.51h-8.85Zm0-14.05c.56-.24,1.07-.47,1.43-.64,1.26-.62,1.37-.11,1.84.82.48.92,1.15.62,1.15.62l8.84-3.35,13.15-3.65s.06.22.79.22.11.88.11.88c0,0-3.95.72-4.63.83-.7.1-10.47,2.88-11.42,3.18-.95.31-.58.83-.47,1.18.1.36-.28.73-.28.73l-10.51,2.57v-3.38Zm4.64-9.93c.7-.42,1.12.1,1.12.1l.58,1.19s-4.07,1.78-6.32,2.6v-1.84l4.63-2.05Zm-4.64-11.27h5.65l.62,1.66s2.47-1.33,2.99-1.6l.17-.06h1.57s-.14.26-.14.26c-1.63.58-9.11,4.88-9.26,5.19-.16.31.79,1.13.79,1.13,0,0,2.8-1.55,3.42-1.96.64-.42,6.85-3.34,6.85-3.34l3.74-1.3h.8l-.23.22c-2.39.77-10.28,4.48-10.28,4.48-1.46.67-.53,1.64-.2,2.06.31.41-.11.97-.11.97l-6.38,2.66V6.24Zm25.81,0h.83c.3.19.62.5.59.94-.05.61-.26,1.49-.64,1.12-.36-.36-.36-1.12-.84-.88-.48.26-11.36,3.85-11.36,3.85l-3.22.88-.26-.22,14.78-5.59.12-.1Zm13.98,0v7.59l-7.77,1.45s.11,1.39.16,1.75c.06.36-.16.56-.16.56,0,0-1.01.22-1.42.26-.42.05-.59-.2-.59-.2l-.37-1.13s-.26-.56-.64-.67c-.36-.11-18.99,5.18-18.99,5.18l-1.42.16.74-.56c2.64-1.24,27.79-7.5,28.12-7.64.36-.14.47-.41.47-.41,0,0-.4-1.72-.49-1.96-.11-.24-.29-.18-.29-.18,0,0-9.43,2.14-9.9,2.23-.46.11-.49-.24-.49-.24,0,0,0-.2-.11-.48-.1-.28.29-.42.29-.42,0,0,8.21-1.57,9.01-1.7.82-.14.71-.62.71-.62,0,0-.4-1.72-.46-2.03-.07-.3-.5-.37-.5-.37l-1.26.1c-.77-.02-.49-.44-.49-.44,0,0,0-.1-.02-.25h5.87v.02Zm0,11.17c-1.92.22-3.5.37-3.72.35-.59-.05-.16-.61-.16-.61,0,0,2.02-.29,3.88-.56v.83Zm0,6.21c-.59.07-1.19.13-1.82.2-4.06.41-19.1,3.9-19.1,3.9-.85.16-.96.78-1.21,1.33-.26.58-.74.06-.74.06,0,0-.16-.58-.26-1.08-.1-.52.53-.52.53-.52,5.23-1.98,16.98-3.67,22.62-4.4v.5Zm5.75,2.26l-.22-3.02s-1.85.32-4.49.65v-.5c1.21-.16,1.96-.24,2.06-.25.59-.05.59-.61.59-.61,0,0,0-1.02-.05-1.55-.06-.52.31-.61.31-.61l3.47-.26-.1-3.13s-3.29.4-6.29.72v-.85c1.06-.16,1.87-.29,1.97-.32.26-.1.37-.67.37-.67l-.28-2.21-2.06.4V5.21h-7.02c-.05-.4-.12-.76-.2-.88-.22-.35-.46-.31-.46-.31,0,0-1.55.48-3.01.79-1.48.31-3.34.24-4.04.2-.71-.02-.64-.65-.71-.96-.06-.31-.35-.44-.35-.44,0,0-.38-.07-.64-.04-.24.04-.35-.07-.35-.07,0,0-.6-1.26-.67-1.46-.07-.22-.29-.25-.29-.25,0,0-8.9,3.16-9.79,3.32-.88.18-.71-.31-.71-.31l5.61-1.92-.97-2.88c-1.13,0-9.9,4.33-11.63,5.19h-6.66v11.87l-6.57,2.76,1.79,2.32,4.79-2.11v1.75c-1.42.61-.61,1.18-.42,1.74.22.62-.2,1.38-.2,1.38l-3.11,1.18,1.58,2.63s1.02-.38,2.15-.84v3.22l-3.3.8.47,1.6c0,1.03.64,1.44.64,1.44.46.06,1.3-.14,2.21-.42v8h9.63v.02s.68-.01,1.57-.02h3.55c.18.01.32.01.41.02.73.05.79.92.79.92,0,0,.26.58,1.2.31.96-.25,4.21-.62,6.11-.88,1.13-.16,6.39-.29,10.43-.38h8.19v-10.26h2.5v-2.98l-2.5.04v-3.02l4.68-.4ZM29,60h42.03v-3.8H29v3.8Zm1.79-12.24h2.68c1.02,0,1.58-.5,1.58-1.45,0-1.15-.77-1.38-1.61-1.38h-2.65v2.83Zm-1.63-4.15h4.45c2.04,0,3.07.91,3.07,2.47,0,1.74-1.24,2.2-1.54,2.29v.02c.56.08,1.38.49,1.38,1.93,0,1.04.16,2.02.52,2.39h-1.75c-.25-.4-.25-.89-.25-1.33,0-1.67-.35-2.41-1.85-2.41h-2.4v3.74h-1.63v-9.11Zm12.61,5.81c-.46.29-1.18.28-1.82.4-.65.1-1.21.34-1.21,1.09,0,.65.85.84,1.37.84.66,0,1.67-.34,1.67-1.24v-1.09Zm1.5,1.84c0,.36.07.49.35.49.1,0,.22,0,.37-.02v1.01c-.23.08-.7.17-.95.17-.6,0-1.02-.2-1.14-.8-.59.56-1.54.8-2.34.8-1.21,0-2.32-.64-2.32-1.92,0-1.64,1.34-1.91,2.6-2.05,1.08-.19,2.03-.07,2.03-.92,0-.76-.8-.9-1.4-.9-.84,0-1.42.34-1.48,1.06h-1.5c.11-1.69,1.57-2.2,3.06-2.2,1.32,0,2.71.53,2.71,1.91v3.38Zm2.86,1.45h1.67l2.42-6.59h-1.54l-1.64,5.05h-.02l-1.72-5.05h-1.61l2.44,6.59Zm8.64-3.29c-.47.29-1.18.28-1.84.4-.64.1-1.2.34-1.2,1.09,0,.65.85.84,1.36.84.66,0,1.68-.34,1.68-1.24v-1.09Zm1.48,1.84c0,.36.08.49.36.49.1,0,.2,0,.36-.02v1.01c-.22.08-.7.17-.92.17-.61,0-1.03-.2-1.15-.8-.59.56-1.54.8-2.33.8-1.21,0-2.32-.64-2.32-1.92,0-1.64,1.34-1.91,2.6-2.05,1.06-.19,2.02-.07,2.02-.92,0-.76-.79-.9-1.39-.9-.84,0-1.42.34-1.49,1.06h-1.48c.11-1.69,1.57-2.2,3.06-2.2,1.31,0,2.7.53,2.7,1.91v3.38h-.02Zm5.83-1.98c0-1.13-.52-2.18-1.81-2.18s-1.76,1.2-1.76,2.29.54,2.18,1.76,2.18c1.32-.01,1.81-1.18,1.81-2.29m1.49,3.1c0,1.97-1.18,2.95-3.31,2.95-1.34,0-2.89-.52-3.01-2.05h1.48c.19.83.88.96,1.62.96,1.2,0,1.73-.61,1.73-1.68v-1.02h-.02c-.42.73-1.18,1.15-2.02,1.15-2.15,0-3.02-1.57-3.02-3.46,0-1.78,1.13-3.3,3.05-3.3.85,0,1.62.35,1.99,1.08h.02v-.91h1.49v6.27h.01Zm5.99-2.95c0-1.13-.59-2.33-1.91-2.33s-1.92,1.19-1.92,2.33.59,2.33,1.92,2.33c1.32-.01,1.91-1.19,1.91-2.33m-5.31,0c0-2.02,1.24-3.47,3.41-3.47s3.4,1.45,3.4,3.47-1.24,3.47-3.4,3.47-3.41-1.44-3.41-3.47Z"/>
</svg>