<?xml version="1.0" encoding="UTF-8"?>
<svg id="white" xmlns="http://www.w3.org/2000/svg" viewBox="0 0 100 60">
  <defs>
    <style>
      .cls-1 {
        fill: #fff;
        stroke-width: 0px;
      }
    </style>
  </defs>
  <g>
    <path class="cls-1" d="m46.83,23.46c.16,0,.34.04.48-.02,1.89-.73,2.58.44,3.1,1.91.1.29.28.55.53,1.02.33-.65.66-1.12.83-1.64.34-1.08,1.02-1.48,2.13-1.28.39.07.79.01,1.39.01-.85,1.75-1.63,3.38-2.44,4.99-.27.53-.35.98-.03,1.55.58,1.04,1.09,2.11,1.59,3.19.33.71.83,1.18,1.64,1.16.77-.02,1.21-.54,1.5-1.19,1.3-2.89,2.63-5.78,3.87-8.69.34-.81.65-1.29,1.64-1.04.52.13,1.11.02,1.84.02-.38.85-.7,1.6-1.03,2.34-1.22,2.75-2.44,5.51-3.68,8.26-.79,1.76-2.03,2.95-4.07,3-2.08.05-3.44-1.02-4.28-2.85-.25-.54-.53-1.06-.83-1.64-.53.6-.75,1.33-1.1,1.98-.87,1.59-2.16,2.54-4.02,2.52-1.87-.02-3.2-.96-3.96-2.6-1.56-3.38-3.05-6.81-4.59-10.2-.28-.61-.21-.8.52-.82,2.12-.05,2.12-.08,2.96,1.81,1.1,2.46,2.21,4.92,3.31,7.38.05.11.1.22.14.33.26.82.93,1.52,1.64,1.53.68,0,1.23-.73,1.7-1.43,1.67-2.46,2.03-4.82.12-7.33-.47-.61-.66-1.43-.97-2.15.03-.04.07-.07.1-.11Z"/>
    <path class="cls-1" d="m75,36.85c-1.84-.14-4.09.23-6.31-.23-2.34-.49-3.7-1.9-4.12-4.22-.26-1.42-.27-2.84-.07-4.27.42-3.04,2.12-4.75,5.23-4.86,3.79-.14,7.59-.05,11.39-.08.61,0,.76.26.71.79-.03.31-.04.64,0,.95.1.78-.2,1.01-.99,1-3.16-.05-6.31-.03-9.47-.01-.67,0-1.36.07-2.02.2-.88.17-1.5.71-1.83,1.55-.3.76-.19,1.09.78,1.08,3.28-.06,6.55.04,9.83-.06,1.23-.04,1.01.65,1,1.33,0,.67.25,1.39-.98,1.35-3.27-.09-6.55.01-9.83-.05-1.1-.02-1.08.41-.75,1.16.41.93,1.16,1.36,2.14,1.5,1.99.28,3.99.1,5.98.14,1.76.03,3.52.03,5.27,0,.69-.02.95.2.87.88-.04.31-.05.64,0,.95.11.75-.21.94-.93.92-1.84-.05-3.68-.02-5.9-.02Z"/>
    <path class="cls-1" d="m19.27,23.3c.75.4,1.31-.11,1.94-.11.68,0,1.01.1.96.89-.08,1.23.02,2.46-.03,3.69-.03.69.23.9.9.87.92-.05,1.84-.06,2.76,0,1.5.09,2.62-.53,3.51-1.66.74-.94,1.52-1.84,2.19-2.83.5-.75,1.09-1.05,1.99-.96.78.08,1.58.02,2.64.02-2.17,2.29-3.79,4.74-6.12,6.59,2.72,1.75,4.13,4.64,6.54,7.06-1.39,0-2.45-.02-3.51,0-.5.01-.68-.33-.91-.65-.88-1.18-1.76-2.36-2.65-3.53-.8-1.05-1.83-1.6-3.19-1.54-1.04.05-2.08.06-3.12,0-.77-.05-1.07.17-1.03.98.06,1.27-.02,2.54.03,3.81.03.71-.13.95-.9.94-1.99-.02-2,.02-2-2.01,0-3.81,0-7.62,0-11.55Z"/>
    <path class="cls-1" d="m17.93,36.68c-.23.09-.26.12-.3.12q-2.67.2-3.86-2.13c-1.36-2.64-2.75-5.28-4.11-7.92-.32-.63-.67-1.15-1.49-1.18-.88-.03-1.28.52-1.62,1.18-1.73,3.34-3.46,6.68-5.19,10.02-1.44-1.25-1.73-2.59-.9-4.22,1.22-2.4,2.4-4.83,3.71-7.19,1.17-2.13,3.28-2.88,5.5-2.14.96.32,1.7.93,2.15,1.79,2.04,3.85,4.05,7.71,6.11,11.67Z"/>
    <path class="cls-1" d="m100,34c-.29,1.54-1.27,2.76-2.59,2.78-2.95.06-5.92.35-8.84-.17-2.77-.49-4.05-1.96-4.13-4.72-.08-2.65,0-5.31-.04-7.97,0-.57.17-.72.74-.74,2.1-.07,2.1-.1,2.1,2.01,0,1.82,0,3.65,0,5.47,0,2.66.58,3.28,3.31,3.32,3.15.04,6.29,0,9.45,0Z"/>
    <path class="cls-1" d="m5.83,33.69c.8-1.01.72-2.54,2.29-2.49,1.48.05,1.62,1.44,2.29,2.49h-4.58Z"/>
    <path class="cls-1" d="m46.73,23.57c-.1-.08-.25-.15-.07-.29,0,0,.11.12.17.18-.03.04-.07.07-.1.11Z"/>
  </g>
  <g>
    <path class="cls-1" d="m46.83,23.46c.16,0,.34.04.48-.02,1.89-.73,2.58.44,3.1,1.91.1.29.28.55.53,1.02.33-.65.66-1.12.83-1.64.34-1.08,1.02-1.48,2.13-1.28.39.07.79.01,1.39.01-.85,1.75-1.63,3.38-2.44,4.99-.27.53-.35.98-.03,1.55.58,1.04,1.09,2.11,1.59,3.19.33.71.83,1.18,1.64,1.16.77-.02,1.21-.54,1.5-1.19,1.3-2.89,2.63-5.78,3.87-8.69.34-.81.65-1.29,1.64-1.04.52.13,1.11.02,1.84.02-.38.85-.7,1.6-1.03,2.34-1.22,2.75-2.44,5.51-3.68,8.26-.79,1.76-2.03,2.95-4.07,3-2.08.05-3.44-1.02-4.28-2.85-.25-.54-.53-1.06-.83-1.64-.53.6-.75,1.33-1.1,1.98-.87,1.59-2.16,2.54-4.02,2.52-1.87-.02-3.2-.96-3.96-2.6-1.56-3.38-3.05-6.81-4.59-10.2-.28-.61-.21-.8.52-.82,2.12-.05,2.12-.08,2.96,1.81,1.1,2.46,2.21,4.92,3.31,7.38.05.11.1.22.14.33.26.82.93,1.52,1.64,1.53.68,0,1.23-.73,1.7-1.43,1.67-2.46,2.03-4.82.12-7.33-.47-.61-.66-1.43-.97-2.15.03-.04.07-.07.1-.11Z"/>
    <path class="cls-1" d="m75,36.85c-1.84-.14-4.09.23-6.31-.23-2.34-.49-3.7-1.9-4.12-4.22-.26-1.42-.27-2.84-.07-4.27.42-3.04,2.12-4.75,5.23-4.86,3.79-.14,7.59-.05,11.39-.08.61,0,.76.26.71.79-.03.31-.04.64,0,.95.1.78-.2,1.01-.99,1-3.16-.05-6.31-.03-9.47-.01-.67,0-1.36.07-2.02.2-.88.17-1.5.71-1.83,1.55-.3.76-.19,1.09.78,1.08,3.28-.06,6.55.04,9.83-.06,1.23-.04,1.01.65,1,1.33,0,.67.25,1.39-.98,1.35-3.27-.09-6.55.01-9.83-.05-1.1-.02-1.08.41-.75,1.16.41.93,1.16,1.36,2.14,1.5,1.99.28,3.99.1,5.98.14,1.76.03,3.52.03,5.27,0,.69-.02.95.2.87.88-.04.31-.05.64,0,.95.11.75-.21.94-.93.92-1.84-.05-3.68-.02-5.9-.02Z"/>
    <path class="cls-1" d="m19.27,23.3c.75.4,1.31-.11,1.94-.11.68,0,1.01.1.96.89-.08,1.23.02,2.46-.03,3.69-.03.69.23.9.9.87.92-.05,1.84-.06,2.76,0,1.5.09,2.62-.53,3.51-1.66.74-.94,1.52-1.84,2.19-2.83.5-.75,1.09-1.05,1.99-.96.78.08,1.58.02,2.64.02-2.17,2.29-3.79,4.74-6.12,6.59,2.72,1.75,4.13,4.64,6.54,7.06-1.39,0-2.45-.02-3.51,0-.5.01-.68-.33-.91-.65-.88-1.18-1.76-2.36-2.65-3.53-.8-1.05-1.83-1.6-3.19-1.54-1.04.05-2.08.06-3.12,0-.77-.05-1.07.17-1.03.98.06,1.27-.02,2.54.03,3.81.03.71-.13.95-.9.94-1.99-.02-2,.02-2-2.01,0-3.81,0-7.62,0-11.55Z"/>
    <path class="cls-1" d="m17.93,36.68c-.23.09-.26.12-.3.12q-2.67.2-3.86-2.13c-1.36-2.64-2.75-5.28-4.11-7.92-.32-.63-.67-1.15-1.49-1.18-.88-.03-1.28.52-1.62,1.18-1.73,3.34-3.46,6.68-5.19,10.02-1.44-1.25-1.73-2.59-.9-4.22,1.22-2.4,2.4-4.83,3.71-7.19,1.17-2.13,3.28-2.88,5.5-2.14.96.32,1.7.93,2.15,1.79,2.04,3.85,4.05,7.71,6.11,11.67Z"/>
    <path class="cls-1" d="m100,34c-.29,1.54-1.27,2.76-2.59,2.78-2.95.06-5.92.35-8.84-.17-2.77-.49-4.05-1.96-4.13-4.72-.08-2.65,0-5.31-.04-7.97,0-.57.17-.72.74-.74,2.1-.07,2.1-.1,2.1,2.01,0,1.82,0,3.65,0,5.47,0,2.66.58,3.28,3.31,3.32,3.15.04,6.29,0,9.45,0Z"/>
    <path class="cls-1" d="m5.83,33.69c.8-1.01.72-2.54,2.29-2.49,1.48.05,1.62,1.44,2.29,2.49h-4.58Z"/>
    <path class="cls-1" d="m46.73,23.57c-.1-.08-.25-.15-.07-.29,0,0,.11.12.17.18-.03.04-.07.07-.1.11Z"/>
  </g>
</svg>