<svg width="250" height="150" viewBox="0 0 250 150" fill="none" xmlns="http://www.w3.org/2000/svg">
<path d="M155.095 104.813C140.569 115.502 119.506 121.209 101.377 121.209C75.9548 121.209 53.0691 111.82 35.7547 96.2103C34.3927 94.9845 35.6153 93.309 37.2454 94.2672C55.9325 105.123 79.0326 111.648 102.9 111.648C118.997 111.648 136.703 108.324 152.982 101.424C155.443 100.38 157.497 103.03 155.095 104.813Z" fill="white"/>
<path d="M161.132 97.9126C159.282 95.5466 148.858 96.7938 144.177 97.3451C142.751 97.5164 142.536 96.2799 143.818 95.3913C152.124 89.5566 165.749 91.2428 167.336 93.1966C168.923 95.1611 166.923 108.795 159.121 115.304C157.926 116.305 156.784 115.77 157.314 114.448C159.068 110.08 162.993 100.289 161.132 97.9126Z" fill="white"/>
<path d="M144.504 54.2059V48.5371C144.504 47.6807 145.159 47.1025 145.941 47.1025H171.374C172.189 47.1025 172.843 47.6914 172.843 48.5371V53.3922C172.833 54.2059 172.146 55.2711 170.929 56.9573L157.749 75.7408C162.645 75.623 167.814 76.351 172.254 78.8455C173.256 79.4129 173.524 80.2373 173.605 81.0509V87.0997C173.605 87.9241 172.693 88.893 171.733 88.3952C163.91 84.3002 153.518 83.8559 144.864 88.438C143.984 88.9144 143.057 87.9616 143.057 87.1319V81.3828C143.057 80.4567 143.067 78.883 143.995 77.4805L159.261 55.6244H145.974C145.159 55.6244 144.504 55.0463 144.504 54.2005" fill="white"/>
<path d="M51.7275 89.5893H43.9899C43.2499 89.5358 42.6601 88.9791 42.6064 88.2725V48.6339C42.6064 47.8417 43.2714 47.2101 44.0971 47.2101H51.3146C52.0653 47.2422 52.6658 47.8203 52.7195 48.5376V53.7192H52.8589C54.741 48.7089 58.28 46.375 63.047 46.375C67.8139 46.375 70.9132 48.7089 73.0903 53.7192C74.9617 48.7089 79.2192 46.375 83.777 46.375C87.0211 46.375 90.5655 47.7132 92.7318 50.7109C95.1823 54.0458 94.6783 58.8902 94.6783 63.1404L94.6676 88.1601C94.6676 88.9523 94.0026 89.5947 93.1769 89.5947H85.45C84.6779 89.5411 84.0559 88.9202 84.0559 88.1601V67.1498C84.0559 65.4743 84.206 61.3044 83.836 59.7199C83.2569 57.0595 81.5303 56.3101 79.2889 56.3101C77.4175 56.3101 75.4603 57.5573 74.6614 59.5593C73.8678 61.556 73.9428 64.9069 73.9428 67.1551V88.1654C73.9428 88.9577 73.2779 89.6 72.4522 89.6H64.7253C63.9424 89.5465 63.3311 88.9256 63.3311 88.1654L63.3204 67.1551C63.3204 62.7336 64.0497 56.2244 58.5535 56.2244C53.0573 56.2244 53.2074 62.5677 53.2074 67.1551V88.1654C53.2074 88.9577 52.5425 89.6 51.7167 89.6" fill="white"/>
<path d="M194.738 46.375C206.218 46.375 212.433 56.2191 212.433 68.7343C212.433 81.2494 205.564 90.419 194.738 90.419C183.912 90.419 177.327 80.575 177.327 68.3114C177.327 56.0478 183.542 46.375 194.738 46.375ZM194.802 54.4687C189.102 54.4687 188.743 62.2251 188.743 67.0588C188.743 71.8925 188.668 82.2451 194.738 82.2451C200.808 82.2451 201.017 73.8998 201.017 68.8145C201.017 65.469 200.878 61.4703 199.864 58.296C198.996 55.5339 197.264 54.4633 194.802 54.4633" fill="white"/>
<path d="M227.323 89.5893H219.618C218.846 89.5358 218.224 88.9148 218.224 88.1547L218.213 48.5001C218.277 47.7721 218.921 47.2047 219.704 47.2047H226.873C227.548 47.2368 228.101 47.6918 228.256 48.3127V54.3723H228.396C230.562 48.9497 233.597 46.3643 238.943 46.3643C242.412 46.3643 245.801 47.6115 247.978 51.0374C250 54.2117 250 59.5432 250 63.3813V88.3367C249.914 89.0326 249.27 89.5839 248.509 89.5839H240.75C240.042 89.5304 239.452 89.0058 239.377 88.3367V66.8018C239.377 62.4659 239.876 56.1227 234.535 56.1227C232.653 56.1227 230.921 57.3806 230.063 59.297C228.975 61.7219 228.835 64.1307 228.835 66.8018V88.1493C228.825 88.9416 228.149 89.5839 227.323 89.5839" fill="white"/>
<path d="M124.23 70.6557V68.9802C118.637 68.9802 112.728 70.1739 112.728 76.758C112.728 80.0929 114.46 82.3518 117.431 82.3518C119.608 82.3518 121.554 81.0136 122.788 78.8403C124.31 76.1692 124.235 73.6587 124.235 70.6503M132.037 89.4766C131.528 89.9316 130.788 89.9637 130.209 89.664C127.64 87.5335 127.185 86.5486 125.769 84.5144C121.522 88.8396 118.519 90.1297 113.012 90.1297C106.503 90.1297 101.436 86.1203 101.436 78.0909C101.436 71.8226 104.841 67.551 109.683 65.4687C113.881 63.6219 119.747 63.2954 124.235 62.7868V61.7858C124.235 59.9498 124.375 57.7765 123.297 56.192C122.348 54.7681 120.546 54.1847 118.954 54.1847C116.005 54.1847 113.372 55.6942 112.728 58.8257C112.6 59.5215 112.085 60.2067 111.388 60.2388L103.881 59.4359C103.248 59.2967 102.551 58.7828 102.728 57.8193C104.46 48.7354 112.675 46 120.031 46C123.796 46 128.718 47.001 131.689 49.8434C135.453 53.3549 135.094 58.0334 135.094 63.1294V75.1682C135.094 78.7868 136.595 80.3713 138.011 82.3251C138.509 83.021 138.622 83.856 137.989 84.3806C136.413 85.6974 133.603 88.1384 132.059 89.5087L132.037 89.4873" fill="white"/>
<path d="M22.7945 70.6557V68.9802C17.2018 68.9802 11.2927 70.1739 11.2927 76.758C11.2927 80.0929 13.0247 82.3518 15.9953 82.3518C18.1723 82.3518 20.1188 81.0136 21.3521 78.8403C22.8749 76.1692 22.7999 73.6587 22.7999 70.6503M30.6018 89.4766C30.0924 89.9316 29.3524 89.9637 28.7733 89.664C26.2048 87.5335 25.749 86.5486 24.3334 84.5144C20.0866 88.8396 17.0838 90.1297 11.5769 90.1297C5.06723 90.1297 0 86.1203 0 78.0909C0 71.8226 3.40496 67.551 8.24698 65.4687C12.4455 63.6219 18.3117 63.2954 22.7999 62.7868V61.7858C22.7999 59.9498 22.9393 57.7765 21.8615 56.192C20.9124 54.7681 19.1107 54.1847 17.5181 54.1847C14.569 54.1847 11.9361 55.6942 11.2927 58.8257C11.164 59.5215 10.6492 60.2067 9.95215 60.2388L2.44514 59.4359C1.81241 59.2967 1.11532 58.7828 1.29228 57.8193C3.02425 48.7354 11.2391 46 18.5959 46C22.3602 46 27.2826 47.001 30.2532 49.8434C34.0175 53.3549 33.6582 58.0334 33.6582 63.1294V75.1682C33.6582 78.7868 35.1596 80.3713 36.5752 82.3251C37.0739 83.021 37.1865 83.856 36.5538 84.3806C34.9773 85.6974 32.1675 88.1384 30.6232 89.5087L30.6018 89.4873" fill="white"/>
</svg>
