<?xml version="1.0" encoding="UTF-8"?>
<svg id="white" xmlns="http://www.w3.org/2000/svg" viewBox="0 0 100 60">
  <defs>
    <style>
      .cls-1 {
        fill: #fff;
        stroke-width: 0px;
      }
    </style>
  </defs>
  <g>
    <path class="cls-1" d="m36.52,22.6h5.36c1.21,3.02,2.42,6.03,3.65,9.1,1.29-3.06,2.55-6.07,3.82-9.09h5.09v14.83c-.19.05-3.83.06-4.09,0v-9.61s-.03,0-.04,0c0,0-.02,0-.02,0-.02.03-.03.06-.05.09-1.38,3.22-2.75,6.43-4.13,9.65,0,0,0,.01-.01.02,0,0-.01.01-.02.03h-2.52c-1.34-3.27-2.69-6.54-4.03-9.81-.02,0-.03,0-.05,0v9.65h-2.97v-14.86Z"/>
    <path class="cls-1" d="m84.01,37.46h-4.65c-1.72-3.14-3.44-6.29-5.17-9.44-.01,0-.03,0-.04.01v9.43h-2.96c0-4.95,0-9.88,0-14.82.18-.05,4.29-.08,4.8-.02,1.67,3.08,3.35,6.17,5.02,9.25.02,0,.03,0,.04-.01,0,0,.01-.01.01-.02,0-.02,0-.03,0-.05,0-3.04,0-6.09,0-9.13,0,0,0-.01.01-.02.18-.05,2.58-.06,2.93-.02v14.85Z"/>
    <path class="cls-1" d="m23.21,22.61h10.73v2.74c-.72,0-1.44,0-2.15,0-.72,0-1.44,0-2.16,0s-1.44,0-2.15,0c-.06.19-.08,2.75-.03,3.28h5.62v2.5h-5.62v3.46h6.63v2.87h-10.86v-14.85Z"/>
    <path class="cls-1" d="m57.87,37.46v-14.85h10.71c.05.17.07,2.21.02,2.72-.53.03-1.06.01-1.59.01-.54,0-1.09,0-1.63,0h-1.61c-.54,0-1.07,0-1.64,0-.01,1.09,0,2.17,0,3.28h5.61c.06.2.07,2.17.02,2.5h-5.61v3.46h6.6v2.87h-10.87Z"/>
    <path class="cls-1" d="m2.27,37.16v-3c.18.05.35.1.51.16,1.15.37,2.33.61,3.54.68.54.03,1.07.02,1.6-.1.26-.06.53-.17.76-.3.44-.26.62-.77.5-1.26-.05-.22-.17-.41-.35-.53-.21-.15-.43-.29-.66-.4-1.01-.45-2.03-.87-3.04-1.32-.8-.36-1.53-.82-2.12-1.49-.8-.91-1.12-1.98-1.03-3.17.11-1.5.94-2.52,2.2-3.23.91-.52,1.91-.74,2.94-.83,1.18-.1,2.35,0,3.52.2.49.08.99.17,1.48.26.06.01.13.04.19.05v2.86c-.08-.02-.14-.04-.2-.06-.83-.3-1.68-.55-2.56-.68-.74-.11-1.48-.16-2.22.03-.37.09-.71.26-.97.54-.34.37-.35.85,0,1.22.25.28.58.44.91.61,1.21.6,2.44,1.18,3.64,1.81.73.38,1.34.91,1.83,1.57.6.82.8,1.75.7,2.75-.16,1.53-1.01,2.6-2.32,3.34-.81.45-1.68.7-2.59.81-1.13.14-2.25.09-3.38,0-.91-.07-1.8-.24-2.69-.46-.06-.01-.11-.03-.17-.06Z"/>
    <path class="cls-1" d="m87.11,37.15v-2.99c.08.02.15.03.22.06.9.29,1.81.53,2.75.66.87.12,1.75.19,2.62.03.39-.07.76-.2,1.05-.5.42-.44.42-1.13,0-1.56-.22-.23-.5-.36-.78-.49-.87-.38-1.75-.75-2.63-1.12-.75-.32-1.46-.7-2.08-1.25-.86-.76-1.35-1.7-1.44-2.86-.13-1.73.61-3,2.07-3.88.8-.48,1.68-.73,2.6-.85,1.09-.15,2.19-.11,3.27.05.72.1,1.43.23,2.15.35.08.01.16.04.25.06v2.87c-.1-.03-.19-.06-.27-.09-.81-.29-1.64-.53-2.49-.65-.66-.1-1.33-.14-2-.02-.4.07-.77.21-1.09.48-.48.4-.5.98-.04,1.41.28.26.62.42.96.58,1.14.56,2.28,1.11,3.41,1.69.66.34,1.24.79,1.72,1.36.37.44.65.93.8,1.49.04.14.06.3.07.44.01.38.02.77,0,1.15-.04.86-.4,1.6-.97,2.23-.77.85-1.75,1.36-2.84,1.65-1.12.29-2.26.34-3.41.27-.66-.04-1.32-.08-1.97-.17-.62-.09-1.23-.24-1.84-.36-.02,0-.04-.02-.09-.04Z"/>
    <path class="cls-1" d="m15.42,22.61h4.34c.05.18.07,14.4.02,14.85h-4.36v-14.85Z"/>
  </g>
  <g>
    <path class="cls-1" d="m36.52,22.6h5.36c1.21,3.02,2.42,6.03,3.65,9.1,1.29-3.06,2.55-6.07,3.82-9.09h5.09v14.83c-.19.05-3.83.06-4.09,0v-9.61s-.03,0-.04,0c0,0-.02,0-.02,0-.02.03-.03.06-.05.09-1.38,3.22-2.75,6.43-4.13,9.65,0,0,0,.01-.01.02,0,0-.01.01-.02.03h-2.52c-1.34-3.27-2.69-6.54-4.03-9.81-.02,0-.03,0-.05,0v9.65h-2.97v-14.86Z"/>
    <path class="cls-1" d="m84.01,37.46h-4.65c-1.72-3.14-3.44-6.29-5.17-9.44-.01,0-.03,0-.04.01v9.43h-2.96c0-4.95,0-9.88,0-14.82.18-.05,4.29-.08,4.8-.02,1.67,3.08,3.35,6.17,5.02,9.25.02,0,.03,0,.04-.01,0,0,.01-.01.01-.02,0-.02,0-.03,0-.05,0-3.04,0-6.09,0-9.13,0,0,0-.01.01-.02.18-.05,2.58-.06,2.93-.02v14.85Z"/>
    <path class="cls-1" d="m23.21,22.61h10.73v2.74c-.72,0-1.44,0-2.15,0-.72,0-1.44,0-2.16,0s-1.44,0-2.15,0c-.06.19-.08,2.75-.03,3.28h5.62v2.5h-5.62v3.46h6.63v2.87h-10.86v-14.85Z"/>
    <path class="cls-1" d="m57.87,37.46v-14.85h10.71c.05.17.07,2.21.02,2.72-.53.03-1.06.01-1.59.01-.54,0-1.09,0-1.63,0h-1.61c-.54,0-1.07,0-1.64,0-.01,1.09,0,2.17,0,3.28h5.61c.06.2.07,2.17.02,2.5h-5.61v3.46h6.6v2.87h-10.87Z"/>
    <path class="cls-1" d="m2.27,37.16v-3c.18.05.35.1.51.16,1.15.37,2.33.61,3.54.68.54.03,1.07.02,1.6-.1.26-.06.53-.17.76-.3.44-.26.62-.77.5-1.26-.05-.22-.17-.41-.35-.53-.21-.15-.43-.29-.66-.4-1.01-.45-2.03-.87-3.04-1.32-.8-.36-1.53-.82-2.12-1.49-.8-.91-1.12-1.98-1.03-3.17.11-1.5.94-2.52,2.2-3.23.91-.52,1.91-.74,2.94-.83,1.18-.1,2.35,0,3.52.2.49.08.99.17,1.48.26.06.01.13.04.19.05v2.86c-.08-.02-.14-.04-.2-.06-.83-.3-1.68-.55-2.56-.68-.74-.11-1.48-.16-2.22.03-.37.09-.71.26-.97.54-.34.37-.35.85,0,1.22.25.28.58.44.91.61,1.21.6,2.44,1.18,3.64,1.81.73.38,1.34.91,1.83,1.57.6.82.8,1.75.7,2.75-.16,1.53-1.01,2.6-2.32,3.34-.81.45-1.68.7-2.59.81-1.13.14-2.25.09-3.38,0-.91-.07-1.8-.24-2.69-.46-.06-.01-.11-.03-.17-.06Z"/>
    <path class="cls-1" d="m87.11,37.15v-2.99c.08.02.15.03.22.06.9.29,1.81.53,2.75.66.87.12,1.75.19,2.62.03.39-.07.76-.2,1.05-.5.42-.44.42-1.13,0-1.56-.22-.23-.5-.36-.78-.49-.87-.38-1.75-.75-2.63-1.12-.75-.32-1.46-.7-2.08-1.25-.86-.76-1.35-1.7-1.44-2.86-.13-1.73.61-3,2.07-3.88.8-.48,1.68-.73,2.6-.85,1.09-.15,2.19-.11,3.27.05.72.1,1.43.23,2.15.35.08.01.16.04.25.06v2.87c-.1-.03-.19-.06-.27-.09-.81-.29-1.64-.53-2.49-.65-.66-.1-1.33-.14-2-.02-.4.07-.77.21-1.09.48-.48.4-.5.98-.04,1.41.28.26.62.42.96.58,1.14.56,2.28,1.11,3.41,1.69.66.34,1.24.79,1.72,1.36.37.44.65.93.8,1.49.04.14.06.3.07.44.01.38.02.77,0,1.15-.04.86-.4,1.6-.97,2.23-.77.85-1.75,1.36-2.84,1.65-1.12.29-2.26.34-3.41.27-.66-.04-1.32-.08-1.97-.17-.62-.09-1.23-.24-1.84-.36-.02,0-.04-.02-.09-.04Z"/>
    <path class="cls-1" d="m15.42,22.61h4.34c.05.18.07,14.4.02,14.85h-4.36v-14.85Z"/>
  </g>
</svg>