<?xml version="1.0" encoding="UTF-8"?><svg id="white" xmlns="http://www.w3.org/2000/svg" viewBox="0 0 100 60"><defs><style>.cls-1{fill:#fff;stroke-width:0px;}</style></defs><path class="cls-1" d="M41.73,39.61c-1.75,0-2.59,1.57-2.59,3.51s.85,3.51,2.59,3.51,2.59-1.57,2.59-3.51-.85-3.51-2.59-3.51Z"/><path class="cls-1" d="M50,0c-16.56,0-30,13.44-30,30s13.42,30,30,30,30-13.44,30-30S66.56,0,50,0ZM35.31,46.97c-.49.21-1.52.56-2.77.56-3.02,0-5.1-1.82-5.1-4.41,0-2.33,1.71-4.41,4.87-4.41.99,0,1.71.14,2.91.56v1.46c-.42-.48-1.32-1.13-2.52-1.13-1.76,0-3.07,1.32-3.07,3.35,0,2.4,1.62,3.42,3.37,3.42.95,0,1.85-.28,2.7-.67l-.39,1.25ZM41.73,47.53c-3.3,0-4.9-1.98-4.9-4.41s1.6-4.41,4.9-4.41,4.9,1.98,4.9,4.41-1.6,4.41-4.9,4.41ZM39.77,17.88c.14-.6.35-1.18.6-1.75,1.08.81,1.68,2.42,1.68,4.39s-.56,3.51-1.6,4.34c.28.65.63,1.27,1.04,1.85,1.25-.58,2.96-.3,4.71.71,1.76,1.02,2.86,2.38,2.98,3.76.68.07,1.37.07,2.05,0,.12-1.38,1.22-2.73,2.98-3.76,1.75-1.01,3.46-1.27,4.71-.71.41-.58.76-1.2,1.04-1.85-1.04-.83-1.6-2.4-1.6-4.34s.6-3.58,1.68-4.39c.25.56.44,1.15.6,1.75-.58.55-.9,1.5-.9,2.65s.3,2.03.83,2.57l.16-.79c.09-.58.56-.97,1.16-.83-.28,3.62-2.2,6.75-5.03,8.71-.37-.39-.41-.97.11-1.39.26-.21.51-.44.76-.69-.76-.28-1.8-.09-2.84.51-1.06.62-1.75,1.43-1.87,2.24.32-.09.62-.19.92-.3.63-.25,1.15.05,1.31.58-1.53.72-3.25,1.13-5.04,1.13s-3.51-.41-5.04-1.13c.16-.53.67-.81,1.31-.58.3.12.6.21.92.3-.14-.83-.83-1.64-1.87-2.24-1.02-.6-2.06-.79-2.84-.51.25.25.49.48.76.69.51.42.48,1.01.11,1.39-2.82-1.94-4.74-5.1-5.03-8.71.63-.14,1.11.25,1.2.83.04.26.09.53.16.79.53-.56.83-1.48.83-2.57s-.32-2.1-.9-2.65ZM41.57,14.14c.37-.51.79-.97,1.25-1.41.72.12,1.62-.09,2.52-.6.9-.53,1.53-1.2,1.78-1.9.6-.18,1.22-.3,1.85-.37-.25,1.29-1.31,2.52-2.95,3.47-1.64.95-3.25,1.23-4.46.81ZM51.43,9.86c.63.07,1.25.19,1.85.37.25.71.88,1.38,1.78,1.9.9.53,1.8.74,2.52.6.46.44.88.9,1.25,1.41-1.22.42-2.82.14-4.46-.81-1.64-.95-2.72-2.19-2.95-3.47ZM57.69,33.46c-2.4,1.39-4.73,1.38-5.89-.26.76-.09,1.5-.25,2.2-.48.78.37,1.89.19,2.98-.44,1.11-.63,1.82-1.52,1.89-2.38.55-.51,1.06-1.08,1.52-1.69.86,1.83-.3,3.86-2.7,5.26ZM48.61,33.21c-1.16,1.64-3.49,1.64-5.89.26-2.4-1.39-3.56-3.42-2.7-5.26.44.6.95,1.16,1.5,1.68.07.86.78,1.75,1.89,2.38,1.11.63,2.22.81,3,.46.71.21,1.45.39,2.2.48ZM53.44,47.34c.3-.3.51-.83.05-1.98l-.09-.23h-2.66l-.35-.88h2.65l-1.52-3.83-2.01,4.94c-.25.62-.53,1.27,0,1.98h-2.75c.79-.71,1.04-1.04,1.43-1.98l2.12-5.2c.19-.46.39-.83.12-1.23h2.61l2.56,6.44c.28.71.63,1.53,1.34,1.98h-3.49ZM61.64,39.88v5.48c0,.72.07,1.29.56,1.98h-3.16c.49-.69.56-1.23.56-1.98v-5.48c-1.11-.12-2.22-.07-3.09.71l.3-1.66h7.62l.3,1.66c-.86-.78-1.98-.85-3.1-.71ZM61.98,25.5c.26-.65.49-1.32.65-2.03.85-.41,1.34-1.53,1.34-2.95s-.48-2.49-1.29-2.93c.07.28.12.6.18.9.09.62-.41,1.09-.94,1.08-.28-3.62-2.2-6.75-5.03-8.71.23-.41.86-.71,1.41-.26.26.21.51.44.76.67.16-.99-.58-2.06-1.87-2.8-1.29-.76-2.57-.86-3.35-.23.28.09.56.18.85.28.67.25.86.79.56,1.38-1.53-.72-3.25-1.13-5.04-1.13s-3.51.41-5.04,1.13c-.3-.58-.11-1.13.56-1.38.28-.11.56-.19.85-.28-.78-.62-2.06-.51-3.35.23-1.29.74-2.05,1.82-1.87,2.8.25-.23.49-.46.76-.67.56-.44,1.18-.14,1.41.26-2.82,1.94-4.74,5.1-5.03,8.71-.55.02-1.04-.46-.93-1.08.05-.3.11-.6.18-.9-.81.44-1.29,1.55-1.29,2.93s.49,2.52,1.34,2.95c.16.71.37,1.38.65,2.03-2.12-.07-3.37-2.12-3.37-4.97s1.23-4.89,3.33-4.97c.4-.97.93-1.88,1.57-2.72,0-.02-.02-.02-.02-.04-1.09-1.9.05-4.06,2.57-5.5,2.52-1.46,4.97-1.36,6.07.55.51-.07,1.04-.11,1.59-.11s1.06.04,1.59.11c1.09-1.9,3.54-1.99,6.07-.55,2.52,1.45,3.67,3.6,2.58,5.5,0,.02-.02.02-.02.04.64.83,1.17,1.75,1.57,2.72,2.1.09,3.33,2.13,3.37,4.97,0,2.86-1.23,4.9-3.37,4.97ZM68.47,47.55c-1.23,0-1.78-.23-2.59-.56v-1.82c.79.79,1.62,1.38,2.82,1.38.99,0,1.5-.67,1.5-1.18,0-.78-.93-1.09-2.12-1.83-1.08-.67-1.83-1.23-1.83-2.47,0-.93.94-2.35,3.02-2.35.86,0,1.66.21,2.26.46v1.69c-.86-1.01-1.55-1.25-2.33-1.25s-1.3.49-1.3,1.04.72.92,1.59,1.41c1.15.65,2.49,1.34,2.49,2.72,0,1.78-1.82,2.77-3.49,2.77Z"/></svg>