<?xml version="1.0" encoding="UTF-8"?><svg id="white" xmlns="http://www.w3.org/2000/svg" viewBox="0 0 100 60"><defs><style>.cls-1{fill:#fff;stroke-width:0px;}</style></defs><path class="cls-1" d="M100,27.24s-.01,0-.01,0c0,0,0,0,.01,0h0ZM99.99,27.23c-2.01.26-3.65,1.62-8.13,5.36-1.09.91-2.27,1.72-3.54,2.38.66.67,1.13,1.5,1.38,2.41.37,1.23.38,2.16,0,2.86-.29.53-.78.9-1.36,1.05-.25.07-.51.08-.76.04,2.32,3.44,3.13,8.08,3.13,8.08-1.72-1.08-3.85-1.08-9.73-1.01-3.63.04-6.5-.85-8.44-1.78-.21,1.31-.4,2.63-.56,3.95l-.02.35H27.72l-.04-.35c-.17-1.39-.37-2.77-.59-4.14-.22.22-.48.41-.78.52-.41.75-1.06,1.31-1.84,1.64-.43.18-.89.25-1.36.25-.22.01-.42-.01-.63-.06-.76-.17-1.32-.91-1.77-1.52l-.16-.22c-.2-.1-.38-.22-.54-.37-.72,1.25-1.92,1.18-2.59,1.13h-.46c-1.03.02-1.73-.77-2.15-1.24l-.04-.05c-.38.08-.78.02-1.12-.17-.54-.26-.95-.75-1.12-1.32-.12-.41-.16-.84-.1-1.26-.08.04-.17.07-.26.1-.02.05-.05.1-.07.13-.16.22-.36.4-.61.51-.12.06-.25.11-.4.12-.14.19-.32.35-.54.46-.4.2-.88.2-1.27,0-.32.07-.67-.02-.93-.25-.36-.31-.44-.84-.22-1.26-.13-.34-.13-.71,0-1.05.02-.07.07-.14.11-.22-4.43-1.07-6.4-1.44-8.26-1.31,0,0,2.86-7.02,7.58-8.54,1.59-.51,3.23-.78,4.89-.84l-.35-.32c-3.58-3.38-3.11-10.95-3.11-10.95,1.41,1.32,3.44,1.76,9.04,2.95.83.18,1.6.4,2.32.65-.57-1.28-1.16-2.55-1.78-3.81l-.31-.57h.66c2,.08,3.97.41,5.89.95,4.61,1.24,8.92,3.32,12.76,6.16,3.75-10.74,11.93-17.32,12.01-17.38l.24-.19.24.19c5.47,4.63,9.62,10.63,12.01,17.38,3.82-2.83,8.15-4.92,12.75-6.16,1.92-.54,3.9-.87,5.89-.95h.66l-.31.57c-.5,1.01-.98,2.04-1.45,3.07.01.01.03.02.04.03.67.55,1.19,1.27,1.48,2.1,2.28-1.44,4.86-2.38,7.54-2.72,5.09-.68,11.17,4.53,11.29,4.63ZM82.48,27.52c.18-.11.37-.23.59-.35.19-.83.44-1.64.77-2.43-.54.88-1,1.8-1.36,2.78ZM81.06,28.73c.13-.16.25-.29.38-.42h0s.01.01.01.01c.17-1.06.46-2.09.85-3.08-.37.6-.71,1.23-1,1.88-.02.06-.02.13-.02.19-.07.52-.16.99-.23,1.42ZM79.24,24.06c-.68,1.54-1.3,3.11-1.9,4.68.12.15.22.3.32.47l.1.16c.2.35.38.72.55,1.11.05.13.07.23.16.38.08.16.16.34.22.51.14.38.31.75.51,1.11h.04c.08-.07.26-.54.51-1.59.04-.18.1-.4.13-.59.04-.19.08-.38.12-.6.14-.7.29-1.52.44-2.53.07-.43.06-.89-.05-1.32-.18-.71-.61-1.3-1.14-1.79ZM74.18,38.78c-.05.19-.09.38-.13.57.31.11.61.23.88.34.02-.16.07-.3.07-.44l-.1-.04.13-.12c.06-.29.12-.59.2-.88-.26.19-.49.41-.7.66,0,0-.14-.04-.36-.09ZM68.73,40.54l.72.82v-2.34c0-.23-.04-.41-.11-.56-.65-.19-1.13-.33-1.13-.33l-.35.29.14.06c.06.23.32,1.08.72,2.07ZM69.52,37.89h.8c-.26-.07-.53-.15-.77-.26-.28.11-.41.16-.41.16,0,0,.14.04.38.11ZM70.42,43.29v.25c.05.06.1.12.16.17.45.47.95.87,1.48,1.23.33-1.81.7-3.61,1.14-5.4-.03,0-.06-.03-.1-.04-.43-.09-1.86-.49-3.06-.85-.02.11-.04.22-.04.33v3.66h-.01c0,.29.17.54.43.65ZM73.3,39.08c.04-.17.08-.33.12-.5-.65-.17-1.45-.38-1.98-.54h-.01c-.36,0-.7-.04-1.05-.13v.23c.8.24,1.88.57,2.92.93ZM75.61,31.17c-1.44-.66-3.45-1.34-4.68-.78-2.07.95-3.16,2.84-3.19,3.32.22,1.31,1.03,2.45,2.2,3.09.28.13.58.23.88.28.31.05.63.06.94.04.22-.01.43-.05.65-.1l.69-.43.05-.04,1-.64c.45-1.59.93-3.18,1.46-4.74ZM76.5,28.72c-.36-.6-.57-1.01-.31-.91.19.08.36.19.53.32.58-1.54,1.2-3.07,1.86-4.58-1.43-.96-3.22-1.32-3.75-1.15-.84.28-2.59,1.77-2.08,3.66.3,1.1,1.89,3.05,3.11,4.43.21-.59.42-1.18.64-1.76ZM20.61,25.29s-.41,2.13-.54,3.33c.61.18,1.18.49,1.67.91.29-.06.59-.05.88,0-.5-1.38-1.04-2.74-1.61-4.09-.25-.1-.41-.17-.41-.17v.02ZM24.6,27.5s-.34,1.53-.55,2.73c.37.34.64.79.72,1.3.02.22.02.44,0,.66.82-.26,1.71-.18,2.45.25.32.19.57.49.7.84-.17-1.19-.51-2.67-1.08-3.54-.59-.95-1.37-1.77-2.3-2.41h0c-.58-.44.06.16.06.16ZM24.69,33.27c.72,2.29,1.35,4.6,1.89,6.93.44,0,.89-.13,1.3-.48,1.25-1.08,2.06-2.95,1.55-3.92-.05-.1-.11-.19-.17-.28-.3-.41-.7-.75-1.15-.96-.19-.1-.4-.18-.61-.25-.31-.12-.42-.88-.71-1.03-.65-.38-1.45-.36-2.1,0ZM23.82,30.05c-.01-1.13-.05-2.66-.05-2.99-.43-.48-.96-.87-1.56-1.13-.07-.03-.12-.05-.19-.08.54,1.33,1.06,2.67,1.54,4.03,0,0,0,0,0,0l.08.05.17.12ZM15.06,27.89s1.13.89,2.18,1.67c.08-.11.17-.2.26-.3-.53-.43-1.03-.84-1.44-1.19-.97-.84-1.89-1.74-2.75-2.71,0,0,2.69,2.07,4.21,3.38l.31.25c.1-.07.19-.13.29-.18.51-.28,1.09-.37,1.66-.26.05-.93.16-2.95.24-3.45-.22-.16-.46-.28-.72-.36,0,0-.38,3.34-.38,3.75l-.35-.25s.12-3.07.12-3.57c0,0-1.13-.34-2.14-.7,0,0,0,2.78.07,3.07l-.31-.22s-.19-2.37-.26-2.77c0,0-2.75-.88-3.79-1.24-.77-.2-1.5-.57-2.14-1.06.41.93.97,1.78,1.67,2.53,0,0-1.24.58-1.96.42,0,0,.82.55,2.24-.07,0,0,1.79,1.96,2.72,2.8-1.26.28-2.54.44-3.82.51h-.02s2.37.57,4.14-.05ZM9.04,41.68c.04-.06.07-.12.11-.18.08-.11.19-.22.3-.3l-.9-.12s.95-1.95,1.3-2.56c-.01-.05-.04-.14-.04-.14l-.23.04s-1.2,2.06-1.44,2.38c0,0-2.86-.38-3.96-.51-.79-.16-1.6-.16-2.39,0,.77-.66,1.65-1.19,2.6-1.55,0,0-.87-1.07-1.59-1.23,0,0,.97-.18,1.98,1.01,0,0,2.47-1,3.67-1.35-1-.81-2.08-1.53-3.21-2.14,0,0,2.37.52,3.69,1.85l.83-.18c-.3-.61-.31-1.32-.04-1.94.19-.76.77-1.35,1.52-1.56.02-.14.08-.28.16-.41.08-.17.19-.31.32-.44-1.11.14-2.19.37-3.26.69-3.51,1-6.01,3.79-7.7,7.32v.02c2.8.13,5.57.58,8.27,1.3ZM9.92,42.51c.11.08.3.01.42-.16h.01c.1-.11.12-.24.1-.37-.01-.02-.04-.05-.06-.07-.08-.05-.18-.05-.25,0-.07.04-.13.1-.18.16-.13.16-.14.36-.04.44ZM9.91,37.16h-.01c-1.25.34-2.47.75-3.66,1.24,0,0,1.85-.4,3.61-.81.04-.14.06-.29.06-.43ZM9.5,43.08c.07-.18.04-.35-.08-.4-.12-.05-.26.05-.34.23-.07.18-.04.35.08.4.12.04.27-.05.34-.23ZM10.34,43.85c-.06-.11-.24-.12-.41-.04s-.26.24-.2.35c.05.11.24.12.41.04.17-.08.26-.24.2-.35ZM11.33,43.27c-.05-.11-.23-.13-.4-.06s-.26.23-.22.34c.05.11.23.13.4.06.16-.07.26-.23.22-.34ZM12.18,42.39c-.11-.12-.29-.13-.41-.02-.18.1-.29.29-.22.42.11.14.31.18.47.08h-.01s.11-.04.14-.07c.12-.11.13-.29.02-.41ZM14.56,40.34l.23-.08.63-.23c.65-.23,1.31-.43,1.98-.6.14-.04.29-.06.43-.1.44-.1.89-.14,1.35-.14.12,0,.24.01.36.04.05.01.11.02.16.04.53.13.31.67.66.67.46-.04.83-.38.91-.83v-.04c.07-.44-.06-.83-1.13-.66-.55.1-1.33.23-2.19.44l-.31.08c-.42.11-.85.23-1.29.37-1.17.4-2.28.89-3.36,1.48-.13.08-.26.16-.37.24l-.37.26-.38.28-.76.54c-.31.23-.61.43-.88.66-.35.26-.67.55-.97.87-.47.57-.14.55.16.26,0,0,.48-.44,1.23-1.05.25-.2.54-.43.85-.66.43-.31.9-.65,1.38-.95.54-.35,1.09-.65,1.68-.9ZM10.85,41.66h0c.08.1.28.06.46-.07.06-.05.1-.11.13-.18.01-.01.02-.04.02-.06.01-.06,0-.13-.04-.19-.08-.1-.28-.07-.44.07s-.23.34-.13.43ZM26.82,44.96c-.19-1.03-.39-2.07-.61-3.09-.14-.14-.28-.27-.45-.41-1.78-1.44-2.28-.97-2.66-1.15-.2-.1-.4-.23-.57-.4-.1-.07-.11-.16-.1-.2s.17-.11.4-.14l.19-.04c.18-.02.37-.04.55-.04.28-.02.55.01.82.1.28.11.8.39,1.41.54-.51-2.14-1.09-4.27-1.75-6.37-.02.02-.05.04-.07.06-.1.1-.2.2-.31.31l-.11.12c-.16.17-.3.34-.43.51l-.24.31s-.08.11-.08.11l-.04.05c-.14.2-.26.38-.38.58-.07.12-.14.23-.2.34-.3.49-.54,1.02-.72,1.58l-.04.08c-.22-.57-.18-1.2.1-1.74.02-.07.06-.13.1-.2.05-.08.1-.14.16-.25.06-.11.14-.19.23-.32.08-.13.19-.26.3-.41l.06-.08c.08-.11.17-.22.25-.34.14-.19.34-.47.43-.6.1-.13.18-.26.25-.4.07-.13.14-.25.2-.38.07-.15.13-.3.18-.45-.21-.63-.41-1.25-.62-1.88,0,0,0,0,0,0-.83-.52-1.43.02-1.8-.29-.73-.61-1.66-1.2-2.59-.77l-.08.04c-.1.05-.19.11-.28.18-.1.07-.18.17-.25.26-.29.48-.43,1.03-.41,1.6-.01.06-.16.17-.31.35-.13.14-.24.32-.31.51-.11.31-.13.64-.07.96v.05c.02.12.06.25.1.37.07.23.14.43.23.64l.06.16c.12.29.24.54.37.79.07.14.14.26.22.4.2.35.46.67.75.95-.48-.23-.94-.53-1.32-.91-.12-.12-.24-.25-.34-.38-.1-.12-.17-.24-.24-.37-.07-.13-.14-.26-.19-.41-.07-.22-.16-.4-.23-.57l-.04-.08c-.52-1.09-.95-1.24-1.17-1.33-.47-.17-.96-.26-1.47-.26-.14,0-.28.01-.42.04h-.1c-.38.06-.72.29-.93.63-.14.31.17.23,0,.51-.04.05-.11.14-.11.14l-.05.04c-.31.28-1.03-.01-1.42,1.13-.23.46-.19.99.1,1.41.07.13.12.28.13.42.01.14.01.29,0,.43-.01.2-.05.41-.1.61-.1.4.3.9.95,1.26.12.07.25.14.38.19.28.11.57.18.85.22.13.01.28.04.41.04.2.01.42,0,.64-.04,1.27-.2,2.25-1.09,2.72-1.09.37,0,.76.16,1.09.16.08,0,.16,0,.24-.02.36-.11.85-.19.9-.28.05-.08-.36-.34-.71-.51h-.04c-.11-.06-.22-.1-.32-.13-.07-.04.11-.02.38,0,.44.02.89.1,1.32.22.04.02.04-.11.04-.17v-.24c.02-.34,0-.69-.1-1.01-.14-.26.54.63.63.88.08.25.19-.17.36-.54s.23,1.2.44,1.33,1.01-.46,1.52-.6c.04-.01.07-.02.11-.02.19-.02.04.14-.2.37-.35.34-.88.79-.79.93.07.06.17.07.26.06l.23-.04c.23-.05.46-.12.67-.19.08,0-.41.24-.79.51-.23.16-.43.31-.43.41.01.1.04.2.1.29.11.2.23.38.37.57.12.16.24.3.38.44-.13-.1-.32-.23-.51-.34-.18-.11-.31-.18-.37-.16-.06.02-.01.2.06.42.12.42.3,1.05.17,1.24-.13.19-.35-.37-.54-.95l-.16-.47c-.05-.19-.14-.38-.26-.55-.22-.11-1.49,1.06-1.78,1.45.07-.14.25-.41.51-.82.25-.41.47-.82.37-.82-.57.28-1.08.65-1.52,1.11.31-.48.65-.94,1.01-1.38l-.06-.06c-.14-.11-.32-.16-.51-.11-.11.02-.22.07-.31.13l-.83.51c-.23.16-.49.28-.76.36h-.16c-.42.01-1.79.1-2.49,1.24l-.05.07c-.13.25-.26.51-.37.77-.08.2-.16.41-.22.63-.29.94-.28,1.88.51,2.27l.02-.05c.51.26.53-.06.82-.02h.11c.37.13,1,1.37,1.89,1.36.89-.01,1.83.37,2.33-.85.51-1.13.69-2.39.51-3.62v-.41c0-.16.02-.3.06-.46.08-.42.35-.77.72-.97,0,0,.04.2.07.51.01.13.05.29.05.47.11.91.05,1.83-.19,2.72-.51,1.48.38,1.96.6,2.02s.94,1.48,1.61,1.64c1.18.18,2.32-.44,2.83-1.52.19-.37.77-.05,1.2-1.17.02-.05.03-.09.05-.14ZM71.82,46.23c-.81-.44-1.42-.87-1.76-1.17-1-.87-1.71-2.08-2.22-3.25l-2.07-2.32v2.92c0,.42.07.69.23.81.05.04.11.07.17.1v.24h-1.37v-.23s.1-.05.13-.07c.11-.07.2-.17.25-.3.05-.17.06-.36.06-.54v-3.46c.05-.34-.13-.66-.44-.81v-.28h.61c.53,0,1.03.2,1.42.54-.05-.26-.07-.42-.07-.42.73-.23,1.46-.51,2.16-.81l-.24-.18c-.57-.51-1.03-1.12-1.36-1.8-.25-.47-.41-.99-.43-1.52.05-.85,1.36-2.99,3.69-4.08.97-.47,2.25-.31,3.45.04-.95-1.18-1.85-2.48-2.1-3.39-.66-2.33,1.35-4.28,2.65-4.71.91-.3,2.85.15,4.39,1.15.35-.79.7-1.58,1.08-2.36-2.25.18-9.97,1.2-17.94,7.23l-.43.32-.17-.51c-2.3-6.71-6.33-12.67-11.69-17.32-1.38,1.17-8.44,7.55-11.7,17.33l-.17.51-.43-.32c-3.84-2.92-8.21-5.07-12.88-6.35-1.65-.44-3.34-.75-5.05-.89.63,1.31,1.22,2.63,1.79,3.96,3.54,1.42,5.65,3.44,6.31,4.32,1.27,1.68,1.56,4.08,1.6,5.59v-.05c.43.32.77.75,1.01,1.23.33.68.29,1.51.03,2.33h1.29v.28c-.07.02-.13.06-.18.11-.1.17-.14.35-.13.54v1.41h2.2v-1.41c.02-.19-.04-.4-.14-.55-.06-.05-.12-.08-.19-.1v-.28h2.13v.28c-.07.02-.18.11-.18.11v.02c-.11.16-.16.34-.16.53v3.88c-.01.19.02.38.13.54.05.05.11.08.18.11v.23h-2.12v-.23c.06-.02.12-.06.18-.1.12-.17.18-.36.16-.57v-2.02h-2.18v2.02c-.02.19.04.38.14.54.05.05.11.08.17.11v.23h-2.12v-.23c.06-.02.13-.05.18-.1.12-.16.17-.36.14-.55v-3.68c-.35.62-.81,1.2-1.32,1.65-.46.4-1.02.65-1.61.71,1.57,1.6,1.23,3.03.76,4.27.27,1.55.52,3.1.71,4.65h.02s42.85.01,42.85.01c.16-1.31.35-2.61.57-3.91ZM73.39,45.55s-.05-1.55-.12-2.83c-.18.88-.33,1.76-.49,2.65.22.12.45.23.68.33.69.32-.07-.14-.07-.14ZM77.91,46.96s-.05-.91-.12-1.92c-.29.01-.59-.01-.87-.08-.91-.26-1.62-1-1.84-1.92-.26-.94-.34-1.91-.22-2.87-.3-.13-.62-.23-.93-.34-.19.8-.38,1.6-.55,2.4.3,1.18.81,3.21.9,3.6.55.41,1.18.69,1.85.82v.02h.02c1,.17,1.74.3,1.74.3ZM79.33,47.23s-.16-1.35-.31-2.49c-.25.11-.53.19-.81.24.14.84.31,1.7.31,2.02h0s.01.01.01.01c.25.12.52.19.79.22ZM88.82,45.04h.01s0,0-.01,0h0ZM86.59,45.63s-2.27-1.64-3.42-2.3c1.19-.6,2.42-1.08,3.69-1.46,0,0-2.49-.02-4.1,1.05l-1.21-.6c-.08.14-.17.28-.25.41l.44.23c1.18.66,2.32,1.39,3.42,2.19,0,0-2.28-1.11-4.11-2.06-.05.06-.1.12-.14.18-.41.51-.9.93-1.47,1.25.2.99.47,2.3.54,2.62,0,0,1.19.07,2.31.22,0,0-.69-2.9-.83-3.19l.36.16s.77,2.43.95,2.84c0,0,2.97.26,4.09.41,1.12.13,1.96.3,2.39.6-.64-.87-1.41-1.64-2.28-2.25,0,0,1.08-.89,1.84-.9-.14-.05-1.05-.31-2.21.6ZM87.41,35.41c-.4-.29-.83-.52-1.29-.66l-.25-.08c-.58-.19-1.27-.42-1.86-.6l-1.19-.36-.12-.04h.1l.72.05c.77.1,1.55.1,2.32-.02.64-.34,1.19-.82,1.61-1.41l.29-.38c.16-.23.31-.46.46-.7.08-.13.17-.28.24-.41.49-.79.82-1.68.96-2.61.02-.14.02-.28,0-.42-.01-.05-.02-.08-.04-.12-.05-.12-.11-.25-.19-.36-1.24-1.86-4.99.11-6.41,1.01-.18.11-.35.23-.51.36l-.17.16-.29.3c-.17.18-.35.4-.51.6s-.31.41-.46.63c-.46.59-.83,1.24-1.13,1.92-.01.1.01.1.06.1.67-.54,1.65-1.98,1.78-1.59s-1.88,2.34-.75,1.68l.55-.32c1.71-.97,3.15-1.73,4.26-2.24l-.06-.06c-.1.02-.19-.01-.26-.08-.12-.12-.12-.3,0-.42s.3-.12.42,0c.08.1.11.23.05.34l.1.11.47-.22-.04-.06c-.13.05-.26.01-.35-.08-.13-.13-.13-.34,0-.47.08-.06.19-.08.29-.06.06.01.12.05.17.1.1.1.12.25.06.37l.1.13.41-.18v-.08c-.07,0-.14-.04-.19-.08-.1-.1-.11-.24-.04-.36.01-.02.02-.04.04-.06.11-.1.26-.11.37-.02.02.01.05.02.06.04.08.1.1.23.05.34v.14l.51-.19-.04-.07c-.07-.01-.13-.04-.18-.08-.06-.06-.07-.14-.06-.23.01-.06.04-.11.07-.16.1-.11.26-.11.37,0l.04.05c.05.08.05.19,0,.28l.06.13h.06c.52-.1.57.08.14.31v.06c.07,0,.14.02.19.07.1.1.1.26,0,.36-.11.11-.26.1-.36,0-.11-.11-.1-.26,0-.36v-.05l-.13.06-.24.1s.04.07.04.11c.05.01.11.05.14.08.12.12.12.3,0,.42-.07.07-.19.1-.29.07-.05-.01-.1-.04-.13-.07-.02-.02-.05-.05-.05-.07-.06-.12-.05-.25.05-.35l-.04-.07-.46.19v.14c.07.01.13.05.18.1.07.08.11.2.07.32-.01.05-.04.11-.08.14-.1.06-.22.08-.32.04-.17-.07-.25-.26-.18-.43l-.05-.13-.26.12s.02.11.02.17c.05.01.11.04.14.07.12.12.12.3,0,.42-.01.01-.04.04-.06.04-.11.07-.25.05-.35-.05-.07-.07-.1-.19-.06-.3.01-.05.04-.08.07-.12v-.12l-.22.1-.24.12c-1.06.52-2.08,1.09-3.07,1.73-.18.18-.37.32-.59.46l-.11.07c-.23.14-.46.29-.61.41-.1.06-.16.12-.19.16-.12.14.37.52.97.95.32.19.71.4,1.11.65.26.16.49.36.67.6.35.52-.1.79-.6.29l-.16-.14c-.84-.73-2.96-1.82-2.75-.84.06.3.1.55.13.81.05.38.08.78.08,1.17v.25c-.04,1.06-.31,1.39-.54.38-.04-.17-.08-.4-.11-.51-.02-.11-.07-.22-.07-.32-.1-.42-.2-.84-.31-1.23-.23-.77-.53-1.38-.97-1.59-.81-.36-3.08-1.13-1.38-1.07.19.01.38,0,.58-.05,0-.04.04-.06.1-.04.26-.13.32-.38.23-.85-.04-.17-.07-.34-.13-.51l-.04-.07c-.04-.12-.06-.19-.16-.37-.1-.18-.19-.37-.31-.58-.06-.12-.13-.23-.19-.35l-.14-.23c-.19.52-.39,1.03-.57,1.55.1.11.18.2.33.36.19.2.34.36.43.46l.11.11-.16-.1c-.16-.08-.37-.2-.66-.36l-.18-.09c-.43,1.27-.84,2.55-1.22,3.84.28-.14.57-.28.85-.4.52-.23,1.06-.43,1.6-.6.22-.07.42-.13.66-.19-.11.12-.2.25-.3.37-.28.35-.53.73-.76,1.13-.05.08-.1.17-.14.25-.26.49-.49,1-.69,1.52-.07.2-.14.41-.2.61-.13.42-.23.84-.31,1.26-.05.23-.07.46-.11.69-.04.16-.05.31-.05.47-.1,1.85.35,3.33,1.42,3.58.2.06.4.06.6.06.12,0,.24-.01.35-.04.3-.05.58-.16.84-.29.11-.06.23-.13.35-.2.38-.25.72-.57,1.01-.93.1-.11.18-.23.26-.35.08-.12.17-.24.24-.37.87-1.5,1.06-3.32.51-4.97v-.06c-.06-.19-.13-.38-.22-.58.07.11.18.35.32.61v.02c.28.57.67,1.05,1.17,1.42,1.32.76,2.72,1.38,4.17,1.86.43.18.9.25,1.36.22.88-.25,1.32-.99.76-2.8v-.02s.01,0,.01,0c-.23-.88-.72-1.66-1.42-2.24ZM76.09,35.91h.05v-.03s-.01.02-.01.02h-.04ZM88.53,33.4l-.4-.43c-.36.43-.77.83-1.21,1.17l.14.06v.02h.02c.83-.47,1.44-.82,1.44-.82ZM89.77,32.69l-.88-.83c-.13.23-.29.44-.44.66.25.2.46.38.57.51h-.01s.02.01.02.01c.26-.07.52-.19.75-.35ZM92.17,30.91s-1.29-.96-2.1-1.56c-.22.71-.52,1.38-.89,2.02v.02h.02c.48.38.89.72,1.05.82,0,0,.96-.7,1.92-1.3ZM89.94,26.76c.13.19.24.38.32.6.04.1.07.2.08.31,1.48-.2,2.68-.25,2.68-.25,0,0-1.23.3-2.66.61-.01.36-.06.72-.16,1.07.6.4,1.94,1.25,2.24,1.41,0,0,2.47-1.67,3.42-2.27.95-.6,1.73-1.01,2.24-1.05-1.05-.28-2.13-.38-3.2-.3,0,0,.28-1.39.87-1.86,0,0-1,.3-1.33,1.86,0,0-2.79.18-4.09.38.53-1.2,1.18-2.36,1.92-3.45l.02-.02c-.99.81-1.79,1.82-2.36,2.96ZM57.74,30.82c.06.16-.05.29-.16.43l.02.05.05.11c.4-.19.67-.58.72-1.01,0-.13-.05-.25-.13-.35-.08-.08-.2-.14-.32-.14-.25-.02-.48.16-.51.41v.06c0,.2.13.4.32.44ZM59.08,33.48c.22.16.46.29.7.41l.06.04c.63.32,1.09.57,1.12,1.14-.07.57-.58.97-1.14.94-.55.05-1.05-.3-1.19-.83l-.37-.04v.1c0,.22,0,.87.04,1.03.44.1.9.13,1.36.13.75.04,1.48-.16,2.1-.55.46-.32.73-.85.72-1.42v-.06c0-.35-.16-.69-.42-.91-.17-.18-.37-.34-.6-.47-.24-.14-.47-.24-.69-.34-.26-.08-.49-.23-.7-.41-.12-.16-.19-.35-.2-.54.04-.48.46-.83.93-.79h.05c.47-.04.89.26,1.01.72h.35c0-.17.06-.67.07-.84v-.14c-.44-.1-.89-.14-1.35-.16-1.52,0-2.49.67-2.49,1.73v.06c-.02.49.22.95.65,1.2ZM50.42,33.85l-2.02-2.32c-.4-.55-1.03-.88-1.72-.9h-.81v.31c.31.14.48.47.43.81v3.44c0,.18-.01.37-.06.54-.05.12-.13.23-.25.3l-.13.06v.23h1.56v-.24c-.06-.02-.12-.06-.17-.1-.18-.23-.26-.52-.22-.81v-2.89l2.57,2.98c.72.83.93,1.07,1.32,1.12h.65s0-.26,0-.26c-.26-.11-.43-.36-.42-.64v-3.7c0-.17.02-.34.06-.51.05-.14.14-.26.29-.34l.07-.04v-.25h-1.59v.24c.29.12.42.41.42.87v2.09ZM55.29,30.92c.58,0,1.08.36,1.26.91h.51l.1-.83c-.54-.31-1.17-.47-1.8-.43h-.16c-.91-.07-1.8.25-2.47.88-.54.57-.84,1.32-.83,2.12,0,.75.26,1.47.78,2.02.52.57,1.25.89,2.02.87h.16c.38,0,.78-.06,1.15-.14.36-.1.73-.17,1.12-.2h.28v-1.47c-.02-.18.01-.37.1-.54.04-.05.08-.08.14-.11v-.25h-1.71l-.02-.02h-.16v.26c.16.08.25.25.24.43v.51c.04.29-.07.59-.3.78-.2.12-.43.19-.67.19-.28,0-.54-.08-.76-.25-.22-.19-.37-.44-.43-.72-.08-.51-.12-1.02-.11-1.54,0-1.2.44-2.42,1.56-2.45ZM39.48,35.99h-.2s-.07-.1-.07-.22v-.14c0-.1-.04-.36-.04-.79v-1.2l.28-.22c.64.81,1.19,1.67,1.67,2.59l-.13.04v.26h4.28v-.23c-.06-.02-.12-.06-.17-.11-.1-.16-.14-.35-.12-.53v-3.86c-.01-.19.02-.37.13-.54h-.02s.11-.08.17-.1v-.28h-2.07v.28c.07.01.13.05.18.1.11.16.16.36.13.55v3.85c.02.19-.02.4-.14.55-.06.06-.14.08-.23.08-.24.01-.48-.11-.59-.34l-2.02-3.15c.17-.18.31-.35.47-.51.61-.67,1.09-1.21,1.52-1.21h.08v-.24h-.52c-.43.04-.84.22-1.15.54-.23.23-1.01,1.01-1.76,1.68v-.55c0-.91,0-1.38.18-1.41l.16-.04v-.28h-1.95v.28h.05c.08,0,.13.04.16.1.07.63.1,1.26.07,1.89.02,1.01,0,2.02-.08,3.03,0,.05-.06.07-.17.1h-.05v.28h1.96v-.25ZM55.27,38.18s.11-.1.18-.11v-.28h-2.12v.28c.07.01.13.05.19.1.12.16.17.36.14.55v3.88c.02.19-.02.4-.16.55-.05.05-.11.07-.18.1v.23h2.12v-.23h-.01c-.07-.02-.12-.06-.17-.11-.11-.16-.16-.35-.13-.54v-3.88c-.01-.19.02-.37.13-.54ZM56.36,38.07c.07.02.13.05.19.1.11.16.16.36.13.55v3.88c.02.19-.02.4-.16.55-.05.05-.11.07-.18.1v.23h2.13v-.23c-.07-.02-.13-.06-.18-.11-.11-.16-.14-.35-.13-.54v-3.88c-.01-.19.02-.37.13-.54.05-.05.11-.08.18-.11v-.28h-2.12v.28ZM40.99,43.13c.07.04.16.07.24.1v.25h-.72c-.65.08-1.27-.29-1.52-.89l-.25-.61c-.59-.17-1.21-.17-1.8,0l-.08.22c-.06.22-.11.43-.12.66-.01.12.04.23.13.29.04.02.11.05.11.05v.26h-1.35v-.25c.31-.25.54-.59.66-.97l1.82-4.55h.51l1.9,4.64c.08.3.24.58.47.79h.01ZM38.55,41.47l-.71-1.71-.67,1.71c.46-.1.92-.1,1.38,0ZM50.87,42.6l-.25-.61c-.59-.17-1.21-.17-1.8,0l-.08.22c-.07.22-.12.43-.13.66-.01.12.04.23.13.29.04.02.11.05.11.05v.28h-1.35v-.25c.31-.25.54-.59.66-.97l1.82-4.55h.51l1.9,4.64c.08.3.24.58.47.79h.04c.07.02.14.06.23.08v.25h-.72c-1.26,0-1.52-.88-1.52-.88ZM50.43,41.47l-.71-1.71-.67,1.71c.46-.1.92-.1,1.38,0ZM64.24,43.2c.07.04.16.07.24.1v.25h-.72c-.65.08-1.27-.28-1.52-.88l-.25-.61c-.59-.17-1.21-.17-1.8,0l-.08.22c-.06.22-.11.43-.12.66-.01.12.05.23.14.29.04.02.11.05.11.05v.26h-1.35v-.25c.32-.26.55-.61.66-1.01l1.82-4.55h.51l1.9,4.64c.08.3.24.58.47.79v.04ZM61.82,41.49l-.71-1.71-.7,1.77.02-.06c.46-.1.93-.1,1.38,0ZM46.58,41.35l-1.52-3.72h-.57l-1.47,3.7s-.7-2.27-.85-2.84c-.25-.6-.87-.95-1.52-.88h-.7v.25c.08.02.16.06.23.1.24.22.41.48.51.79l1.58,4.64h.51l1.52-3.78,1.52,3.78h.51l1.82-4.55c.11-.4.35-.75.66-1.01v-.25l-1.38.04h.01v.28s.07.02.11.04c.1.06.14.17.13.29-.01.23-.06.44-.12.66l-.96,2.45ZM42.81,46.84h-.97v-.66h-.19v1.49h.19v-.67h.97v.67h.19v-1.49h-.19v.66ZM43.49,47.67h.19v-1.49h-.19v1.49ZM44.37,46.18h-.19v1.49h1.14v-.16h-.95v-1.33ZM47.34,46.83c.05.43-.25.82-.69.87h-.19c-.44.04-.82-.3-.85-.73v-.04c.01-.44.38-.79.84-.78h.02c.42-.05.82.25.87.69ZM47.13,47.01c.02-.36-.25-.69-.61-.71h-.05c-.35-.02-.64.24-.66.59v.02c-.02.37.25.69.61.71.36.02.69-.25.71-.61ZM47.68,47.67h.07c.01.1-.04.14-.16.17l.04.07c.18-.04.26-.12.26-.29v-.17h-.22v.22ZM50.22,46.84h-.97v-.66h-.19v1.49h.19v-.67h.97v.67h.19v-1.49h-.19v.66ZM51.71,46.16l.77,1.52h-.22l-.19-.4h-.93l-.19.4h-.19l.77-1.52h.18ZM51.98,47.12l-.38-.76-.38.76h.77ZM54.44,47.42l-.46-1.25h-.16l-.42,1.25-.51-1.24h-.2l.6,1.52h.16l.47-1.21.47,1.21h.16l.6-1.52h-.2l-.51,1.24ZM56.3,46.16l.77,1.52h-.2l-.2-.4h-.91l-.2.4h-.19l.77-1.52h.18ZM56.58,47.12l-.35-.76h-.01l-.41.76h.77ZM57.38,47.67h.19v-1.49h-.19v1.49ZM58.08,47.67h.22v-1.49h-.22v1.49ZM45.18,27.13h-1.01v-.51h.85v-.14h-.89v-.51h1.01v-.16h-1.17v1.45h1.2v-.14ZM46.31,27.11c-.2,0-.4-.07-.55-.2l-.13.14c.18.16.42.23.66.23.32,0,.55-.19.55-.41s-.14-.34-.51-.41h0c-.37-.05-.44-.16-.44-.29s.13-.24.35-.24c.17,0,.34.06.47.16l.11-.13c-.16-.12-.36-.17-.57-.17-.31,0-.54.14-.54.38s.2.36.54.42c.34.06.42.13.42.28s-.14.24-.36.24ZM47.79,27.25h.18v-1.29h.54v-.14h-1.27v.14h.55v1.29ZM49.71,26.34h-.22v.22h.22v-.22ZM51,25.99v1.27h.18v-1.44h-.14l-.4.12.05.13.31-.08ZM51.59,26.28c0-.28.22-.51.51-.51h.08c.16,0,.31.05.43.14.14.14.23.35.2.55.05.38-.22.73-.59.78h-.1l-.02.02c-.18,0-.36-.06-.51-.18l.11-.12c.11.1.25.16.4.16.29,0,.51-.26.51-.64-.11.14-.28.24-.46.23-.34,0-.57-.19-.57-.44ZM51.76,26.28c0,.18.16.31.4.31.2.02.38-.12.41-.32,0-.19-.17-.32-.41-.32h-.01c-.19-.02-.37.12-.38.31v.02ZM53.67,27.12c-.17,0-.34-.07-.46-.19l-.12.12c.16.14.36.23.58.23.34,0,.58-.19.58-.47s-.25-.44-.57-.44c-.11,0-.22.01-.31.06l.04-.46h.77v-.14h-.94l-.05.7.13.07c.11-.06.22-.08.34-.08.24,0,.41.12.41.3s-.17.31-.4.31ZM54.37,26.59c-.04-.41.28-.77.69-.79.41-.04.77.28.79.69v.05c.02.38-.25.71-.64.75h-.05c-.41.04-.77-.28-.79-.69ZM54.65,26.53c-.02.3.19.57.49.59h.01c.3-.01.52-.26.51-.57v-.02c.04-.3-.18-.57-.48-.59h-.02c-.3.01-.52.26-.51.57v.02Z"/></svg>