<svg width="97" height="26" viewBox="0 0 97 26" fill="none" xmlns="http://www.w3.org/2000/svg">
<g clip-path="url(#clip0_1282_21794)">
<path fill-rule="evenodd" clip-rule="evenodd" d="M33.8601 8.82131C33.8601 7.8873 33.5488 7.43003 32.7023 7.43003C31.5251 7.43003 29.7057 8.57807 28.0323 10.2612L27.2443 7.27436C28.9274 5.67878 31.204 4.25832 33.3834 4.25832C35.5627 4.25832 37.061 5.80526 37.061 8.20837C37.061 10.1056 36.1951 12.7422 35.0373 14.795C33.3347 17.8597 30.9024 20.4769 27.7696 20.4769C25.279 20.4769 23.625 18.9007 23.625 16.5268C23.625 12.7908 27.0108 10.7088 33.6266 10.4461C33.7725 9.9207 33.8504 9.36614 33.8601 8.82131ZM26.8259 16.2641C26.8259 17.0911 27.2248 17.5678 28.0907 17.5678C29.482 17.5678 31.0776 16.0404 32.2159 13.9389C32.3715 13.647 32.5272 13.3259 32.6537 13.034C28.3826 13.3065 26.8356 14.6588 26.8356 16.2641H26.8259ZM47.5588 4.3848C48.1815 4.3848 48.7847 4.57938 49.3003 4.9199L47.4615 8.19864C47.1599 8.10135 46.8388 8.0527 46.5178 8.06243C44.5719 8.06243 42.665 10.1737 41.0792 13.8124L38.3744 20.0877H34.9109L41.5754 4.6183H44.9903L43.7255 7.51759L43.7741 7.54678C45.0389 5.43555 45.9632 4.37507 47.5588 4.37507V4.3848ZM56.4805 8.70456C56.4805 7.92622 56.1108 7.50786 55.1962 7.50786C54.0968 7.50786 52.6277 8.59753 51.3435 10.3877C49.7673 12.5768 48.9793 14.4642 48.9793 15.9625C48.9793 16.7409 49.4268 17.2176 50.2149 17.2176C51.4797 17.2176 53.3185 15.7777 54.9433 13.4524L56.2859 16.3031C54.7584 18.3851 52.4818 20.4671 49.6214 20.4671C47.1015 20.4671 45.6616 18.6964 45.6616 16.2739C45.6616 13.6081 46.9459 11.0396 48.6777 8.77266C50.8278 5.94147 53.3477 4.23886 55.7605 4.23886C58.1733 4.23886 59.5452 5.73715 59.5452 7.94568C59.5452 8.50997 59.4673 9.07426 59.3311 9.62883L56.2372 10.0861C56.3929 9.63856 56.4902 9.17156 56.4999 8.70456H56.4805ZM61.4521 15.6901C61.4521 16.7798 61.8996 17.2857 62.8725 17.2857C64.1373 17.2857 65.6843 16.3809 67.5717 14.5129L68.7782 17.2079C67.1047 19.0467 64.76 20.4671 62.5028 20.4671C59.7203 20.4671 58.1928 18.9202 58.1928 16.2739C58.1928 14.3572 58.9517 12.0806 60.4208 9.78449C62.4931 6.52522 65.3048 4.23886 68.2139 4.23886C70.471 4.23886 71.8915 5.63013 71.8915 7.80947C71.8915 11.6525 67.9317 14.3475 61.6564 14.5907C61.5396 14.941 61.4715 15.3107 61.4424 15.6901H61.4521ZM68.6711 8.2181C68.6711 7.57597 68.3598 7.14788 67.6204 7.14788C66.628 7.14788 65.0227 8.40295 63.5536 10.5628C63.2812 10.9617 63.0379 11.3801 62.8142 11.8179C66.0151 11.6039 68.6711 10.1153 68.6711 8.2181ZM77.4566 0.872559H80.9202L72.6309 20.1072H69.1771L77.4566 0.872559ZM83.6152 0.872559H87.1371L85.9405 3.69402H82.4185L83.6152 0.872559ZM78.8187 20.1072H75.3551L82.0196 4.63775H85.4832L78.8187 20.1072ZM85.0065 20.1072H81.5429L89.8419 0.872559H93.3055L89.6084 9.41479L96.1366 4.02482L97.0025 7.01168L91.0969 11.672L92.5368 20.1072H89.3651L88.2365 12.5573L85.0065 20.1072ZM49.3684 21.1774L50.283 23.7264C49.7965 24.2129 49.2128 24.5826 48.5706 24.8355C48.0647 25.0107 47.5393 25.1177 47.014 25.1274L46.1967 22.627C46.7513 22.5784 47.2961 22.4422 47.8118 22.2281C48.3858 21.9752 48.9112 21.6152 49.3684 21.1774Z" fill="white"/>
<path d="M15.4402 1.05807L19.8767 13.4531C18.3492 15.0584 15.1483 17.4128 11.5583 18.7749C8.95085 19.777 6.25587 20.0981 3.96951 20.2148L0 8.09227C2.62688 7.81013 5.6332 7.13881 7.85145 6.14643C10.6535 4.91083 13.222 3.17903 15.4305 1.04834" fill="white"/>
</g>
<defs>
<clipPath id="clip0_1282_21794">
<rect width="97" height="24.2549" fill="white" transform="translate(0 0.872559)"/>
</clipPath>
</defs>
</svg>
