<svg width="100" height="22" viewBox="0 0 100 22" fill="none" xmlns="http://www.w3.org/2000/svg">
<g clip-path="url(#clip0_1282_21797)">
<path d="M22.33 11.2001C21.43 9.83008 21.47 8.08008 20.78 6.62008C19.45 4.72008 17.47 3.15008 15.53 2.17008C14.25 1.35008 12.89 0.630078 11.43 0.290078C11.18 0.240078 10.29 0.120078 9.74 0.0800781C8.26 0.0800781 7.19 1.35008 6.48 2.52008C5.53 4.36008 5.1 6.42008 4.1 8.24008C4.08 8.34008 4.04 8.41008 3.99 8.50008C3.12 10.2101 2.31 11.9501 1.18 13.5501C0.64 14.5701 0.01 15.6001 0 16.7801C0.11 18.0101 0.32 19.3201 1.49 20.0601C2.56 20.5901 3.65 21.1401 4.84 21.3301C5.52 21.3101 6.11 21.6201 6.74 21.7801C8.26 22.0701 9.99 21.8301 11.49 21.5601C13.22 21.3201 15.25 21.6501 16.93 21.0201C18.31 20.3401 19.76 19.8701 21.01 18.8801C21.75 18.0601 22.83 17.3601 23.23 16.3301C23.65 14.5301 22.97 12.7601 22.32 11.1901M20.89 14.7501C19.74 16.8101 17.5 17.4401 15.68 18.5101C13.79 19.4701 11.64 19.7701 9.66 20.5001C8.95 20.8101 8.09 20.6401 7.28 20.6501C6.42 20.6201 5.65 20.2101 4.95 19.7001C3.89 18.4101 3.87 16.3801 4.3 14.8001C4.59 13.9001 4.65 12.9001 5.08 12.0601C6.37 9.32008 7.26 6.50008 8.87 3.90008C9.26 3.17008 9.36 2.01008 10.31 1.72008C10.65 1.67008 10.73 1.57008 11.37 1.67008C12.24 2.01008 13.34 2.64008 13.85 3.03008C14.36 3.42008 18.04 7.21008 19.64 9.53008C20.04 10.1501 20.41 10.8201 20.74 11.4701C20.84 11.7601 20.94 12.1001 21 12.5701C21.06 13.0401 21.43 14.1401 20.89 14.7501ZM18.19 11.0401C17.92 9.64008 16.89 8.54008 16.05 7.39008C14.87 5.74008 13.07 4.79008 11.45 3.80008C11.12 3.63008 10.63 3.36008 10.41 3.41008C10.19 3.46008 10.12 3.68008 10.04 3.80008C9.58 4.82008 9.08 5.83008 8.55 6.82008C7.98 8.33008 7.6 9.94008 7.12 11.4601C6.41 13.0701 5.66 14.8201 5.8 16.6201C5.88 17.3501 5.91 18.1401 6.53 18.6101C7.29 19.0501 8.24 19.1601 9.14 19.1301C11.38 18.9301 13.75 18.9001 15.6 17.6601C15.71 17.6001 16.96 16.5101 17.67 15.9501C18.1 15.5401 18.7 15.1101 18.79 14.5201C18.87 13.3901 18.44 12.1601 18.16 11.0201M16.24 14.7801C14.05 16.4101 11.74 17.7701 9.05 18.1901C8.64 18.2001 8.22 18.0801 7.97 17.6901C7.15 16.2301 8.01 14.5601 8.16 13.0401C8.3 12.3201 8.65 11.6901 8.92 11.0101L10.76 6.87008C11.05 6.35008 11.44 5.55008 11.78 5.36008C12.12 5.18008 12.68 5.81008 13.03 6.14008L13.53 6.77008C14.19 7.70008 15.52 9.62008 15.52 9.62008C16.06 10.6501 16.71 11.6401 17.01 12.7701C17.16 13.5301 16.88 14.2801 16.25 14.7801M33.27 14.9001H32.06C31.8 14.9001 31.7 14.7801 31.64 14.6001L31.21 13.3501H28.55L28.12 14.6401C28.08 14.7801 27.99 14.9001 27.8 14.9001H26.57C26.45 14.9001 26.4 14.8201 26.4 14.7201C26.4 14.6801 26.4 14.6401 26.42 14.5901L28.99 7.68008C29.05 7.52008 29.15 7.41008 29.36 7.41008H30.47C30.69 7.41008 30.8 7.50008 30.86 7.64008L33.48 14.5001C33.5 14.5601 33.51 14.6201 33.51 14.6701C33.51 14.8001 33.43 14.8901 33.28 14.8901M30.08 9.92008C30.01 9.71008 29.95 9.50008 29.89 9.29008H29.87C29.81 9.50008 29.74 9.71008 29.68 9.93008L29 12.0401H30.77L30.09 9.92008H30.08ZM38.75 14.8901H37.76C37.54 14.8901 37.45 14.7701 37.45 14.5701V11.7001C37.45 11.2501 37.33 10.9501 36.84 10.9501C36.48 10.9501 36.04 11.1101 35.74 11.3701V14.5801C35.74 14.7901 35.65 14.9001 35.44 14.9001H34.43C34.25 14.9001 34.13 14.8001 34.13 14.6101V9.96008C34.13 9.76008 34.21 9.65008 34.44 9.65008H35.32C35.48 9.65008 35.6 9.69008 35.62 9.88008L35.64 10.1101C36.13 9.72008 36.73 9.51008 37.36 9.51008C38.54 9.51008 39.06 10.2501 39.06 11.4301V14.5901C39.06 14.8101 38.99 14.9101 38.75 14.9101M42.37 17.2601C41.81 17.2601 41.28 17.1801 40.71 16.9401C40.57 16.8801 40.52 16.8201 40.52 16.7001C40.52 16.6301 40.54 16.5701 40.55 16.5201L40.73 15.9101C40.77 15.7701 40.81 15.7001 40.89 15.7001C40.97 15.7001 41.02 15.7101 41.1 15.7401C41.5 15.8901 41.92 15.9901 42.28 15.9901C43.26 15.9901 43.4 15.4801 43.4 14.8301V14.4401C43.1 14.6901 42.54 14.9301 42.11 14.9301C41.46 14.9301 40.91 14.7301 40.52 14.3301C40.06 13.8801 39.83 13.1801 39.83 12.3901C39.83 10.9401 40.67 9.54008 42.26 9.54008C42.52 9.54008 42.76 9.59008 42.99 9.70008C43.16 9.78008 43.39 9.95008 43.51 10.1201L43.53 9.88008C43.54 9.74008 43.63 9.66008 43.81 9.66008H44.73C44.96 9.66008 45.03 9.75008 45.03 9.96008V14.4801C45.03 16.2901 44.24 17.2601 42.38 17.2601M43.42 11.1701C43.22 10.9801 42.89 10.8301 42.58 10.8301C42.33 10.8301 42.08 10.9301 41.9 11.1101C41.61 11.4001 41.52 11.9001 41.52 12.2801C41.52 12.6601 41.61 13.1001 41.89 13.3701C42.06 13.5401 42.32 13.6101 42.54 13.6101C42.87 13.6101 43.25 13.4001 43.42 13.2201V11.1701ZM47.56 14.9001H46.52C46.36 14.9001 46.23 14.8101 46.23 14.6101V7.64008C46.23 7.43008 46.33 7.36008 46.49 7.34008L47.51 7.20008H47.62C47.77 7.20008 47.85 7.29008 47.85 7.47008V14.6301C47.85 14.8401 47.74 14.9301 47.57 14.9301M51.39 15.0701C49.57 15.0701 48.72 13.9001 48.72 12.2901C48.72 10.6801 49.72 9.53008 51.47 9.53008C53.22 9.53008 54.15 10.7001 54.15 12.3101C54.15 13.9201 53.14 15.0701 51.4 15.0701M51.46 10.8001C50.66 10.8001 50.4 11.4901 50.4 12.2801C50.4 13.0701 50.63 13.8001 51.43 13.8001C52.23 13.8001 52.48 13.0901 52.48 12.3001C52.48 11.5101 52.25 10.8001 51.46 10.8001ZM61.42 14.9301H60.21C59.95 14.9301 59.86 14.8101 59.79 14.6301L59.36 13.3801H56.7L56.27 14.6701C56.23 14.8101 56.14 14.9301 55.95 14.9301H54.72C54.6 14.9301 54.55 14.8501 54.55 14.7501C54.55 14.7101 54.55 14.6701 54.57 14.6201L57.13 7.71008C57.19 7.55008 57.29 7.44008 57.5 7.44008H58.61C58.83 7.44008 58.94 7.53008 59 7.67008L61.62 14.5301C61.64 14.5901 61.65 14.6501 61.65 14.7001C61.65 14.8301 61.57 14.9201 61.42 14.9201M58.22 9.95008C58.15 9.74008 58.09 9.53008 58.03 9.32008H58.01C57.95 9.53008 57.89 9.74008 57.82 9.96008L57.14 12.0701H58.91L58.23 9.95008H58.22ZM70 14.9201H69.03C68.8 14.9201 68.7 14.8401 68.7 14.6001V11.7101C68.7 11.2801 68.6 10.9301 68.12 10.9301C67.74 10.9301 67.3 11.1301 67.01 11.3801V14.5901C67.01 14.8201 66.91 14.9101 66.7 14.9101H65.82C65.59 14.9101 65.49 14.8301 65.49 14.5901V11.7001C65.49 11.2701 65.39 10.9201 64.91 10.9201C64.55 10.9201 64.19 11.1001 63.89 11.3701V14.5801C63.89 14.8101 63.79 14.9001 63.58 14.9001H62.61C62.38 14.9001 62.27 14.8201 62.27 14.5801V9.93008C62.27 9.74008 62.39 9.65008 62.57 9.65008H63.45C63.63 9.65008 63.74 9.71008 63.77 9.88008L63.79 10.0801C64.22 9.71008 64.78 9.50008 65.33 9.50008C66.05 9.50008 66.45 9.86008 66.67 10.2201C67.16 9.74008 67.87 9.50008 68.55 9.50008C69.39 9.50008 69.92 9.97008 70.11 10.4201C70.3 10.8501 70.33 11.3401 70.33 12.1001V14.5901C70.33 14.8201 70.23 14.9101 70.02 14.9101M75.88 12.7101H72.86C72.99 13.3901 73.59 13.7701 74.25 13.7701C74.72 13.7701 75.18 13.6601 75.61 13.4901C75.65 13.4701 75.7 13.4601 75.74 13.4601C75.84 13.4601 75.89 13.5201 75.91 13.6101C75.95 13.7901 76.12 14.2901 76.12 14.4501C76.12 14.5901 76.02 14.6301 75.91 14.6901C75.34 14.9501 74.58 15.0601 73.96 15.0601C72.25 15.0601 71.16 14.0001 71.16 12.2801C71.16 10.5601 72.29 9.51008 73.95 9.51008C74.64 9.51008 75.22 9.77008 75.62 10.2001C76.16 10.7701 76.27 11.5201 76.27 12.2701V12.4101C76.27 12.6601 76.15 12.7201 75.88 12.7201M73.85 10.7601C73.31 10.7601 72.95 11.1901 72.88 11.7001H74.68C74.68 11.2401 74.41 10.7601 73.85 10.7601ZM80.46 9.82008L80.3 10.8301C80.28 10.9401 80.23 11.0001 80.13 11.0001H80.07C79.99 10.9701 79.88 10.9701 79.78 10.9701C79.42 10.9701 79.06 11.1201 78.79 11.3901V14.6101C78.79 14.8001 78.7 14.9101 78.49 14.9101H77.48C77.28 14.9101 77.18 14.8101 77.18 14.6101V9.97008C77.18 9.71008 77.31 9.66008 77.49 9.66008H78.36C78.56 9.66008 78.66 9.72008 78.67 9.88008L78.69 10.2001C79.08 9.73008 79.4 9.51008 80.04 9.51008C80.13 9.51008 80.25 9.53008 80.34 9.55008C80.43 9.57008 80.46 9.62008 80.47 9.69008V9.72008C80.47 9.72008 80.47 9.77008 80.47 9.81008M82.04 9.04008C81.64 9.04008 81.17 8.75008 81.17 8.23008C81.17 7.71008 81.6 7.40008 82.04 7.40008C82.48 7.40008 82.9 7.70008 82.9 8.22008C82.9 8.74008 82.45 9.04008 82.04 9.04008ZM82.55 14.9101H81.58C81.36 14.9101 81.25 14.8301 81.25 14.5901V9.94008C81.25 9.72008 81.39 9.66008 81.58 9.66008H82.55C82.75 9.66008 82.86 9.72008 82.86 9.94008V14.5901C82.86 14.8101 82.76 14.9101 82.55 14.9101ZM88.09 14.7201C87.52 14.9801 87.08 15.0501 86.44 15.0501C84.8 15.0501 83.8 14.0701 83.8 12.3601C83.8 10.6501 84.85 9.50008 86.56 9.50008C87.07 9.50008 87.55 9.58008 88.06 9.79008C88.16 9.83008 88.2 9.88008 88.2 9.98008C88.2 10.0201 88.2 10.0601 88.18 10.1001L88.01 10.8801C87.99 10.9901 87.93 11.0301 87.87 11.0301C87.83 11.0301 87.77 11.0101 87.72 10.9901C87.42 10.8701 87.11 10.7901 86.77 10.7901C85.93 10.7901 85.48 11.3501 85.48 12.2801C85.48 13.2601 85.95 13.7901 86.7 13.7901C87.16 13.7901 87.37 13.7201 87.78 13.5601C87.82 13.5501 87.86 13.5301 87.9 13.5301C87.99 13.5301 88.03 13.5901 88.05 13.6701C88.1 13.8601 88.28 14.3601 88.28 14.5301C88.28 14.6501 88.2 14.6801 88.11 14.7201M93.99 14.9101H93.42C92.78 14.9101 92.53 14.7201 92.38 14.4101H92.36C92.07 14.7401 91.38 15.0501 90.85 15.0501C89.3 15.0501 88.58 13.8201 88.58 12.3801C88.58 10.4701 89.76 9.50008 90.95 9.50008C91.55 9.50008 92.04 9.78008 92.26 10.1001L92.29 9.86008C92.29 9.74008 92.4 9.64008 92.54 9.64008H93.51C93.66 9.64008 93.77 9.73008 93.77 9.90008V13.6201C93.77 13.7301 93.81 13.8001 93.93 13.8001H94.02C94.17 13.8001 94.24 13.8601 94.24 14.0201V14.6401C94.24 14.8101 94.13 14.8901 93.98 14.8901M92.15 11.1901C91.96 11.0101 91.6 10.8201 91.28 10.8201C90.75 10.8201 90.26 11.2501 90.26 12.2501C90.26 12.9201 90.43 13.7201 91.25 13.7201C91.63 13.7201 92.02 13.4301 92.15 13.2701V11.1901ZM99.74 14.8901H98.75C98.52 14.8901 98.44 14.7701 98.44 14.5701V11.7001C98.44 11.2501 98.32 10.9501 97.83 10.9501C97.47 10.9501 97.03 11.1101 96.73 11.3701V14.5801C96.73 14.7901 96.65 14.9001 96.43 14.9001H95.42C95.24 14.9001 95.12 14.8001 95.12 14.6101V9.96008C95.12 9.76008 95.2 9.65008 95.44 9.65008H96.32C96.48 9.65008 96.6 9.69008 96.62 9.88008L96.64 10.1101C97.13 9.72008 97.73 9.51008 98.36 9.51008C99.55 9.51008 100.06 10.2501 100.06 11.4301V14.5901C100.06 14.8101 99.98 14.9101 99.75 14.9101" fill="white"/>
<path d="M13.6494 13.2976C13.1794 13.6076 12.6294 13.7276 12.1594 14.0376C11.6294 14.3376 10.8994 14.6776 10.7594 14.5776C10.6194 14.4776 10.6994 14.3376 10.7394 14.2076C11.0394 13.5076 10.9994 12.6776 11.4294 12.0276C11.6294 11.6276 11.8594 10.8476 12.0594 10.8376C12.3194 10.8276 13.1294 11.6676 13.4894 12.3076C13.6194 12.5976 13.9994 12.9676 13.6594 13.2976M13.2294 9.60762C12.6994 9.08762 11.7994 8.07762 11.4794 8.26762C11.2294 8.41762 10.9194 9.46762 10.7194 10.0976C10.3294 11.0376 10.0694 11.9476 9.81938 12.9476C9.77938 13.2776 9.61939 13.7176 9.58939 13.8776C9.55939 14.0476 9.41939 14.4676 9.37939 14.6376C9.34939 14.7876 9.10939 15.5576 9.26939 15.7776C9.37939 15.9376 9.70938 15.9076 9.89938 15.8476C10.6194 15.6776 11.0694 15.4876 11.7794 15.2976C11.8894 15.2376 12.0394 15.2176 12.1494 15.1676C12.6494 14.9976 13.0994 14.6976 13.5694 14.4776C14.2494 14.0876 15.4394 13.9676 15.4694 12.9476C15.2394 11.5976 14.0194 10.7176 13.2194 9.59762" fill="white"/>
</g>
<defs>
<clipPath id="clip0_1282_21797">
<rect width="100" height="21.84" fill="white" transform="translate(0 0.0800781)"/>
</clipPath>
</defs>
</svg>
