<svg width="250" height="150" viewBox="0 0 250 150" fill="none" xmlns="http://www.w3.org/2000/svg">
<g clip-path="url(#clip0_2056_48)">
<path fill-rule="evenodd" clip-rule="evenodd" d="M156.82 69.4541L107.436 0H126.054L166.195 56.2499L156.82 69.4541ZM43 0.132215V105.37H102.815V40.405L140.183 92.5617L154.708 72.3592L102.815 0.132215H43ZM43 122.534V149.999H49.0739V128.08L56.7324 149.999H62.5422L70.3327 128.08V149.999H76.1426V122.534H66.5035L59.6373 142.341L52.9032 122.534H43ZM131.732 0L169.1 52.1566L175.57 43.0457L144.804 0H131.732ZM179.4 37.764L152.595 0H161.97L184.417 31.0299L179.4 37.764ZM174.91 0L190.755 21.919L194.188 17.5616L181.512 0H174.91ZM201.978 6.07393L197.62 0H206.467L201.978 6.07393ZM80.7644 122.534V149.999H103.74V145.774H86.7063V138.115H102.419V133.89H86.7063V127.024H103.212V122.534H80.7644ZM147.577 149.999V122.534H170.024V127.024H153.519V133.89H169.232V138.115H153.519V145.774H170.552V149.999H147.577ZM174.778 122.534V149.999H180.059V127.948L192.603 149.999H201.186V122.534H195.904V144.189L183.36 122.534H174.778ZM107.701 122.534H113.511V149.999H107.701V122.534ZM118.528 150V122.536H132.129C136.486 122.536 144.937 125.837 144.673 136.532C144.409 147.198 137.542 150 132.129 150H118.528ZM124.47 145.512V127.026H131.204C134.109 127.026 138.863 129.535 138.863 136.533C138.863 143.407 134.505 145.512 131.468 145.512H124.47Z" fill="white"/>
</g>
<defs>
<clipPath id="clip0_2056_48">
<rect width="250" height="150" fill="white"/>
</clipPath>
</defs>
</svg>
