<svg width="101" height="60" viewBox="0 0 101 60" fill="none" xmlns="http://www.w3.org/2000/svg">
<g clip-path="url(#clip0_1282_21954)">
<path d="M95.0098 24.5125C94.2098 25.9625 91.6098 30.2125 91.6098 30.2125L90.8598 28.9625C91.3298 28.1625 93.1198 25.1125 93.8898 23.8025C93.8898 23.8025 94.0998 23.3625 95.1199 23.3625H96.8198C96.8198 23.3625 95.5898 23.4525 95.0098 24.5025M90.9298 34.8425C90.5998 34.2825 86.6998 27.7925 86.3498 27.2025C85.9298 26.5125 85.2098 26.3425 85.2098 26.3425H86.4799C87.3599 26.3425 87.6098 26.8225 87.6098 26.8225L91.6898 33.6225L90.9398 34.8325L90.9298 34.8425ZM97.7098 24.9825H100.82V21.8125H94.1398C93.4998 21.9025 92.9398 22.1225 92.6199 22.6525C91.9499 23.7725 90.7999 25.6625 90.7999 25.6625C90.7999 25.6625 90.0798 22.3925 87.7098 21.9125C87.5198 21.8725 87.3198 21.8425 87.1298 21.8125H81.3398V23.6025H87.0198C88.0998 23.6025 88.7198 25.4325 88.7198 25.4325C88.7198 25.4325 88.1898 24.9025 87.1798 24.9025H81.3598C81.3498 25.9725 81.3598 28.1625 81.3598 28.1625C81.3598 28.1625 83.1398 28.1625 84.2498 28.1625C84.5798 28.1625 84.8498 28.2625 85.0598 28.5325C85.1398 28.6625 90.9298 38.1925 90.9298 38.1925C90.9298 38.1925 96.8998 28.5925 97.0198 28.4225C97.0198 28.4225 97.3598 27.8525 98.2898 27.8525H100.81V26.2425H97.7299C96.5099 26.2425 95.8598 26.9725 95.8598 26.9725L96.4298 25.7525C96.7698 25.0025 97.7098 24.9925 97.7098 24.9925" fill="white"/>
<path d="M0.820312 26.3438L5.54031 36.0238H7.83031L12.5503 26.3438H9.71031L7.48031 31.4737L5.25031 26.3438H0.820312Z" fill="white"/>
<path fill-rule="evenodd" clip-rule="evenodd" d="M15.2128 33.0906C15.2128 32.1506 16.3328 31.8406 18.4628 31.2506V31.7206C18.4628 32.0706 18.4628 32.6606 18.2228 33.1706C17.9928 33.6806 17.5328 34.0906 16.6128 34.0906C16.0028 34.0906 15.2028 33.8206 15.2028 33.1106V33.0906H15.2128ZM22.5928 36.0106C22.2628 34.6206 22.2028 33.6406 22.2028 32.4506V29.8506C22.2028 28.8506 22.1228 28.2606 21.7328 27.7306C20.9728 26.6906 19.1028 26.1406 17.0928 26.1406C15.4828 26.1406 13.9028 26.4306 12.4128 27.0406L13.0228 28.9206C13.8828 28.5706 15.0028 28.2706 16.0428 28.2706C16.6928 28.2706 18.4728 28.3706 18.4728 29.3706V29.5306C14.5328 30.5106 11.6328 31.2106 11.6328 33.5106C11.6328 34.9206 12.9228 36.2106 15.1428 36.2106C16.8428 36.2106 17.9028 35.5106 18.7228 34.6406L18.9528 36.0106H22.5928Z" fill="white"/>
<path d="M23.1875 36.0125H27.1075V21.8125H23.1875V36.0125Z" fill="white"/>
<path d="M27.8086 26.3423V36.0223H31.7286V31.3023C31.7286 30.2623 31.7286 28.6023 33.3686 28.6023C34.7186 28.6023 34.7186 29.7023 34.7186 30.3023V36.0223H38.6386V31.3023C38.6386 30.2623 38.6386 28.6023 40.2886 28.6023C41.6386 28.6023 41.6386 29.7023 41.6386 30.3023V36.0223H45.5586V29.8923C45.5586 28.7923 45.4786 28.3223 45.2086 27.8523C44.5586 26.6723 43.1286 26.1523 41.7586 26.1523C41.1086 26.1523 39.3286 26.2523 38.1886 27.9123C37.4486 26.6223 36.0586 26.1523 34.7986 26.1523C32.6786 26.1523 31.7586 27.3623 31.4286 27.8223L31.1386 26.3523H27.8086" fill="white"/>
<path fill-rule="evenodd" clip-rule="evenodd" d="M50.2086 31.0606C50.2086 29.2806 50.5186 27.9806 52.0486 27.9806C53.2386 27.9806 53.8686 28.6306 53.8686 30.9406C53.8686 33.2506 53.4186 34.3306 52.0486 34.3306C50.6586 34.3306 50.2086 33.3706 50.2086 31.0806V31.0606ZM46.0586 31.2906C46.0586 33.8206 47.9586 36.2106 51.9386 36.2106C55.9186 36.2106 58.0286 34.1206 58.0286 31.1006C58.0286 28.4006 56.2486 26.1406 52.1186 26.1406C47.9886 26.1406 46.0686 28.6706 46.0686 31.2706V31.2906" fill="white"/>
<path d="M58.6484 26.3423V36.0223H62.5684V31.2823C62.5684 30.2423 62.5684 28.6023 64.3684 28.6023C65.7184 28.6023 65.8584 29.4623 65.8584 30.4423V36.0223H69.7784V30.2423C69.7784 29.0123 69.7584 28.4423 69.4284 27.8523C68.7984 26.7323 67.4484 26.1523 65.9384 26.1523C64.5284 26.1523 63.1184 26.6623 62.2784 27.7823L61.9884 26.3523H58.6584" fill="white"/>
<path d="M72.0011 23.7734L71.8411 26.3434H70.1211V28.2034H71.6711V33.1434C71.6711 33.7734 71.6511 34.4334 72.0411 34.9834C72.5711 35.7234 73.6111 36.1734 75.1011 36.1734C76.0611 36.1734 77.1611 36.0734 78.0811 35.8234L77.6311 33.9034C77.4111 33.9634 77.0811 34.0434 76.7311 34.0434C75.6111 34.0434 75.5911 33.5134 75.5911 32.7134V28.2134H77.8011V26.3534H75.3711V23.7834H72.0011" fill="white"/>
</g>
<defs>
<clipPath id="clip0_1282_21954">
<rect width="100" height="60" fill="white" transform="translate(0.820312)"/>
</clipPath>
</defs>
</svg>
