<svg width="100" height="20" viewBox="0 0 100 20" fill="none" xmlns="http://www.w3.org/2000/svg">
<g clip-path="url(#clip0_1282_21928)">
<path d="M15.26 3.7832H6.77L13.69 10.6332L12.34 11.8032L4.36 3.8132L2.79 5.1832L10.94 13.3832L9.54 14.6932L1.47 6.5732L0 8.0332L8.08 16.0332L6.73 17.4332L0.01 10.7832V19.0132C3.85 19.0132 7.63 19.0932 11.41 18.9832C13.85 18.9132 15.26 17.2332 15.26 14.7932V3.7832Z" fill="white"/>
<path d="M29.6308 8.69266C30.4308 8.20266 30.9508 7.66266 31.0308 6.80266C31.1808 5.27266 30.4208 4.21266 28.7308 3.91266C26.2808 3.47266 21.3008 3.70266 21.3008 3.70266V14.7627C22.9708 14.7627 24.5908 14.7527 26.2208 14.7627C27.1508 14.7627 28.0708 14.7727 28.9808 14.5527C30.5808 14.1627 31.4308 13.1727 31.5308 11.5427C31.6108 10.1827 30.9508 9.27266 29.6308 8.68266V8.69266ZM24.4108 5.98266C25.2808 5.98266 26.1008 5.97266 26.9208 5.98266C27.5408 5.99266 27.9208 6.33266 27.9508 6.94266C27.9808 7.51266 27.6308 7.87266 27.0708 7.98266C26.2108 8.16266 25.3308 8.01266 24.4108 8.07266V5.97266V5.98266ZM27.2908 12.3927C26.3508 12.4527 25.4008 12.4127 24.4208 12.4127V9.97266C25.4108 9.97266 26.3608 9.92266 27.2908 9.99266C27.9908 10.0427 28.4408 10.4927 28.4308 11.2427C28.4108 11.9527 27.9508 12.3527 27.2908 12.3927Z" fill="white"/>
<path d="M53.2208 9.58632C53.8608 9.20632 54.3608 8.77632 54.6308 8.13632C55.5208 6.06632 54.3108 4.08632 51.8508 3.79632C49.5408 3.52632 44.8008 3.67632 44.8008 3.67632V14.7363H47.8108V10.7863H49.7408C51.1708 10.7863 51.6408 11.2363 51.7908 12.6763C51.8608 13.3663 51.8408 14.0763 52.1408 14.7563H55.2008C54.4108 13.0463 55.3908 10.7663 53.2108 9.58632H53.2208ZM50.7908 8.44632C49.8208 8.50632 48.8508 8.46632 47.7808 8.46632V6.03632C48.8508 6.05632 49.9108 5.91632 50.9608 6.14632C51.5608 6.27632 51.8008 6.71632 51.7708 7.32632C51.7408 7.97632 51.4108 8.40632 50.7808 8.44632H50.7908Z" fill="white"/>
<path d="M38.0194 3.36523C34.5094 3.36523 32.1194 5.70523 32.1094 9.16523C32.0994 12.6252 34.4594 15.0052 37.9694 15.0152C41.5394 15.0152 43.9394 12.6852 43.9294 9.19523C43.9294 5.74523 41.5194 3.38523 38.0294 3.37523L38.0194 3.36523ZM40.3194 11.1252C39.8394 12.1152 38.8294 12.5852 37.6894 12.4652C36.6094 12.3552 35.7594 11.6352 35.4494 10.5252C35.3594 10.1652 35.2994 9.79523 35.2594 9.43523C35.2494 6.86523 36.7694 5.47523 38.7794 5.99523C39.3994 6.13523 39.9294 6.53523 40.2294 7.09523C40.9594 8.42523 40.9594 9.78523 40.3194 11.1352V11.1252Z" fill="white"/>
<path d="M69.6822 10.2163H74.9622V7.90633H69.6622V6.05633H75.4722V3.73633H66.7422V14.7263H75.6222V12.2163H69.6622C69.5922 11.5463 69.5922 10.8763 69.6722 10.2063L69.6822 10.2163Z" fill="white"/>
<path d="M61.7405 6.1822C62.4305 6.4522 62.7505 7.0322 62.9605 7.6322H65.7705C65.7105 5.4622 63.9005 3.7822 61.3405 3.5022C58.6105 3.1722 56.0605 4.9522 55.4505 7.6322C55.0605 9.1222 55.2205 10.7122 55.9105 12.0922C56.7505 13.7822 58.1805 14.6922 60.0605 15.0122L59.4005 16.1422C59.7205 16.8322 61.1605 15.8022 60.9205 17.2422C60.2305 17.7222 59.6105 17.2422 58.9905 17.2622C58.8205 17.4122 58.7205 17.6322 58.7205 17.8622C59.3805 18.2822 60.1605 18.4622 60.9305 18.3722C61.9805 18.2422 62.5205 17.6922 62.4705 16.8022C62.4305 16.0122 61.9705 15.6722 60.8805 15.6222C60.8005 15.6022 60.7305 15.5722 60.6605 15.5322C60.7905 15.3122 60.8605 15.1022 61.1005 15.0222C63.9805 14.7622 66.1105 12.6822 65.6705 10.5022H62.9805C62.4805 12.0522 61.9105 12.5122 60.6005 12.4822C59.4105 12.4422 58.5705 11.6922 58.2905 10.3122C58.0805 9.4022 58.1405 8.4522 58.4705 7.5822C59.0105 6.2322 60.4005 5.6522 61.7505 6.1722L61.7405 6.1822Z" fill="white"/>
<path d="M95.4619 8.06414L99.4819 3.75414H95.8719L92.3419 7.85414V3.74414H89.4219V14.7241H92.3319V11.4641L93.5019 10.2041L96.3919 14.7041H100.002L95.4619 8.07414V8.06414Z" fill="white"/>
<path d="M79.4072 3.77539H76.6172V14.7054H84.5172V12.4154H79.4172V3.77539H79.4072Z" fill="white"/>
<path d="M85.3594 14.6859H88.1394V3.75586H85.3594V14.6859Z" fill="white"/>
<path d="M85.3516 0.955078V2.84508H88.1816C88.2816 2.21508 88.2816 1.57508 88.1816 0.955078H85.3516Z" fill="white"/>
</g>
<defs>
<clipPath id="clip0_1282_21928">
<rect width="100" height="18.09" fill="white" transform="translate(0 0.955078)"/>
</clipPath>
</defs>
</svg>
