<?xml version="1.0" encoding="UTF-8"?>
<svg id="white" xmlns="http://www.w3.org/2000/svg" viewBox="0 0 100 60">
  <defs>
    <style>
      .cls-1 {
        fill: #fff;
        stroke-width: 0px;
      }
    </style>
  </defs>
  <g>
    <g>
      <path class="cls-1" d="m45.69,25.81l-4.07,11.73-1.93-11.73h-5.23l-1.59,5.54c-.17.6-.26,1.25-.36,1.87h-.13l-1.95-7.42h-5.28l-2.29,14.12h4.96l.6-6.03c.06-.56.09-1.14.13-1.7h.17c.04.6.17,1.16.32,1.76l1.84,5.98h3l2.04-6.33c.15-.45.24-.94.34-1.4h.09l.69,7.73h4.96s4.21,0,4.21,0l.41-1.76h3.88l.47,1.76h5.43l-5.04-14.12h-5.68Zm1.85,9.01l.94-4.31h.19c.09.6.19,1.22.34,1.82l.6,2.49h-2.06Z"/>
      <path class="cls-1" d="m62.43,34.95h2.32c-.24.86-1.27,1.24-2.08,1.24-1.67,0-2.64-1.46-2.64-3.02,0-1.7,1.01-3.28,2.85-3.28.82,0,1.55.37,1.95,1.09l4.79-1.76c-1.1-2.42-4.48-3.63-6.93-3.63-4.44,0-7.83,2.77-7.83,7.38s3.48,7.19,7.79,7.19c2.19,0,4.49-.88,5.99-2.51,1.67-1.8,1.67-3.73,1.71-6.03h-7.92v3.33Z"/>
      <path class="cls-1" d="m94.96,25.81h-5.68l-4.39,12.64v-12.64h-4.91v4.23c0,1.2.23,2.42.43,3.6h-.15l-4.61-7.83h-4.93v14.12h4.91v-4.59c0-.94-.15-1.86-.32-2.83h.15l4.51,7.42h4.91s4.92,0,4.92,0l.41-1.76h3.88l.47,1.76h5.43l-5.04-14.12Zm-3.82,9.01l.94-4.31h.19c.09.6.19,1.22.34,1.82l.6,2.49h-2.06Z"/>
    </g>
    <path class="cls-1" d="m11.43,19.85c-1.43,0-2.58,1.16-2.58,2.59s1.16,2.58,2.58,2.58,2.58-1.16,2.58-2.58-1.16-2.59-2.58-2.59"/>
    <g>
      <polygon class="cls-1" points="15.24 25.85 11.34 25.84 10.62 27.81 15.04 39.94 20.36 39.94 15.24 25.85"/>
      <polygon class="cls-1" points="0 39.94 7.93 39.94 3.97 29.05 0 39.94"/>
      <polygon class="cls-1" points="5.13 25.84 4.42 27.81 8.83 39.94 14.15 39.94 9.03 25.85 5.13 25.84"/>
    </g>
  </g>
  <g>
    <g>
      <path class="cls-1" d="m45.69,25.81l-4.07,11.73-1.93-11.73h-5.23l-1.59,5.54c-.17.6-.26,1.25-.36,1.87h-.13l-1.95-7.42h-5.28l-2.29,14.12h4.96l.6-6.03c.06-.56.09-1.14.13-1.7h.17c.04.6.17,1.16.32,1.76l1.84,5.98h3l2.04-6.33c.15-.45.24-.94.34-1.4h.09l.69,7.73h4.96s4.21,0,4.21,0l.41-1.76h3.88l.47,1.76h5.43l-5.04-14.12h-5.68Zm1.85,9.01l.94-4.31h.19c.09.6.19,1.22.34,1.82l.6,2.49h-2.06Z"/>
      <path class="cls-1" d="m62.43,34.95h2.32c-.24.86-1.27,1.24-2.08,1.24-1.67,0-2.64-1.46-2.64-3.02,0-1.7,1.01-3.28,2.85-3.28.82,0,1.55.37,1.95,1.09l4.79-1.76c-1.1-2.42-4.48-3.63-6.93-3.63-4.44,0-7.83,2.77-7.83,7.38s3.48,7.19,7.79,7.19c2.19,0,4.49-.88,5.99-2.51,1.67-1.8,1.67-3.73,1.71-6.03h-7.92v3.33Z"/>
      <path class="cls-1" d="m94.96,25.81h-5.68l-4.39,12.64v-12.64h-4.91v4.23c0,1.2.23,2.42.43,3.6h-.15l-4.61-7.83h-4.93v14.12h4.91v-4.59c0-.94-.15-1.86-.32-2.83h.15l4.51,7.42h4.91s4.92,0,4.92,0l.41-1.76h3.88l.47,1.76h5.43l-5.04-14.12Zm-3.82,9.01l.94-4.31h.19c.09.6.19,1.22.34,1.82l.6,2.49h-2.06Z"/>
    </g>
    <path class="cls-1" d="m11.43,19.85c-1.43,0-2.58,1.16-2.58,2.59s1.16,2.58,2.58,2.58,2.58-1.16,2.58-2.58-1.16-2.59-2.58-2.59"/>
    <g>
      <polygon class="cls-1" points="15.24 25.85 11.34 25.84 10.62 27.81 15.04 39.94 20.36 39.94 15.24 25.85"/>
      <polygon class="cls-1" points="0 39.94 7.93 39.94 3.97 29.05 0 39.94"/>
      <polygon class="cls-1" points="5.13 25.84 4.42 27.81 8.83 39.94 14.15 39.94 9.03 25.85 5.13 25.84"/>
    </g>
  </g>
</svg>