<?xml version="1.0" encoding="UTF-8"?><svg id="white" xmlns="http://www.w3.org/2000/svg" viewBox="0 0 100 60"><defs><style>.cls-1{fill:#fff;stroke-width:0px;}</style></defs><path class="cls-1" d="M99.98,19.04v.02c0-1.16-.05-2.32-.08-3.49-.26-.03-.51-.09-.77-.09H.87c-.26,0-.51.06-.77.09-.03.21-.08.41-.08.62C.02,25.35.02,34.53,0,43.68c0,.69.25.83.87.83,32.76-.01,65.51-.01,98.27,0,.72,0,.86-.25.86-.91-.02-8.19-.01-16.37-.02-24.56ZM23.23,35.97c-.91,2.39-2.82,3.55-5.02,4.45-.31.13-.54.44-.82.65-.12.09-.26.2-.4.2h-6.37c-.06,0-.11-.07-.17-.11-.1-.15-.21-.3-.31-.45-2.12-.74-4.1-1.67-5.28-3.73-.73-.78-.79-1.73-.69-2.73v-.43c0-.97.43-1.78.98-2.52,1.09-1.48,2.51-2.48,4.3-2.92.99-.28.94-1.19,1.16-1.92.49-1.62,1.27-3.09,2.87-3.8.99-.44,2.13-.57,3.21-.8.46-.1.46.28.46.6,0,1.57.01,3.15,0,4.72,0,.55.14.87.71,1.05v.02c1.39.44,2.7,1.06,3.74,2.13.1.1.17.22.25.33,1.42,1.23,1.99,3.67,1.38,5.26ZM34.37,26.41c0,3.4-.01,6.8-.03,10.2,0,.03-.15.07-.23.1-.56,2.23-2.18,3.26-4.26,3.7-.81.17-1.66.18-2.49.18-.22,0-.56-.25-.65-.47-.27-.63-.44-1.31-.65-1.96-.08-.14-.16-.28-.32-.55,1.29.23,2.4.13,3.46-.33,1.04-.88,1.13-2.11,1.13-3.33,0-3.07-.06-6.14-.09-9.21h0v-1.14h4.13v2.81ZM64.49,26.71c-.19.09-.38.25-.58.26-.71.03-1.43,0-2.15,0-.68,0-1.02.33-1.02.98,0,3.67-.02,7.35.02,11.02,0,.73-.18.96-.92.92-1-.06-2-.01-3.01-.02-.78,0-.98-.19-.96-.97.08-3.55.17-7.11.28-10.66.03-1.08-.2-1.33-1.25-1.27-.64.03-1.29.02-1.93,0-.34,0-.68-.08-1.11-.13.11.29.21.61.35.9.79,1.66.99,3.45.75,5.22-.32,2.35-1.45,4.35-3.35,5.82-.92.71-1.92,1.3-3.15,1.39-.98.07-1.97.31-2.93.24-1.31-.1-2.62-.37-3.71-1.23-.55-.43-1.25-.72-1.69-1.25-.67-.81-1.26-1.73-1.73-2.68-.68-1.38-.62-2.91-.62-4.42,0-1.68.71-3.05,1.55-4.42.87-1.42,2.07-2.43,3.62-3,.64-.23,1.35-.3,2.02-.44h2.83c1.56-.03,2.85.67,4.02,1.59.6.47,1.02,1.16,1.53,1.74.08.1.23.14.5.29v-2.29h.02c0-.91.15-1.06,1.02-1.06,3.63,0,7.26,0,10.88.01.24,0,.48.17.72.26.4.43.4,2.76,0,3.19ZM79.49,24.43c-.09.23-.11.51-.11.76,0,3.25.03,6.49-.03,9.74-.02,1.09-.42,2.09-1.05,3.05-.69,1.06-1.69,1.65-2.76,2.05-.92.34-1.98.3-2.98.4-1.72.17-3.31-.31-4.76-1.19-.97-.59-1.63-1.53-1.88-2.64-.21-.93-.28-1.9-.3-2.85-.04-2.22,0-4.44-.03-6.66-.02-.96-.2-1.91-.25-2.86-.04-.79.17-.97.95-.98,1,0,2.01-.02,3.01.01.2,0,.4.19.6.29v-.02c.11.25.29.5.29.75.02,3.39.01,6.78.01,10.17,0,1.1.92,2.27,1.97,2.52.71.17,2.17-.69,2.31-1.43.15-.8.28-1.62.29-2.43.03-3.03.03-6.06,0-9.09,0-.64.19-.82.81-.8,1.05.05,2.1,0,3.15.02.85,0,1.08.4.76,1.19ZM95.15,24.59v.03c0,4.9,0,9.8,0,14.7-.2.15-.39.41-.59.42-.8.05-1.61.06-2.42,0-.77-.05-.93-.75-1.21-1.3-1.56-2.11-3.11-4.22-4.67-6.34-.24-.16-.48-.32-.85-.56v7.2c0,.67-.33,1.01-.99,1.01h-2.28c-.44,0-.68-.14-.65-.62.07-1.32.14-2.65.21-3.97v-11.65c1,0,2.04-.02,3.08.02.17,0,.37.25.5.43,1.87,2.55,3.72,5.1,5.58,7.65.13.18.29.35.58.69v-1.09c-.03-2.36-.06-4.72-.1-7.08,0-.43.04-.72.56-.62.85-.02,1.7-.05,2.55-.07.21,0,.42.04.71.07v1.08Z"/><path class="cls-1" d="M10.03,33.86s.08-.03.12-.03v-2.41h-1.83s-.08.09-.11.14c-.29.72-.57,1.44-.92,2.3h2.74Z"/><path class="cls-1" d="M6.73,33.85h.01c.36-.84.67-1.57.98-2.29-.62-.1-1.25-.2-1.87-.3-.36.62-.73,1.24-1.09,1.86-.03.15-.06.3-.1.45,0,.09,0,.19.02.28h2.05Z"/><path class="cls-1" d="M6.77,34.28c-.72.05-1.46.09-2.2.14.19.77.39,1.54.58,2.31h1.97c-.12-.81-.22-1.57-.35-2.45Z"/><path class="cls-1" d="M5.68,37.36s.05.12.07.19c.19.18.35.4.57.52,1.03.6,2.07,1.17,3.11,1.76-.6-.73-1.22-1.44-1.8-2.18-.29-.38-1.59-.61-1.95-.29Z"/><path class="cls-1" d="M8.08,37.28c-.05.06-.1.12-.14.19.66.68,1.31,1.37,1.97,2.05.09-.11.26-.21.26-.32.02-.64,0-1.28,0-1.92h-2.09Z"/><path class="cls-1" d="M20.74,33.82h2.18c-.1-.4-.19-.77-.28-1.13-.2-.37-.39-.74-.59-1.11-.7-.08-1.41-.15-2.17-.23.32.93.59,1.7.86,2.47Z"/><path class="cls-1" d="M22.6,34.34c-.6-.05-1.21-.02-1.8-.02-.12.85-.23,1.61-.35,2.44.44,0,.85.05,1.24-.01.31-.05.6-.23.9-.36.07-.18.13-.36.2-.54.03-.1.06-.2.09-.3.03-.26.12-.53.08-.77-.03-.17-.22-.43-.36-.44Z"/><path class="cls-1" d="M41.11,27.83c-.34.61-.49,1.33-.72,2,0,1.24,0,2.47,0,3.71.3.72.5,1.5.91,2.16,1.35,2.16,4.66,2.27,6.05.14,1.67-2.57,1.61-5.39.28-8.03-1.36-2.72-5.04-2.64-6.53.02Z"/><path class="cls-1" d="M14.08,24.76h0c.2.01.43-.31.82-.61-.42-.26-.67-.55-.87-.51-.22.04-.54.38-.52.58.01.2.35.52.57.54Z"/><path class="cls-1" d="M15.67,29.2l-.03-.02c-.98-1.17-2.07-1.53-3.05-.71-.58.48-.98,1.34-1.19,2.1-.54,1.98-.53,4.02-.26,6.04.13.95.38,1.94.8,2.79.82,1.63,2.73,1.63,3.66.06.23-.38.43-.81.52-1.25.65-3.03.75-6.04-.45-8.98v-.03Z"/><path class="cls-1" d="M20.1,34.27c-.89.04-1.83.09-2.77.13v2.29c2.45.3,2.97-.1,2.85-2.17h.02s-.03-.09-.1-.25Z"/><path class="cls-1" d="M17.36,39.21c0,.12.17.23.26.35.72-.66,1.51-1.26,1.89-2.26h-2.16c0,.64-.01,1.28,0,1.91Z"/><path class="cls-1" d="M17.36,31.43v2.39h2.76c-.33-2.22-.66-2.5-2.76-2.39Z"/></svg>